%TF.GenerationSoftware,KiCad,Pcbnew,8.0.4*%
%TF.CreationDate,2024-07-27T20:34:00+02:00*%
%TF.ProjectId,chihuahua,63686968-7561-4687-9561-2e6b69636164,rev?*%
%TF.SameCoordinates,Original*%
%TF.FileFunction,Drillmap*%
%TF.FilePolarity,Positive*%
%FSLAX45Y45*%
G04 Gerber Fmt 4.5, Leading zero omitted, Abs format (unit mm)*
G04 Created by KiCad (PCBNEW 8.0.4) date 2024-07-27 20:34:00*
%MOMM*%
%LPD*%
G01*
G04 APERTURE LIST*
%ADD10C,0.050000*%
%ADD11C,0.200000*%
G04 APERTURE END LIST*
D10*
X2159000Y-2413000D02*
X11430000Y-2413000D01*
X11684000Y-2667000D02*
X11684000Y-9398000D01*
X11430000Y-9652000D02*
X2159000Y-9652000D01*
X1905000Y-9398000D02*
X1905000Y-2667000D01*
X2159000Y-9652000D02*
G75*
G02*
X1905000Y-9398000I0J254000D01*
G01*
X11684000Y-9398000D02*
G75*
G02*
X11430000Y-9652000I-254000J0D01*
G01*
X11430000Y-2413000D02*
G75*
G02*
X11684000Y-2667000I0J-254000D01*
G01*
X1905000Y-2667000D02*
G75*
G02*
X2159000Y-2413000I254000J0D01*
G01*
D11*
X2163277Y-9965984D02*
X2163277Y-9765984D01*
X2163277Y-9765984D02*
X2210896Y-9765984D01*
X2210896Y-9765984D02*
X2239467Y-9775508D01*
X2239467Y-9775508D02*
X2258515Y-9794555D01*
X2258515Y-9794555D02*
X2268039Y-9813603D01*
X2268039Y-9813603D02*
X2277563Y-9851698D01*
X2277563Y-9851698D02*
X2277563Y-9880270D01*
X2277563Y-9880270D02*
X2268039Y-9918365D01*
X2268039Y-9918365D02*
X2258515Y-9937412D01*
X2258515Y-9937412D02*
X2239467Y-9956460D01*
X2239467Y-9956460D02*
X2210896Y-9965984D01*
X2210896Y-9965984D02*
X2163277Y-9965984D01*
X2363277Y-9965984D02*
X2363277Y-9832650D01*
X2363277Y-9870746D02*
X2372801Y-9851698D01*
X2372801Y-9851698D02*
X2382324Y-9842174D01*
X2382324Y-9842174D02*
X2401372Y-9832650D01*
X2401372Y-9832650D02*
X2420420Y-9832650D01*
X2487086Y-9965984D02*
X2487086Y-9832650D01*
X2487086Y-9765984D02*
X2477563Y-9775508D01*
X2477563Y-9775508D02*
X2487086Y-9785031D01*
X2487086Y-9785031D02*
X2496610Y-9775508D01*
X2496610Y-9775508D02*
X2487086Y-9765984D01*
X2487086Y-9765984D02*
X2487086Y-9785031D01*
X2610896Y-9965984D02*
X2591848Y-9956460D01*
X2591848Y-9956460D02*
X2582324Y-9937412D01*
X2582324Y-9937412D02*
X2582324Y-9765984D01*
X2715658Y-9965984D02*
X2696610Y-9956460D01*
X2696610Y-9956460D02*
X2687086Y-9937412D01*
X2687086Y-9937412D02*
X2687086Y-9765984D01*
X2944229Y-9965984D02*
X2944229Y-9765984D01*
X2944229Y-9765984D02*
X3010896Y-9908841D01*
X3010896Y-9908841D02*
X3077562Y-9765984D01*
X3077562Y-9765984D02*
X3077562Y-9965984D01*
X3258515Y-9965984D02*
X3258515Y-9861222D01*
X3258515Y-9861222D02*
X3248991Y-9842174D01*
X3248991Y-9842174D02*
X3229943Y-9832650D01*
X3229943Y-9832650D02*
X3191848Y-9832650D01*
X3191848Y-9832650D02*
X3172801Y-9842174D01*
X3258515Y-9956460D02*
X3239467Y-9965984D01*
X3239467Y-9965984D02*
X3191848Y-9965984D01*
X3191848Y-9965984D02*
X3172801Y-9956460D01*
X3172801Y-9956460D02*
X3163277Y-9937412D01*
X3163277Y-9937412D02*
X3163277Y-9918365D01*
X3163277Y-9918365D02*
X3172801Y-9899317D01*
X3172801Y-9899317D02*
X3191848Y-9889793D01*
X3191848Y-9889793D02*
X3239467Y-9889793D01*
X3239467Y-9889793D02*
X3258515Y-9880270D01*
X3353753Y-9832650D02*
X3353753Y-10032650D01*
X3353753Y-9842174D02*
X3372801Y-9832650D01*
X3372801Y-9832650D02*
X3410896Y-9832650D01*
X3410896Y-9832650D02*
X3429943Y-9842174D01*
X3429943Y-9842174D02*
X3439467Y-9851698D01*
X3439467Y-9851698D02*
X3448991Y-9870746D01*
X3448991Y-9870746D02*
X3448991Y-9927889D01*
X3448991Y-9927889D02*
X3439467Y-9946936D01*
X3439467Y-9946936D02*
X3429943Y-9956460D01*
X3429943Y-9956460D02*
X3410896Y-9965984D01*
X3410896Y-9965984D02*
X3372801Y-9965984D01*
X3372801Y-9965984D02*
X3353753Y-9956460D01*
X3534705Y-9946936D02*
X3544229Y-9956460D01*
X3544229Y-9956460D02*
X3534705Y-9965984D01*
X3534705Y-9965984D02*
X3525182Y-9956460D01*
X3525182Y-9956460D02*
X3534705Y-9946936D01*
X3534705Y-9946936D02*
X3534705Y-9965984D01*
X3534705Y-9842174D02*
X3544229Y-9851698D01*
X3544229Y-9851698D02*
X3534705Y-9861222D01*
X3534705Y-9861222D02*
X3525182Y-9851698D01*
X3525182Y-9851698D02*
X3534705Y-9842174D01*
X3534705Y-9842174D02*
X3534705Y-9861222D01*
M02*
