M48
; DRILL file {KiCad 8.0.4} date 2024-07-27T20:33:59+0200
; FORMAT={-:-/ absolute / metric / decimal}
; #@! TF.CreationDate,2024-07-27T20:33:59+02:00
; #@! TF.GenerationSoftware,Kicad,Pcbnew,8.0.4
; #@! TF.FileFunction,Plated,1,2,PTH
FMAT,2
METRIC
; #@! TA.AperFunction,Plated,PTH,ViaDrill
T1C0.350
; #@! TA.AperFunction,Plated,PTH,ViaDrill
T2C0.500
; #@! TA.AperFunction,Plated,PTH,ComponentDrill
T3C0.600
; #@! TA.AperFunction,Plated,PTH,ComponentDrill
T4C0.750
; #@! TA.AperFunction,Plated,PTH,ComponentDrill
T5C0.800
; #@! TA.AperFunction,Plated,PTH,ComponentDrill
T6C0.900
; #@! TA.AperFunction,Plated,PTH,ComponentDrill
T7C1.000
; #@! TA.AperFunction,Plated,PTH,ComponentDrill
T8C1.016
; #@! TA.AperFunction,Plated,PTH,ComponentDrill
T9C1.100
; #@! TA.AperFunction,Plated,PTH,ComponentDrill
T10C3.200
%
G90
G05
T1
X26.035Y-52.07
X27.305Y-49.53
X27.94Y-46.99
X28.575Y-44.45
X29.21Y-26.67
X29.21Y-40.64
X29.845Y-27.305
X29.845Y-43.18
X32.385Y-53.34
X32.385Y-63.5
X32.385Y-66.675
X32.385Y-69.215
X33.02Y-55.88
X33.655Y-59.69
X35.56Y-54.61
X35.56Y-76.2
X39.37Y-29.21
X39.464Y-77.919
X40.005Y-73.66
X40.005Y-76.942
X47.625Y-31.75
X48.26Y-34.29
X48.895Y-36.83
X49.53Y-39.37
X50.165Y-41.91
X54.61Y-77.5
X57.15Y-48.895
X57.785Y-52.07
X58.42Y-27.94
X58.42Y-53.975
X58.42Y-55.245
X58.42Y-78.105
X58.42Y-85.025
X58.42Y-85.725
X59.055Y-57.15
X59.12Y-78.105
X62.865Y-29.21
X64.77Y-84.455
X66.04Y-43.18
X67.31Y-81.28
X69.85Y-86.36
X70.431Y-69.904
X71.12Y-66.675
X71.12Y-68.58
X71.755Y-26.85
X80.645Y-66.04
X81.915Y-72.39
X85.725Y-41.91
X85.725Y-44.45
X86.36Y-74.93
X86.995Y-69.85
X86.995Y-72.39
X86.995Y-77.47
X87.63Y-80.117
X90.17Y-66.04
X91.44Y-70.485
X91.44Y-86.36
X92.075Y-54.61
X92.71Y-49.53
X105.41Y-73.66
T2
X32.9Y-72.39
X41.91Y-78.74
X70.485Y-40.64
X70.485Y-41.91
X72.39Y-79.375
X72.39Y-83.185
X76.2Y-41.91
X91.44Y-78.507
X96.52Y-72.39
T3
X59.69Y-92.71
X61.19Y-92.71
X95.02Y-76.2
X96.52Y-76.2
T4
X45.14Y-79.48
X45.14Y-80.75
X45.14Y-82.02
X90.17Y-81.28
X90.17Y-82.55
X90.17Y-83.82
X95.25Y-81.28
X95.25Y-82.55
X95.25Y-83.82
T5
X30.48Y-57.15
X30.48Y-59.69
X30.48Y-62.23
X30.48Y-64.77
X30.48Y-67.31
X30.48Y-69.85
X30.48Y-72.39
X31.75Y-90.17
X34.29Y-90.17
X38.1Y-57.15
X38.1Y-59.69
X38.1Y-62.23
X38.1Y-64.77
X38.1Y-67.31
X38.1Y-69.85
X38.1Y-72.39
X41.91Y-27.94
X41.91Y-30.48
X41.91Y-33.02
X41.91Y-35.56
X41.91Y-38.1
X41.91Y-40.64
X41.91Y-43.18
X41.91Y-45.72
X41.91Y-48.26
X41.91Y-53.34
X41.91Y-55.88
X41.91Y-58.42
X41.91Y-60.96
X41.91Y-63.5
X41.91Y-66.04
X41.91Y-68.58
X41.91Y-71.12
X41.91Y-73.66
X45.72Y-27.94
X45.72Y-30.48
X45.72Y-33.02
X45.72Y-35.56
X45.72Y-38.1
X45.72Y-40.64
X45.72Y-43.18
X45.72Y-45.72
X45.72Y-48.26
X45.72Y-50.8
X45.72Y-53.34
X45.72Y-55.88
X45.72Y-58.42
X45.72Y-60.96
X45.72Y-63.5
X45.72Y-66.04
X45.72Y-68.58
X45.72Y-71.12
X45.72Y-73.66
X45.72Y-76.2
X49.53Y-80.01
X49.53Y-87.63
X52.07Y-80.01
X52.07Y-87.63
X54.61Y-80.01
X54.61Y-87.63
X55.88Y-91.46
X55.88Y-94.0
X57.15Y-80.01
X57.15Y-87.63
X59.69Y-80.01
X59.69Y-87.63
X60.96Y-27.94
X60.96Y-30.48
X60.96Y-33.02
X60.96Y-35.56
X60.96Y-38.1
X60.96Y-40.64
X60.96Y-43.18
X60.96Y-45.72
X60.96Y-48.26
X60.96Y-50.8
X60.96Y-53.34
X60.96Y-55.88
X60.96Y-58.42
X60.96Y-60.96
X60.96Y-63.5
X60.96Y-66.04
X60.96Y-68.58
X60.96Y-71.12
X60.96Y-73.66
X60.96Y-76.2
X62.23Y-80.01
X62.23Y-87.63
X64.77Y-30.48
X64.77Y-33.02
X64.77Y-35.56
X64.77Y-38.1
X64.77Y-40.64
X64.77Y-73.66
X64.77Y-76.2
X64.77Y-80.01
X64.77Y-87.63
X64.77Y-91.44
X64.77Y-93.98
X68.58Y-27.94
X68.58Y-30.48
X68.58Y-33.02
X68.58Y-35.56
X68.58Y-38.1
X68.58Y-40.64
X68.58Y-43.18
X68.58Y-45.72
X68.58Y-48.26
X68.58Y-50.8
X68.58Y-53.34
X68.58Y-55.88
X68.58Y-58.42
X68.58Y-60.96
X68.58Y-63.5
X68.58Y-66.04
X68.58Y-68.58
X68.58Y-71.12
X68.58Y-73.66
X68.58Y-76.2
X76.2Y-81.28
X76.2Y-88.9
X76.2Y-93.98
X81.2Y-93.98
X83.82Y-27.94
X83.82Y-30.48
X83.82Y-33.02
X83.82Y-35.56
X83.82Y-38.1
X83.82Y-40.64
X83.82Y-43.18
X83.82Y-45.72
X83.82Y-48.26
X83.82Y-50.8
X83.82Y-53.34
X83.82Y-55.88
X83.82Y-58.42
X83.82Y-60.96
X83.82Y-63.5
X83.82Y-66.04
X83.82Y-68.58
X83.82Y-71.12
X83.82Y-73.66
X83.82Y-76.2
X83.82Y-81.28
X83.82Y-88.9
X88.9Y-38.1
X88.9Y-40.64
X88.9Y-43.18
X88.9Y-45.72
X88.9Y-48.26
X88.9Y-50.8
X88.9Y-53.34
X88.9Y-55.88
X88.9Y-58.42
X88.9Y-60.96
X88.9Y-63.5
X88.9Y-66.04
X88.9Y-68.58
X88.9Y-71.12
X88.9Y-87.63
X88.9Y-90.17
X93.98Y-87.63
X93.98Y-90.17
X104.14Y-38.1
X104.14Y-40.64
X104.14Y-43.18
X104.14Y-45.72
X104.14Y-48.26
X104.14Y-50.8
X104.14Y-53.34
X104.14Y-55.88
X104.14Y-58.42
X104.14Y-60.96
X104.14Y-63.5
X104.14Y-66.04
X104.14Y-68.58
X104.14Y-71.12
T6
X31.75Y-93.98
X34.29Y-93.98
T7
X32.9Y-81.28
X40.5Y-81.28
X64.77Y-45.72
X64.77Y-48.26
X68.58Y-88.9
X71.12Y-88.9
X86.36Y-93.98
X88.9Y-93.98
X91.44Y-93.98
X93.98Y-93.98
X99.1Y-88.9
X101.6Y-88.9
X109.22Y-36.195
X109.22Y-38.735
X109.22Y-41.275
X109.22Y-43.815
X109.22Y-46.355
X109.22Y-48.895
X109.22Y-51.435
X109.22Y-53.975
X109.22Y-56.515
X109.22Y-59.055
X109.22Y-61.595
X109.22Y-64.135
X109.22Y-66.675
X109.22Y-69.215
X109.22Y-71.755
X109.22Y-74.295
X109.22Y-76.835
X109.22Y-79.375
X114.3Y-36.195
X114.3Y-38.735
X114.3Y-41.275
X114.3Y-43.815
X114.3Y-46.355
X114.3Y-48.895
X114.3Y-51.435
X114.3Y-53.975
X114.3Y-56.515
X114.3Y-59.055
X114.3Y-61.595
X114.3Y-64.135
X114.3Y-66.675
X114.3Y-69.215
X114.3Y-71.755
X114.3Y-74.295
X114.3Y-76.835
X114.3Y-79.375
T8
X22.86Y-30.48
X22.86Y-33.02
X22.86Y-35.56
X22.86Y-38.1
X22.86Y-40.64
X22.86Y-43.18
X22.86Y-45.72
X22.86Y-48.26
X22.86Y-50.8
X22.86Y-53.34
X22.86Y-55.88
X22.86Y-58.42
X22.86Y-60.96
X22.86Y-63.5
X22.86Y-66.04
X22.86Y-68.58
X22.86Y-71.12
X22.86Y-73.66
X22.86Y-76.2
X22.86Y-78.74
X25.4Y-30.48
X25.4Y-33.02
X25.4Y-35.56
X25.4Y-38.1
X25.4Y-40.64
X25.4Y-43.18
X25.4Y-45.72
X25.4Y-48.26
X25.4Y-50.8
X25.4Y-53.34
X25.4Y-55.88
X25.4Y-58.42
X25.4Y-60.96
X25.4Y-63.5
X25.4Y-66.04
X25.4Y-68.58
X25.4Y-71.12
X25.4Y-73.66
X25.4Y-76.2
X25.4Y-78.74
X34.29Y-30.48
X34.29Y-33.02
X34.29Y-35.56
X34.29Y-38.1
X34.29Y-40.64
X34.29Y-43.18
X34.29Y-45.72
X34.29Y-48.26
X36.83Y-30.48
X36.83Y-33.02
X36.83Y-35.56
X36.83Y-38.1
X36.83Y-40.64
X36.83Y-43.18
X36.83Y-45.72
X36.83Y-48.26
T9
X21.44Y-89.48
X21.44Y-93.98
X27.94Y-89.48
X27.94Y-93.98
X39.22Y-89.48
X39.22Y-93.98
X45.72Y-89.48
X45.72Y-93.98
T10
X53.34Y-60.325
X111.76Y-27.94
X111.76Y-92.71
M30
