%TF.GenerationSoftware,KiCad,Pcbnew,8.0.4*%
%TF.CreationDate,2024-07-27T20:34:00+02:00*%
%TF.ProjectId,chihuahua,63686968-7561-4687-9561-2e6b69636164,rev?*%
%TF.SameCoordinates,Original*%
%TF.FileFunction,Drillmap*%
%TF.FilePolarity,Positive*%
%FSLAX45Y45*%
G04 Gerber Fmt 4.5, Leading zero omitted, Abs format (unit mm)*
G04 Created by KiCad (PCBNEW 8.0.4) date 2024-07-27 20:34:00*
%MOMM*%
%LPD*%
G01*
G04 APERTURE LIST*
%ADD10C,0.050000*%
%ADD11C,0.200000*%
%ADD12C,0.100000*%
%ADD13C,0.101600*%
%ADD14C,0.110000*%
%ADD15C,0.320000*%
G04 APERTURE END LIST*
D10*
X2159000Y-2413000D02*
X11430000Y-2413000D01*
X11684000Y-2667000D02*
X11684000Y-9398000D01*
X11430000Y-9652000D02*
X2159000Y-9652000D01*
X1905000Y-9398000D02*
X1905000Y-2667000D01*
X2159000Y-9652000D02*
G75*
G02*
X1905000Y-9398000I0J254000D01*
G01*
X11684000Y-9398000D02*
G75*
G02*
X11430000Y-9652000I-254000J0D01*
G01*
X11430000Y-2413000D02*
G75*
G02*
X11684000Y-2667000I0J-254000D01*
G01*
X1905000Y-2667000D02*
G75*
G02*
X2159000Y-2413000I254000J0D01*
G01*
D11*
D12*
X2586000Y-5189500D02*
X2621000Y-5224500D01*
X2621000Y-5189500D02*
X2586000Y-5224500D01*
X2713000Y-4935500D02*
X2748000Y-4970500D01*
X2748000Y-4935500D02*
X2713000Y-4970500D01*
X2776500Y-4681500D02*
X2811500Y-4716500D01*
X2811500Y-4681500D02*
X2776500Y-4716500D01*
X2840000Y-4427500D02*
X2875000Y-4462500D01*
X2875000Y-4427500D02*
X2840000Y-4462500D01*
X2903500Y-2649500D02*
X2938500Y-2684500D01*
X2938500Y-2649500D02*
X2903500Y-2684500D01*
X2903500Y-4046500D02*
X2938500Y-4081500D01*
X2938500Y-4046500D02*
X2903500Y-4081500D01*
X2967000Y-2713000D02*
X3002000Y-2748000D01*
X3002000Y-2713000D02*
X2967000Y-2748000D01*
X2967000Y-4300500D02*
X3002000Y-4335500D01*
X3002000Y-4300500D02*
X2967000Y-4335500D01*
X3221000Y-5316500D02*
X3256000Y-5351500D01*
X3256000Y-5316500D02*
X3221000Y-5351500D01*
X3221000Y-6332500D02*
X3256000Y-6367500D01*
X3256000Y-6332500D02*
X3221000Y-6367500D01*
X3221000Y-6650000D02*
X3256000Y-6685000D01*
X3256000Y-6650000D02*
X3221000Y-6685000D01*
X3221000Y-6904000D02*
X3256000Y-6939000D01*
X3256000Y-6904000D02*
X3221000Y-6939000D01*
X3284500Y-5570500D02*
X3319500Y-5605500D01*
X3319500Y-5570500D02*
X3284500Y-5605500D01*
X3348000Y-5951500D02*
X3383000Y-5986500D01*
X3383000Y-5951500D02*
X3348000Y-5986500D01*
X3538500Y-5443500D02*
X3573500Y-5478500D01*
X3573500Y-5443500D02*
X3538500Y-5478500D01*
X3538500Y-7602500D02*
X3573500Y-7637500D01*
X3573500Y-7602500D02*
X3538500Y-7637500D01*
X3919500Y-2903500D02*
X3954500Y-2938500D01*
X3954500Y-2903500D02*
X3919500Y-2938500D01*
X3928867Y-7774360D02*
X3963867Y-7809360D01*
X3963867Y-7774360D02*
X3928867Y-7809360D01*
X3983000Y-7348500D02*
X4018000Y-7383500D01*
X4018000Y-7348500D02*
X3983000Y-7383500D01*
X3983000Y-7676750D02*
X4018000Y-7711750D01*
X4018000Y-7676750D02*
X3983000Y-7711750D01*
X4745000Y-3157500D02*
X4780000Y-3192500D01*
X4780000Y-3157500D02*
X4745000Y-3192500D01*
X4808500Y-3411500D02*
X4843500Y-3446500D01*
X4843500Y-3411500D02*
X4808500Y-3446500D01*
X4872000Y-3665500D02*
X4907000Y-3700500D01*
X4907000Y-3665500D02*
X4872000Y-3700500D01*
X4935500Y-3919500D02*
X4970500Y-3954500D01*
X4970500Y-3919500D02*
X4935500Y-3954500D01*
X4999000Y-4173500D02*
X5034000Y-4208500D01*
X5034000Y-4173500D02*
X4999000Y-4208500D01*
X5443500Y-7732500D02*
X5478500Y-7767500D01*
X5478500Y-7732500D02*
X5443500Y-7767500D01*
X5697500Y-4872000D02*
X5732500Y-4907000D01*
X5732500Y-4872000D02*
X5697500Y-4907000D01*
X5761000Y-5189500D02*
X5796000Y-5224500D01*
X5796000Y-5189500D02*
X5761000Y-5224500D01*
X5824500Y-2776500D02*
X5859500Y-2811500D01*
X5859500Y-2776500D02*
X5824500Y-2811500D01*
X5824500Y-5380000D02*
X5859500Y-5415000D01*
X5859500Y-5380000D02*
X5824500Y-5415000D01*
X5824500Y-5507000D02*
X5859500Y-5542000D01*
X5859500Y-5507000D02*
X5824500Y-5542000D01*
X5824500Y-7793000D02*
X5859500Y-7828000D01*
X5859500Y-7793000D02*
X5824500Y-7828000D01*
X5824500Y-8485000D02*
X5859500Y-8520000D01*
X5859500Y-8485000D02*
X5824500Y-8520000D01*
X5824500Y-8555000D02*
X5859500Y-8590000D01*
X5859500Y-8555000D02*
X5824500Y-8590000D01*
X5888000Y-5697500D02*
X5923000Y-5732500D01*
X5923000Y-5697500D02*
X5888000Y-5732500D01*
X5894500Y-7793000D02*
X5929500Y-7828000D01*
X5929500Y-7793000D02*
X5894500Y-7828000D01*
X6269000Y-2903500D02*
X6304000Y-2938500D01*
X6304000Y-2903500D02*
X6269000Y-2938500D01*
X6459500Y-8428000D02*
X6494500Y-8463000D01*
X6494500Y-8428000D02*
X6459500Y-8463000D01*
X6586500Y-4300500D02*
X6621500Y-4335500D01*
X6621500Y-4300500D02*
X6586500Y-4335500D01*
X6713500Y-8110500D02*
X6748500Y-8145500D01*
X6748500Y-8110500D02*
X6713500Y-8145500D01*
X6967500Y-8618500D02*
X7002500Y-8653500D01*
X7002500Y-8618500D02*
X6967500Y-8653500D01*
X7025627Y-6972873D02*
X7060627Y-7007873D01*
X7060627Y-6972873D02*
X7025627Y-7007873D01*
X7094500Y-6650000D02*
X7129500Y-6685000D01*
X7129500Y-6650000D02*
X7094500Y-6685000D01*
X7094500Y-6840500D02*
X7129500Y-6875500D01*
X7129500Y-6840500D02*
X7094500Y-6875500D01*
X7158000Y-2667500D02*
X7193000Y-2702500D01*
X7193000Y-2667500D02*
X7158000Y-2702500D01*
X8047000Y-6586500D02*
X8082000Y-6621500D01*
X8082000Y-6586500D02*
X8047000Y-6621500D01*
X8174000Y-7221500D02*
X8209000Y-7256500D01*
X8209000Y-7221500D02*
X8174000Y-7256500D01*
X8555000Y-4173500D02*
X8590000Y-4208500D01*
X8590000Y-4173500D02*
X8555000Y-4208500D01*
X8555000Y-4427500D02*
X8590000Y-4462500D01*
X8590000Y-4427500D02*
X8555000Y-4462500D01*
X8618500Y-7475500D02*
X8653500Y-7510500D01*
X8653500Y-7475500D02*
X8618500Y-7510500D01*
X8682000Y-6967500D02*
X8717000Y-7002500D01*
X8717000Y-6967500D02*
X8682000Y-7002500D01*
X8682000Y-7221500D02*
X8717000Y-7256500D01*
X8717000Y-7221500D02*
X8682000Y-7256500D01*
X8682000Y-7729500D02*
X8717000Y-7764500D01*
X8717000Y-7729500D02*
X8682000Y-7764500D01*
X8745500Y-7994250D02*
X8780500Y-8029250D01*
X8780500Y-7994250D02*
X8745500Y-8029250D01*
X8999500Y-6586500D02*
X9034500Y-6621500D01*
X9034500Y-6586500D02*
X8999500Y-6621500D01*
X9126500Y-7031000D02*
X9161500Y-7066000D01*
X9161500Y-7031000D02*
X9126500Y-7066000D01*
X9126500Y-8618500D02*
X9161500Y-8653500D01*
X9161500Y-8618500D02*
X9126500Y-8653500D01*
X9190000Y-5443500D02*
X9225000Y-5478500D01*
X9225000Y-5443500D02*
X9190000Y-5478500D01*
X9253500Y-4935500D02*
X9288500Y-4970500D01*
X9288500Y-4935500D02*
X9253500Y-4970500D01*
X10523500Y-7348500D02*
X10558500Y-7383500D01*
X10558500Y-7348500D02*
X10523500Y-7383500D01*
X3315000Y-7239000D02*
G75*
G02*
X3265000Y-7239000I-25000J0D01*
G01*
X3265000Y-7239000D02*
G75*
G02*
X3315000Y-7239000I25000J0D01*
G01*
X4216000Y-7874000D02*
G75*
G02*
X4166000Y-7874000I-25000J0D01*
G01*
X4166000Y-7874000D02*
G75*
G02*
X4216000Y-7874000I25000J0D01*
G01*
X7073500Y-4064000D02*
G75*
G02*
X7023500Y-4064000I-25000J0D01*
G01*
X7023500Y-4064000D02*
G75*
G02*
X7073500Y-4064000I25000J0D01*
G01*
X7073500Y-4191000D02*
G75*
G02*
X7023500Y-4191000I-25000J0D01*
G01*
X7023500Y-4191000D02*
G75*
G02*
X7073500Y-4191000I25000J0D01*
G01*
X7264000Y-7937500D02*
G75*
G02*
X7214000Y-7937500I-25000J0D01*
G01*
X7214000Y-7937500D02*
G75*
G02*
X7264000Y-7937500I25000J0D01*
G01*
X7264000Y-8318500D02*
G75*
G02*
X7214000Y-8318500I-25000J0D01*
G01*
X7214000Y-8318500D02*
G75*
G02*
X7264000Y-8318500I25000J0D01*
G01*
X7645000Y-4191000D02*
G75*
G02*
X7595000Y-4191000I-25000J0D01*
G01*
X7595000Y-4191000D02*
G75*
G02*
X7645000Y-4191000I25000J0D01*
G01*
X9169000Y-7850750D02*
G75*
G02*
X9119000Y-7850750I-25000J0D01*
G01*
X9119000Y-7850750D02*
G75*
G02*
X9169000Y-7850750I25000J0D01*
G01*
X9677000Y-7239000D02*
G75*
G02*
X9627000Y-7239000I-25000J0D01*
G01*
X9627000Y-7239000D02*
G75*
G02*
X9677000Y-7239000I25000J0D01*
G01*
X5969000Y-9241000D02*
X5969000Y-9301000D01*
X5939000Y-9271000D02*
X5999000Y-9271000D01*
X6119000Y-9241000D02*
X6119000Y-9301000D01*
X6089000Y-9271000D02*
X6149000Y-9271000D01*
X9502000Y-7590000D02*
X9502000Y-7650000D01*
X9472000Y-7620000D02*
X9532000Y-7620000D01*
X9652000Y-7590000D02*
X9652000Y-7650000D01*
X9622000Y-7620000D02*
X9682000Y-7620000D01*
X4540517Y-7974517D02*
X4540517Y-7921483D01*
X4487483Y-7921483D01*
X4487483Y-7974517D01*
X4540517Y-7974517D01*
X4540517Y-8101517D02*
X4540517Y-8048483D01*
X4487483Y-8048483D01*
X4487483Y-8101517D01*
X4540517Y-8101517D01*
X4540517Y-8228517D02*
X4540517Y-8175483D01*
X4487483Y-8175483D01*
X4487483Y-8228517D01*
X4540517Y-8228517D01*
X9043517Y-8154517D02*
X9043517Y-8101483D01*
X8990483Y-8101483D01*
X8990483Y-8154517D01*
X9043517Y-8154517D01*
X9043517Y-8281517D02*
X9043517Y-8228483D01*
X8990483Y-8228483D01*
X8990483Y-8281517D01*
X9043517Y-8281517D01*
X9043517Y-8408517D02*
X9043517Y-8355483D01*
X8990483Y-8355483D01*
X8990483Y-8408517D01*
X9043517Y-8408517D01*
X9551517Y-8154517D02*
X9551517Y-8101483D01*
X9498483Y-8101483D01*
X9498483Y-8154517D01*
X9551517Y-8154517D01*
X9551517Y-8281517D02*
X9551517Y-8228483D01*
X9498483Y-8228483D01*
X9498483Y-8281517D01*
X9551517Y-8281517D01*
X9551517Y-8408517D02*
X9551517Y-8355483D01*
X9498483Y-8355483D01*
X9498483Y-8408517D01*
X9551517Y-8408517D01*
X3048000Y-5755000D02*
X3088000Y-5715000D01*
X3048000Y-5675000D01*
X3008000Y-5715000D01*
X3048000Y-5755000D01*
X3048000Y-6009000D02*
X3088000Y-5969000D01*
X3048000Y-5929000D01*
X3008000Y-5969000D01*
X3048000Y-6009000D01*
X3048000Y-6263000D02*
X3088000Y-6223000D01*
X3048000Y-6183000D01*
X3008000Y-6223000D01*
X3048000Y-6263000D01*
X3048000Y-6517000D02*
X3088000Y-6477000D01*
X3048000Y-6437000D01*
X3008000Y-6477000D01*
X3048000Y-6517000D01*
X3048000Y-6771000D02*
X3088000Y-6731000D01*
X3048000Y-6691000D01*
X3008000Y-6731000D01*
X3048000Y-6771000D01*
X3048000Y-7025000D02*
X3088000Y-6985000D01*
X3048000Y-6945000D01*
X3008000Y-6985000D01*
X3048000Y-7025000D01*
X3048000Y-7279000D02*
X3088000Y-7239000D01*
X3048000Y-7199000D01*
X3008000Y-7239000D01*
X3048000Y-7279000D01*
X3175000Y-9057000D02*
X3215000Y-9017000D01*
X3175000Y-8977000D01*
X3135000Y-9017000D01*
X3175000Y-9057000D01*
X3429000Y-9057000D02*
X3469000Y-9017000D01*
X3429000Y-8977000D01*
X3389000Y-9017000D01*
X3429000Y-9057000D01*
X3810000Y-5755000D02*
X3850000Y-5715000D01*
X3810000Y-5675000D01*
X3770000Y-5715000D01*
X3810000Y-5755000D01*
X3810000Y-6009000D02*
X3850000Y-5969000D01*
X3810000Y-5929000D01*
X3770000Y-5969000D01*
X3810000Y-6009000D01*
X3810000Y-6263000D02*
X3850000Y-6223000D01*
X3810000Y-6183000D01*
X3770000Y-6223000D01*
X3810000Y-6263000D01*
X3810000Y-6517000D02*
X3850000Y-6477000D01*
X3810000Y-6437000D01*
X3770000Y-6477000D01*
X3810000Y-6517000D01*
X3810000Y-6771000D02*
X3850000Y-6731000D01*
X3810000Y-6691000D01*
X3770000Y-6731000D01*
X3810000Y-6771000D01*
X3810000Y-7025000D02*
X3850000Y-6985000D01*
X3810000Y-6945000D01*
X3770000Y-6985000D01*
X3810000Y-7025000D01*
X3810000Y-7279000D02*
X3850000Y-7239000D01*
X3810000Y-7199000D01*
X3770000Y-7239000D01*
X3810000Y-7279000D01*
X4191000Y-2834000D02*
X4231000Y-2794000D01*
X4191000Y-2754000D01*
X4151000Y-2794000D01*
X4191000Y-2834000D01*
X4191000Y-3088000D02*
X4231000Y-3048000D01*
X4191000Y-3008000D01*
X4151000Y-3048000D01*
X4191000Y-3088000D01*
X4191000Y-3342000D02*
X4231000Y-3302000D01*
X4191000Y-3262000D01*
X4151000Y-3302000D01*
X4191000Y-3342000D01*
X4191000Y-3596000D02*
X4231000Y-3556000D01*
X4191000Y-3516000D01*
X4151000Y-3556000D01*
X4191000Y-3596000D01*
X4191000Y-3850000D02*
X4231000Y-3810000D01*
X4191000Y-3770000D01*
X4151000Y-3810000D01*
X4191000Y-3850000D01*
X4191000Y-4104000D02*
X4231000Y-4064000D01*
X4191000Y-4024000D01*
X4151000Y-4064000D01*
X4191000Y-4104000D01*
X4191000Y-4358000D02*
X4231000Y-4318000D01*
X4191000Y-4278000D01*
X4151000Y-4318000D01*
X4191000Y-4358000D01*
X4191000Y-4612000D02*
X4231000Y-4572000D01*
X4191000Y-4532000D01*
X4151000Y-4572000D01*
X4191000Y-4612000D01*
X4191000Y-4866000D02*
X4231000Y-4826000D01*
X4191000Y-4786000D01*
X4151000Y-4826000D01*
X4191000Y-4866000D01*
X4191000Y-5374000D02*
X4231000Y-5334000D01*
X4191000Y-5294000D01*
X4151000Y-5334000D01*
X4191000Y-5374000D01*
X4191000Y-5628000D02*
X4231000Y-5588000D01*
X4191000Y-5548000D01*
X4151000Y-5588000D01*
X4191000Y-5628000D01*
X4191000Y-5882000D02*
X4231000Y-5842000D01*
X4191000Y-5802000D01*
X4151000Y-5842000D01*
X4191000Y-5882000D01*
X4191000Y-6136000D02*
X4231000Y-6096000D01*
X4191000Y-6056000D01*
X4151000Y-6096000D01*
X4191000Y-6136000D01*
X4191000Y-6390000D02*
X4231000Y-6350000D01*
X4191000Y-6310000D01*
X4151000Y-6350000D01*
X4191000Y-6390000D01*
X4191000Y-6644000D02*
X4231000Y-6604000D01*
X4191000Y-6564000D01*
X4151000Y-6604000D01*
X4191000Y-6644000D01*
X4191000Y-6898000D02*
X4231000Y-6858000D01*
X4191000Y-6818000D01*
X4151000Y-6858000D01*
X4191000Y-6898000D01*
X4191000Y-7152000D02*
X4231000Y-7112000D01*
X4191000Y-7072000D01*
X4151000Y-7112000D01*
X4191000Y-7152000D01*
X4191000Y-7406000D02*
X4231000Y-7366000D01*
X4191000Y-7326000D01*
X4151000Y-7366000D01*
X4191000Y-7406000D01*
X4572000Y-2834000D02*
X4612000Y-2794000D01*
X4572000Y-2754000D01*
X4532000Y-2794000D01*
X4572000Y-2834000D01*
X4572000Y-3088000D02*
X4612000Y-3048000D01*
X4572000Y-3008000D01*
X4532000Y-3048000D01*
X4572000Y-3088000D01*
X4572000Y-3342000D02*
X4612000Y-3302000D01*
X4572000Y-3262000D01*
X4532000Y-3302000D01*
X4572000Y-3342000D01*
X4572000Y-3596000D02*
X4612000Y-3556000D01*
X4572000Y-3516000D01*
X4532000Y-3556000D01*
X4572000Y-3596000D01*
X4572000Y-3850000D02*
X4612000Y-3810000D01*
X4572000Y-3770000D01*
X4532000Y-3810000D01*
X4572000Y-3850000D01*
X4572000Y-4104000D02*
X4612000Y-4064000D01*
X4572000Y-4024000D01*
X4532000Y-4064000D01*
X4572000Y-4104000D01*
X4572000Y-4358000D02*
X4612000Y-4318000D01*
X4572000Y-4278000D01*
X4532000Y-4318000D01*
X4572000Y-4358000D01*
X4572000Y-4612000D02*
X4612000Y-4572000D01*
X4572000Y-4532000D01*
X4532000Y-4572000D01*
X4572000Y-4612000D01*
X4572000Y-4866000D02*
X4612000Y-4826000D01*
X4572000Y-4786000D01*
X4532000Y-4826000D01*
X4572000Y-4866000D01*
X4572000Y-5120000D02*
X4612000Y-5080000D01*
X4572000Y-5040000D01*
X4532000Y-5080000D01*
X4572000Y-5120000D01*
X4572000Y-5374000D02*
X4612000Y-5334000D01*
X4572000Y-5294000D01*
X4532000Y-5334000D01*
X4572000Y-5374000D01*
X4572000Y-5628000D02*
X4612000Y-5588000D01*
X4572000Y-5548000D01*
X4532000Y-5588000D01*
X4572000Y-5628000D01*
X4572000Y-5882000D02*
X4612000Y-5842000D01*
X4572000Y-5802000D01*
X4532000Y-5842000D01*
X4572000Y-5882000D01*
X4572000Y-6136000D02*
X4612000Y-6096000D01*
X4572000Y-6056000D01*
X4532000Y-6096000D01*
X4572000Y-6136000D01*
X4572000Y-6390000D02*
X4612000Y-6350000D01*
X4572000Y-6310000D01*
X4532000Y-6350000D01*
X4572000Y-6390000D01*
X4572000Y-6644000D02*
X4612000Y-6604000D01*
X4572000Y-6564000D01*
X4532000Y-6604000D01*
X4572000Y-6644000D01*
X4572000Y-6898000D02*
X4612000Y-6858000D01*
X4572000Y-6818000D01*
X4532000Y-6858000D01*
X4572000Y-6898000D01*
X4572000Y-7152000D02*
X4612000Y-7112000D01*
X4572000Y-7072000D01*
X4532000Y-7112000D01*
X4572000Y-7152000D01*
X4572000Y-7406000D02*
X4612000Y-7366000D01*
X4572000Y-7326000D01*
X4532000Y-7366000D01*
X4572000Y-7406000D01*
X4572000Y-7660000D02*
X4612000Y-7620000D01*
X4572000Y-7580000D01*
X4532000Y-7620000D01*
X4572000Y-7660000D01*
X4953000Y-8041000D02*
X4993000Y-8001000D01*
X4953000Y-7961000D01*
X4913000Y-8001000D01*
X4953000Y-8041000D01*
X4953000Y-8803000D02*
X4993000Y-8763000D01*
X4953000Y-8723000D01*
X4913000Y-8763000D01*
X4953000Y-8803000D01*
X5207000Y-8041000D02*
X5247000Y-8001000D01*
X5207000Y-7961000D01*
X5167000Y-8001000D01*
X5207000Y-8041000D01*
X5207000Y-8803000D02*
X5247000Y-8763000D01*
X5207000Y-8723000D01*
X5167000Y-8763000D01*
X5207000Y-8803000D01*
X5461000Y-8041000D02*
X5501000Y-8001000D01*
X5461000Y-7961000D01*
X5421000Y-8001000D01*
X5461000Y-8041000D01*
X5461000Y-8803000D02*
X5501000Y-8763000D01*
X5461000Y-8723000D01*
X5421000Y-8763000D01*
X5461000Y-8803000D01*
X5588000Y-9186000D02*
X5628000Y-9146000D01*
X5588000Y-9106000D01*
X5548000Y-9146000D01*
X5588000Y-9186000D01*
X5588000Y-9440000D02*
X5628000Y-9400000D01*
X5588000Y-9360000D01*
X5548000Y-9400000D01*
X5588000Y-9440000D01*
X5715000Y-8041000D02*
X5755000Y-8001000D01*
X5715000Y-7961000D01*
X5675000Y-8001000D01*
X5715000Y-8041000D01*
X5715000Y-8803000D02*
X5755000Y-8763000D01*
X5715000Y-8723000D01*
X5675000Y-8763000D01*
X5715000Y-8803000D01*
X5969000Y-8041000D02*
X6009000Y-8001000D01*
X5969000Y-7961000D01*
X5929000Y-8001000D01*
X5969000Y-8041000D01*
X5969000Y-8803000D02*
X6009000Y-8763000D01*
X5969000Y-8723000D01*
X5929000Y-8763000D01*
X5969000Y-8803000D01*
X6096000Y-2834000D02*
X6136000Y-2794000D01*
X6096000Y-2754000D01*
X6056000Y-2794000D01*
X6096000Y-2834000D01*
X6096000Y-3088000D02*
X6136000Y-3048000D01*
X6096000Y-3008000D01*
X6056000Y-3048000D01*
X6096000Y-3088000D01*
X6096000Y-3342000D02*
X6136000Y-3302000D01*
X6096000Y-3262000D01*
X6056000Y-3302000D01*
X6096000Y-3342000D01*
X6096000Y-3596000D02*
X6136000Y-3556000D01*
X6096000Y-3516000D01*
X6056000Y-3556000D01*
X6096000Y-3596000D01*
X6096000Y-3850000D02*
X6136000Y-3810000D01*
X6096000Y-3770000D01*
X6056000Y-3810000D01*
X6096000Y-3850000D01*
X6096000Y-4104000D02*
X6136000Y-4064000D01*
X6096000Y-4024000D01*
X6056000Y-4064000D01*
X6096000Y-4104000D01*
X6096000Y-4358000D02*
X6136000Y-4318000D01*
X6096000Y-4278000D01*
X6056000Y-4318000D01*
X6096000Y-4358000D01*
X6096000Y-4612000D02*
X6136000Y-4572000D01*
X6096000Y-4532000D01*
X6056000Y-4572000D01*
X6096000Y-4612000D01*
X6096000Y-4866000D02*
X6136000Y-4826000D01*
X6096000Y-4786000D01*
X6056000Y-4826000D01*
X6096000Y-4866000D01*
X6096000Y-5120000D02*
X6136000Y-5080000D01*
X6096000Y-5040000D01*
X6056000Y-5080000D01*
X6096000Y-5120000D01*
X6096000Y-5374000D02*
X6136000Y-5334000D01*
X6096000Y-5294000D01*
X6056000Y-5334000D01*
X6096000Y-5374000D01*
X6096000Y-5628000D02*
X6136000Y-5588000D01*
X6096000Y-5548000D01*
X6056000Y-5588000D01*
X6096000Y-5628000D01*
X6096000Y-5882000D02*
X6136000Y-5842000D01*
X6096000Y-5802000D01*
X6056000Y-5842000D01*
X6096000Y-5882000D01*
X6096000Y-6136000D02*
X6136000Y-6096000D01*
X6096000Y-6056000D01*
X6056000Y-6096000D01*
X6096000Y-6136000D01*
X6096000Y-6390000D02*
X6136000Y-6350000D01*
X6096000Y-6310000D01*
X6056000Y-6350000D01*
X6096000Y-6390000D01*
X6096000Y-6644000D02*
X6136000Y-6604000D01*
X6096000Y-6564000D01*
X6056000Y-6604000D01*
X6096000Y-6644000D01*
X6096000Y-6898000D02*
X6136000Y-6858000D01*
X6096000Y-6818000D01*
X6056000Y-6858000D01*
X6096000Y-6898000D01*
X6096000Y-7152000D02*
X6136000Y-7112000D01*
X6096000Y-7072000D01*
X6056000Y-7112000D01*
X6096000Y-7152000D01*
X6096000Y-7406000D02*
X6136000Y-7366000D01*
X6096000Y-7326000D01*
X6056000Y-7366000D01*
X6096000Y-7406000D01*
X6096000Y-7660000D02*
X6136000Y-7620000D01*
X6096000Y-7580000D01*
X6056000Y-7620000D01*
X6096000Y-7660000D01*
X6223000Y-8041000D02*
X6263000Y-8001000D01*
X6223000Y-7961000D01*
X6183000Y-8001000D01*
X6223000Y-8041000D01*
X6223000Y-8803000D02*
X6263000Y-8763000D01*
X6223000Y-8723000D01*
X6183000Y-8763000D01*
X6223000Y-8803000D01*
X6477000Y-3088000D02*
X6517000Y-3048000D01*
X6477000Y-3008000D01*
X6437000Y-3048000D01*
X6477000Y-3088000D01*
X6477000Y-3342000D02*
X6517000Y-3302000D01*
X6477000Y-3262000D01*
X6437000Y-3302000D01*
X6477000Y-3342000D01*
X6477000Y-3596000D02*
X6517000Y-3556000D01*
X6477000Y-3516000D01*
X6437000Y-3556000D01*
X6477000Y-3596000D01*
X6477000Y-3850000D02*
X6517000Y-3810000D01*
X6477000Y-3770000D01*
X6437000Y-3810000D01*
X6477000Y-3850000D01*
X6477000Y-4104000D02*
X6517000Y-4064000D01*
X6477000Y-4024000D01*
X6437000Y-4064000D01*
X6477000Y-4104000D01*
X6477000Y-7406000D02*
X6517000Y-7366000D01*
X6477000Y-7326000D01*
X6437000Y-7366000D01*
X6477000Y-7406000D01*
X6477000Y-7660000D02*
X6517000Y-7620000D01*
X6477000Y-7580000D01*
X6437000Y-7620000D01*
X6477000Y-7660000D01*
X6477000Y-8041000D02*
X6517000Y-8001000D01*
X6477000Y-7961000D01*
X6437000Y-8001000D01*
X6477000Y-8041000D01*
X6477000Y-8803000D02*
X6517000Y-8763000D01*
X6477000Y-8723000D01*
X6437000Y-8763000D01*
X6477000Y-8803000D01*
X6477000Y-9184000D02*
X6517000Y-9144000D01*
X6477000Y-9104000D01*
X6437000Y-9144000D01*
X6477000Y-9184000D01*
X6477000Y-9438000D02*
X6517000Y-9398000D01*
X6477000Y-9358000D01*
X6437000Y-9398000D01*
X6477000Y-9438000D01*
X6858000Y-2834000D02*
X6898000Y-2794000D01*
X6858000Y-2754000D01*
X6818000Y-2794000D01*
X6858000Y-2834000D01*
X6858000Y-3088000D02*
X6898000Y-3048000D01*
X6858000Y-3008000D01*
X6818000Y-3048000D01*
X6858000Y-3088000D01*
X6858000Y-3342000D02*
X6898000Y-3302000D01*
X6858000Y-3262000D01*
X6818000Y-3302000D01*
X6858000Y-3342000D01*
X6858000Y-3596000D02*
X6898000Y-3556000D01*
X6858000Y-3516000D01*
X6818000Y-3556000D01*
X6858000Y-3596000D01*
X6858000Y-3850000D02*
X6898000Y-3810000D01*
X6858000Y-3770000D01*
X6818000Y-3810000D01*
X6858000Y-3850000D01*
X6858000Y-4104000D02*
X6898000Y-4064000D01*
X6858000Y-4024000D01*
X6818000Y-4064000D01*
X6858000Y-4104000D01*
X6858000Y-4358000D02*
X6898000Y-4318000D01*
X6858000Y-4278000D01*
X6818000Y-4318000D01*
X6858000Y-4358000D01*
X6858000Y-4612000D02*
X6898000Y-4572000D01*
X6858000Y-4532000D01*
X6818000Y-4572000D01*
X6858000Y-4612000D01*
X6858000Y-4866000D02*
X6898000Y-4826000D01*
X6858000Y-4786000D01*
X6818000Y-4826000D01*
X6858000Y-4866000D01*
X6858000Y-5120000D02*
X6898000Y-5080000D01*
X6858000Y-5040000D01*
X6818000Y-5080000D01*
X6858000Y-5120000D01*
X6858000Y-5374000D02*
X6898000Y-5334000D01*
X6858000Y-5294000D01*
X6818000Y-5334000D01*
X6858000Y-5374000D01*
X6858000Y-5628000D02*
X6898000Y-5588000D01*
X6858000Y-5548000D01*
X6818000Y-5588000D01*
X6858000Y-5628000D01*
X6858000Y-5882000D02*
X6898000Y-5842000D01*
X6858000Y-5802000D01*
X6818000Y-5842000D01*
X6858000Y-5882000D01*
X6858000Y-6136000D02*
X6898000Y-6096000D01*
X6858000Y-6056000D01*
X6818000Y-6096000D01*
X6858000Y-6136000D01*
X6858000Y-6390000D02*
X6898000Y-6350000D01*
X6858000Y-6310000D01*
X6818000Y-6350000D01*
X6858000Y-6390000D01*
X6858000Y-6644000D02*
X6898000Y-6604000D01*
X6858000Y-6564000D01*
X6818000Y-6604000D01*
X6858000Y-6644000D01*
X6858000Y-6898000D02*
X6898000Y-6858000D01*
X6858000Y-6818000D01*
X6818000Y-6858000D01*
X6858000Y-6898000D01*
X6858000Y-7152000D02*
X6898000Y-7112000D01*
X6858000Y-7072000D01*
X6818000Y-7112000D01*
X6858000Y-7152000D01*
X6858000Y-7406000D02*
X6898000Y-7366000D01*
X6858000Y-7326000D01*
X6818000Y-7366000D01*
X6858000Y-7406000D01*
X6858000Y-7660000D02*
X6898000Y-7620000D01*
X6858000Y-7580000D01*
X6818000Y-7620000D01*
X6858000Y-7660000D01*
X7620000Y-8168000D02*
X7660000Y-8128000D01*
X7620000Y-8088000D01*
X7580000Y-8128000D01*
X7620000Y-8168000D01*
X7620000Y-8930000D02*
X7660000Y-8890000D01*
X7620000Y-8850000D01*
X7580000Y-8890000D01*
X7620000Y-8930000D01*
X7620000Y-9438000D02*
X7660000Y-9398000D01*
X7620000Y-9358000D01*
X7580000Y-9398000D01*
X7620000Y-9438000D01*
X8120000Y-9438000D02*
X8160000Y-9398000D01*
X8120000Y-9358000D01*
X8080000Y-9398000D01*
X8120000Y-9438000D01*
X8382000Y-2834000D02*
X8422000Y-2794000D01*
X8382000Y-2754000D01*
X8342000Y-2794000D01*
X8382000Y-2834000D01*
X8382000Y-3088000D02*
X8422000Y-3048000D01*
X8382000Y-3008000D01*
X8342000Y-3048000D01*
X8382000Y-3088000D01*
X8382000Y-3342000D02*
X8422000Y-3302000D01*
X8382000Y-3262000D01*
X8342000Y-3302000D01*
X8382000Y-3342000D01*
X8382000Y-3596000D02*
X8422000Y-3556000D01*
X8382000Y-3516000D01*
X8342000Y-3556000D01*
X8382000Y-3596000D01*
X8382000Y-3850000D02*
X8422000Y-3810000D01*
X8382000Y-3770000D01*
X8342000Y-3810000D01*
X8382000Y-3850000D01*
X8382000Y-4104000D02*
X8422000Y-4064000D01*
X8382000Y-4024000D01*
X8342000Y-4064000D01*
X8382000Y-4104000D01*
X8382000Y-4358000D02*
X8422000Y-4318000D01*
X8382000Y-4278000D01*
X8342000Y-4318000D01*
X8382000Y-4358000D01*
X8382000Y-4612000D02*
X8422000Y-4572000D01*
X8382000Y-4532000D01*
X8342000Y-4572000D01*
X8382000Y-4612000D01*
X8382000Y-4866000D02*
X8422000Y-4826000D01*
X8382000Y-4786000D01*
X8342000Y-4826000D01*
X8382000Y-4866000D01*
X8382000Y-5120000D02*
X8422000Y-5080000D01*
X8382000Y-5040000D01*
X8342000Y-5080000D01*
X8382000Y-5120000D01*
X8382000Y-5374000D02*
X8422000Y-5334000D01*
X8382000Y-5294000D01*
X8342000Y-5334000D01*
X8382000Y-5374000D01*
X8382000Y-5628000D02*
X8422000Y-5588000D01*
X8382000Y-5548000D01*
X8342000Y-5588000D01*
X8382000Y-5628000D01*
X8382000Y-5882000D02*
X8422000Y-5842000D01*
X8382000Y-5802000D01*
X8342000Y-5842000D01*
X8382000Y-5882000D01*
X8382000Y-6136000D02*
X8422000Y-6096000D01*
X8382000Y-6056000D01*
X8342000Y-6096000D01*
X8382000Y-6136000D01*
X8382000Y-6390000D02*
X8422000Y-6350000D01*
X8382000Y-6310000D01*
X8342000Y-6350000D01*
X8382000Y-6390000D01*
X8382000Y-6644000D02*
X8422000Y-6604000D01*
X8382000Y-6564000D01*
X8342000Y-6604000D01*
X8382000Y-6644000D01*
X8382000Y-6898000D02*
X8422000Y-6858000D01*
X8382000Y-6818000D01*
X8342000Y-6858000D01*
X8382000Y-6898000D01*
X8382000Y-7152000D02*
X8422000Y-7112000D01*
X8382000Y-7072000D01*
X8342000Y-7112000D01*
X8382000Y-7152000D01*
X8382000Y-7406000D02*
X8422000Y-7366000D01*
X8382000Y-7326000D01*
X8342000Y-7366000D01*
X8382000Y-7406000D01*
X8382000Y-7660000D02*
X8422000Y-7620000D01*
X8382000Y-7580000D01*
X8342000Y-7620000D01*
X8382000Y-7660000D01*
X8382000Y-8168000D02*
X8422000Y-8128000D01*
X8382000Y-8088000D01*
X8342000Y-8128000D01*
X8382000Y-8168000D01*
X8382000Y-8930000D02*
X8422000Y-8890000D01*
X8382000Y-8850000D01*
X8342000Y-8890000D01*
X8382000Y-8930000D01*
X8890000Y-3850000D02*
X8930000Y-3810000D01*
X8890000Y-3770000D01*
X8850000Y-3810000D01*
X8890000Y-3850000D01*
X8890000Y-4104000D02*
X8930000Y-4064000D01*
X8890000Y-4024000D01*
X8850000Y-4064000D01*
X8890000Y-4104000D01*
X8890000Y-4358000D02*
X8930000Y-4318000D01*
X8890000Y-4278000D01*
X8850000Y-4318000D01*
X8890000Y-4358000D01*
X8890000Y-4612000D02*
X8930000Y-4572000D01*
X8890000Y-4532000D01*
X8850000Y-4572000D01*
X8890000Y-4612000D01*
X8890000Y-4866000D02*
X8930000Y-4826000D01*
X8890000Y-4786000D01*
X8850000Y-4826000D01*
X8890000Y-4866000D01*
X8890000Y-5120000D02*
X8930000Y-5080000D01*
X8890000Y-5040000D01*
X8850000Y-5080000D01*
X8890000Y-5120000D01*
X8890000Y-5374000D02*
X8930000Y-5334000D01*
X8890000Y-5294000D01*
X8850000Y-5334000D01*
X8890000Y-5374000D01*
X8890000Y-5628000D02*
X8930000Y-5588000D01*
X8890000Y-5548000D01*
X8850000Y-5588000D01*
X8890000Y-5628000D01*
X8890000Y-5882000D02*
X8930000Y-5842000D01*
X8890000Y-5802000D01*
X8850000Y-5842000D01*
X8890000Y-5882000D01*
X8890000Y-6136000D02*
X8930000Y-6096000D01*
X8890000Y-6056000D01*
X8850000Y-6096000D01*
X8890000Y-6136000D01*
X8890000Y-6390000D02*
X8930000Y-6350000D01*
X8890000Y-6310000D01*
X8850000Y-6350000D01*
X8890000Y-6390000D01*
X8890000Y-6644000D02*
X8930000Y-6604000D01*
X8890000Y-6564000D01*
X8850000Y-6604000D01*
X8890000Y-6644000D01*
X8890000Y-6898000D02*
X8930000Y-6858000D01*
X8890000Y-6818000D01*
X8850000Y-6858000D01*
X8890000Y-6898000D01*
X8890000Y-7152000D02*
X8930000Y-7112000D01*
X8890000Y-7072000D01*
X8850000Y-7112000D01*
X8890000Y-7152000D01*
X8890000Y-8803000D02*
X8930000Y-8763000D01*
X8890000Y-8723000D01*
X8850000Y-8763000D01*
X8890000Y-8803000D01*
X8890000Y-9057000D02*
X8930000Y-9017000D01*
X8890000Y-8977000D01*
X8850000Y-9017000D01*
X8890000Y-9057000D01*
X9398000Y-8803000D02*
X9438000Y-8763000D01*
X9398000Y-8723000D01*
X9358000Y-8763000D01*
X9398000Y-8803000D01*
X9398000Y-9057000D02*
X9438000Y-9017000D01*
X9398000Y-8977000D01*
X9358000Y-9017000D01*
X9398000Y-9057000D01*
X10414000Y-3850000D02*
X10454000Y-3810000D01*
X10414000Y-3770000D01*
X10374000Y-3810000D01*
X10414000Y-3850000D01*
X10414000Y-4104000D02*
X10454000Y-4064000D01*
X10414000Y-4024000D01*
X10374000Y-4064000D01*
X10414000Y-4104000D01*
X10414000Y-4358000D02*
X10454000Y-4318000D01*
X10414000Y-4278000D01*
X10374000Y-4318000D01*
X10414000Y-4358000D01*
X10414000Y-4612000D02*
X10454000Y-4572000D01*
X10414000Y-4532000D01*
X10374000Y-4572000D01*
X10414000Y-4612000D01*
X10414000Y-4866000D02*
X10454000Y-4826000D01*
X10414000Y-4786000D01*
X10374000Y-4826000D01*
X10414000Y-4866000D01*
X10414000Y-5120000D02*
X10454000Y-5080000D01*
X10414000Y-5040000D01*
X10374000Y-5080000D01*
X10414000Y-5120000D01*
X10414000Y-5374000D02*
X10454000Y-5334000D01*
X10414000Y-5294000D01*
X10374000Y-5334000D01*
X10414000Y-5374000D01*
X10414000Y-5628000D02*
X10454000Y-5588000D01*
X10414000Y-5548000D01*
X10374000Y-5588000D01*
X10414000Y-5628000D01*
X10414000Y-5882000D02*
X10454000Y-5842000D01*
X10414000Y-5802000D01*
X10374000Y-5842000D01*
X10414000Y-5882000D01*
X10414000Y-6136000D02*
X10454000Y-6096000D01*
X10414000Y-6056000D01*
X10374000Y-6096000D01*
X10414000Y-6136000D01*
X10414000Y-6390000D02*
X10454000Y-6350000D01*
X10414000Y-6310000D01*
X10374000Y-6350000D01*
X10414000Y-6390000D01*
X10414000Y-6644000D02*
X10454000Y-6604000D01*
X10414000Y-6564000D01*
X10374000Y-6604000D01*
X10414000Y-6644000D01*
X10414000Y-6898000D02*
X10454000Y-6858000D01*
X10414000Y-6818000D01*
X10374000Y-6858000D01*
X10414000Y-6898000D01*
X10414000Y-7152000D02*
X10454000Y-7112000D01*
X10414000Y-7072000D01*
X10374000Y-7112000D01*
X10414000Y-7152000D01*
X3130000Y-9353000D02*
X3220000Y-9443000D01*
X3220000Y-9353000D02*
X3130000Y-9443000D01*
X3220000Y-9398000D02*
G75*
G02*
X3130000Y-9398000I-45000J0D01*
G01*
X3130000Y-9398000D02*
G75*
G02*
X3220000Y-9398000I45000J0D01*
G01*
X3384000Y-9353000D02*
X3474000Y-9443000D01*
X3474000Y-9353000D02*
X3384000Y-9443000D01*
X3474000Y-9398000D02*
G75*
G02*
X3384000Y-9398000I-45000J0D01*
G01*
X3384000Y-9398000D02*
G75*
G02*
X3474000Y-9398000I45000J0D01*
G01*
X3240000Y-8078000D02*
X3340000Y-8178000D01*
X3340000Y-8078000D02*
X3240000Y-8178000D01*
X3290000Y-8078000D02*
X3290000Y-8178000D01*
X3240000Y-8128000D02*
X3340000Y-8128000D01*
X4000000Y-8078000D02*
X4100000Y-8178000D01*
X4100000Y-8078000D02*
X4000000Y-8178000D01*
X4050000Y-8078000D02*
X4050000Y-8178000D01*
X4000000Y-8128000D02*
X4100000Y-8128000D01*
X6427000Y-4522000D02*
X6527000Y-4622000D01*
X6527000Y-4522000D02*
X6427000Y-4622000D01*
X6477000Y-4522000D02*
X6477000Y-4622000D01*
X6427000Y-4572000D02*
X6527000Y-4572000D01*
X6427000Y-4776000D02*
X6527000Y-4876000D01*
X6527000Y-4776000D02*
X6427000Y-4876000D01*
X6477000Y-4776000D02*
X6477000Y-4876000D01*
X6427000Y-4826000D02*
X6527000Y-4826000D01*
X6808000Y-8840000D02*
X6908000Y-8940000D01*
X6908000Y-8840000D02*
X6808000Y-8940000D01*
X6858000Y-8840000D02*
X6858000Y-8940000D01*
X6808000Y-8890000D02*
X6908000Y-8890000D01*
X7062000Y-8840000D02*
X7162000Y-8940000D01*
X7162000Y-8840000D02*
X7062000Y-8940000D01*
X7112000Y-8840000D02*
X7112000Y-8940000D01*
X7062000Y-8890000D02*
X7162000Y-8890000D01*
X8586000Y-9348000D02*
X8686000Y-9448000D01*
X8686000Y-9348000D02*
X8586000Y-9448000D01*
X8636000Y-9348000D02*
X8636000Y-9448000D01*
X8586000Y-9398000D02*
X8686000Y-9398000D01*
X8840000Y-9348000D02*
X8940000Y-9448000D01*
X8940000Y-9348000D02*
X8840000Y-9448000D01*
X8890000Y-9348000D02*
X8890000Y-9448000D01*
X8840000Y-9398000D02*
X8940000Y-9398000D01*
X9094000Y-9348000D02*
X9194000Y-9448000D01*
X9194000Y-9348000D02*
X9094000Y-9448000D01*
X9144000Y-9348000D02*
X9144000Y-9448000D01*
X9094000Y-9398000D02*
X9194000Y-9398000D01*
X9348000Y-9348000D02*
X9448000Y-9448000D01*
X9448000Y-9348000D02*
X9348000Y-9448000D01*
X9398000Y-9348000D02*
X9398000Y-9448000D01*
X9348000Y-9398000D02*
X9448000Y-9398000D01*
X9860000Y-8840000D02*
X9960000Y-8940000D01*
X9960000Y-8840000D02*
X9860000Y-8940000D01*
X9910000Y-8840000D02*
X9910000Y-8940000D01*
X9860000Y-8890000D02*
X9960000Y-8890000D01*
X10110000Y-8840000D02*
X10210000Y-8940000D01*
X10210000Y-8840000D02*
X10110000Y-8940000D01*
X10160000Y-8840000D02*
X10160000Y-8940000D01*
X10110000Y-8890000D02*
X10210000Y-8890000D01*
X10872000Y-3569500D02*
X10972000Y-3669500D01*
X10972000Y-3569500D02*
X10872000Y-3669500D01*
X10922000Y-3569500D02*
X10922000Y-3669500D01*
X10872000Y-3619500D02*
X10972000Y-3619500D01*
X10872000Y-3823500D02*
X10972000Y-3923500D01*
X10972000Y-3823500D02*
X10872000Y-3923500D01*
X10922000Y-3823500D02*
X10922000Y-3923500D01*
X10872000Y-3873500D02*
X10972000Y-3873500D01*
X10872000Y-4077500D02*
X10972000Y-4177500D01*
X10972000Y-4077500D02*
X10872000Y-4177500D01*
X10922000Y-4077500D02*
X10922000Y-4177500D01*
X10872000Y-4127500D02*
X10972000Y-4127500D01*
X10872000Y-4331500D02*
X10972000Y-4431500D01*
X10972000Y-4331500D02*
X10872000Y-4431500D01*
X10922000Y-4331500D02*
X10922000Y-4431500D01*
X10872000Y-4381500D02*
X10972000Y-4381500D01*
X10872000Y-4585500D02*
X10972000Y-4685500D01*
X10972000Y-4585500D02*
X10872000Y-4685500D01*
X10922000Y-4585500D02*
X10922000Y-4685500D01*
X10872000Y-4635500D02*
X10972000Y-4635500D01*
X10872000Y-4839500D02*
X10972000Y-4939500D01*
X10972000Y-4839500D02*
X10872000Y-4939500D01*
X10922000Y-4839500D02*
X10922000Y-4939500D01*
X10872000Y-4889500D02*
X10972000Y-4889500D01*
X10872000Y-5093500D02*
X10972000Y-5193500D01*
X10972000Y-5093500D02*
X10872000Y-5193500D01*
X10922000Y-5093500D02*
X10922000Y-5193500D01*
X10872000Y-5143500D02*
X10972000Y-5143500D01*
X10872000Y-5347500D02*
X10972000Y-5447500D01*
X10972000Y-5347500D02*
X10872000Y-5447500D01*
X10922000Y-5347500D02*
X10922000Y-5447500D01*
X10872000Y-5397500D02*
X10972000Y-5397500D01*
X10872000Y-5601500D02*
X10972000Y-5701500D01*
X10972000Y-5601500D02*
X10872000Y-5701500D01*
X10922000Y-5601500D02*
X10922000Y-5701500D01*
X10872000Y-5651500D02*
X10972000Y-5651500D01*
X10872000Y-5855500D02*
X10972000Y-5955500D01*
X10972000Y-5855500D02*
X10872000Y-5955500D01*
X10922000Y-5855500D02*
X10922000Y-5955500D01*
X10872000Y-5905500D02*
X10972000Y-5905500D01*
X10872000Y-6109500D02*
X10972000Y-6209500D01*
X10972000Y-6109500D02*
X10872000Y-6209500D01*
X10922000Y-6109500D02*
X10922000Y-6209500D01*
X10872000Y-6159500D02*
X10972000Y-6159500D01*
X10872000Y-6363500D02*
X10972000Y-6463500D01*
X10972000Y-6363500D02*
X10872000Y-6463500D01*
X10922000Y-6363500D02*
X10922000Y-6463500D01*
X10872000Y-6413500D02*
X10972000Y-6413500D01*
X10872000Y-6617500D02*
X10972000Y-6717500D01*
X10972000Y-6617500D02*
X10872000Y-6717500D01*
X10922000Y-6617500D02*
X10922000Y-6717500D01*
X10872000Y-6667500D02*
X10972000Y-6667500D01*
X10872000Y-6871500D02*
X10972000Y-6971500D01*
X10972000Y-6871500D02*
X10872000Y-6971500D01*
X10922000Y-6871500D02*
X10922000Y-6971500D01*
X10872000Y-6921500D02*
X10972000Y-6921500D01*
X10872000Y-7125500D02*
X10972000Y-7225500D01*
X10972000Y-7125500D02*
X10872000Y-7225500D01*
X10922000Y-7125500D02*
X10922000Y-7225500D01*
X10872000Y-7175500D02*
X10972000Y-7175500D01*
X10872000Y-7379500D02*
X10972000Y-7479500D01*
X10972000Y-7379500D02*
X10872000Y-7479500D01*
X10922000Y-7379500D02*
X10922000Y-7479500D01*
X10872000Y-7429500D02*
X10972000Y-7429500D01*
X10872000Y-7633500D02*
X10972000Y-7733500D01*
X10972000Y-7633500D02*
X10872000Y-7733500D01*
X10922000Y-7633500D02*
X10922000Y-7733500D01*
X10872000Y-7683500D02*
X10972000Y-7683500D01*
X10872000Y-7887500D02*
X10972000Y-7987500D01*
X10972000Y-7887500D02*
X10872000Y-7987500D01*
X10922000Y-7887500D02*
X10922000Y-7987500D01*
X10872000Y-7937500D02*
X10972000Y-7937500D01*
X11380000Y-3569500D02*
X11480000Y-3669500D01*
X11480000Y-3569500D02*
X11380000Y-3669500D01*
X11430000Y-3569500D02*
X11430000Y-3669500D01*
X11380000Y-3619500D02*
X11480000Y-3619500D01*
X11380000Y-3823500D02*
X11480000Y-3923500D01*
X11480000Y-3823500D02*
X11380000Y-3923500D01*
X11430000Y-3823500D02*
X11430000Y-3923500D01*
X11380000Y-3873500D02*
X11480000Y-3873500D01*
X11380000Y-4077500D02*
X11480000Y-4177500D01*
X11480000Y-4077500D02*
X11380000Y-4177500D01*
X11430000Y-4077500D02*
X11430000Y-4177500D01*
X11380000Y-4127500D02*
X11480000Y-4127500D01*
X11380000Y-4331500D02*
X11480000Y-4431500D01*
X11480000Y-4331500D02*
X11380000Y-4431500D01*
X11430000Y-4331500D02*
X11430000Y-4431500D01*
X11380000Y-4381500D02*
X11480000Y-4381500D01*
X11380000Y-4585500D02*
X11480000Y-4685500D01*
X11480000Y-4585500D02*
X11380000Y-4685500D01*
X11430000Y-4585500D02*
X11430000Y-4685500D01*
X11380000Y-4635500D02*
X11480000Y-4635500D01*
X11380000Y-4839500D02*
X11480000Y-4939500D01*
X11480000Y-4839500D02*
X11380000Y-4939500D01*
X11430000Y-4839500D02*
X11430000Y-4939500D01*
X11380000Y-4889500D02*
X11480000Y-4889500D01*
X11380000Y-5093500D02*
X11480000Y-5193500D01*
X11480000Y-5093500D02*
X11380000Y-5193500D01*
X11430000Y-5093500D02*
X11430000Y-5193500D01*
X11380000Y-5143500D02*
X11480000Y-5143500D01*
X11380000Y-5347500D02*
X11480000Y-5447500D01*
X11480000Y-5347500D02*
X11380000Y-5447500D01*
X11430000Y-5347500D02*
X11430000Y-5447500D01*
X11380000Y-5397500D02*
X11480000Y-5397500D01*
X11380000Y-5601500D02*
X11480000Y-5701500D01*
X11480000Y-5601500D02*
X11380000Y-5701500D01*
X11430000Y-5601500D02*
X11430000Y-5701500D01*
X11380000Y-5651500D02*
X11480000Y-5651500D01*
X11380000Y-5855500D02*
X11480000Y-5955500D01*
X11480000Y-5855500D02*
X11380000Y-5955500D01*
X11430000Y-5855500D02*
X11430000Y-5955500D01*
X11380000Y-5905500D02*
X11480000Y-5905500D01*
X11380000Y-6109500D02*
X11480000Y-6209500D01*
X11480000Y-6109500D02*
X11380000Y-6209500D01*
X11430000Y-6109500D02*
X11430000Y-6209500D01*
X11380000Y-6159500D02*
X11480000Y-6159500D01*
X11380000Y-6363500D02*
X11480000Y-6463500D01*
X11480000Y-6363500D02*
X11380000Y-6463500D01*
X11430000Y-6363500D02*
X11430000Y-6463500D01*
X11380000Y-6413500D02*
X11480000Y-6413500D01*
X11380000Y-6617500D02*
X11480000Y-6717500D01*
X11480000Y-6617500D02*
X11380000Y-6717500D01*
X11430000Y-6617500D02*
X11430000Y-6717500D01*
X11380000Y-6667500D02*
X11480000Y-6667500D01*
X11380000Y-6871500D02*
X11480000Y-6971500D01*
X11480000Y-6871500D02*
X11380000Y-6971500D01*
X11430000Y-6871500D02*
X11430000Y-6971500D01*
X11380000Y-6921500D02*
X11480000Y-6921500D01*
X11380000Y-7125500D02*
X11480000Y-7225500D01*
X11480000Y-7125500D02*
X11380000Y-7225500D01*
X11430000Y-7125500D02*
X11430000Y-7225500D01*
X11380000Y-7175500D02*
X11480000Y-7175500D01*
X11380000Y-7379500D02*
X11480000Y-7479500D01*
X11480000Y-7379500D02*
X11380000Y-7479500D01*
X11430000Y-7379500D02*
X11430000Y-7479500D01*
X11380000Y-7429500D02*
X11480000Y-7429500D01*
X11380000Y-7633500D02*
X11480000Y-7733500D01*
X11480000Y-7633500D02*
X11380000Y-7733500D01*
X11430000Y-7633500D02*
X11430000Y-7733500D01*
X11380000Y-7683500D02*
X11480000Y-7683500D01*
X11380000Y-7887500D02*
X11480000Y-7987500D01*
X11480000Y-7887500D02*
X11380000Y-7987500D01*
X11430000Y-7887500D02*
X11430000Y-7987500D01*
X11380000Y-7937500D02*
X11480000Y-7937500D01*
D13*
X2235200Y-2997200D02*
X2336800Y-3098800D01*
X2336800Y-2997200D02*
X2235200Y-3098800D01*
X2321921Y-3083921D02*
X2321921Y-3012079D01*
X2250079Y-3012079D01*
X2250079Y-3083921D01*
X2321921Y-3083921D01*
X2235200Y-3251200D02*
X2336800Y-3352800D01*
X2336800Y-3251200D02*
X2235200Y-3352800D01*
X2321921Y-3337921D02*
X2321921Y-3266079D01*
X2250079Y-3266079D01*
X2250079Y-3337921D01*
X2321921Y-3337921D01*
X2235200Y-3505200D02*
X2336800Y-3606800D01*
X2336800Y-3505200D02*
X2235200Y-3606800D01*
X2321921Y-3591921D02*
X2321921Y-3520079D01*
X2250079Y-3520079D01*
X2250079Y-3591921D01*
X2321921Y-3591921D01*
X2235200Y-3759200D02*
X2336800Y-3860800D01*
X2336800Y-3759200D02*
X2235200Y-3860800D01*
X2321921Y-3845921D02*
X2321921Y-3774079D01*
X2250079Y-3774079D01*
X2250079Y-3845921D01*
X2321921Y-3845921D01*
X2235200Y-4013200D02*
X2336800Y-4114800D01*
X2336800Y-4013200D02*
X2235200Y-4114800D01*
X2321921Y-4099921D02*
X2321921Y-4028079D01*
X2250079Y-4028079D01*
X2250079Y-4099921D01*
X2321921Y-4099921D01*
X2235200Y-4267200D02*
X2336800Y-4368800D01*
X2336800Y-4267200D02*
X2235200Y-4368800D01*
X2321921Y-4353921D02*
X2321921Y-4282079D01*
X2250079Y-4282079D01*
X2250079Y-4353921D01*
X2321921Y-4353921D01*
X2235200Y-4521200D02*
X2336800Y-4622800D01*
X2336800Y-4521200D02*
X2235200Y-4622800D01*
X2321921Y-4607921D02*
X2321921Y-4536079D01*
X2250079Y-4536079D01*
X2250079Y-4607921D01*
X2321921Y-4607921D01*
X2235200Y-4775200D02*
X2336800Y-4876800D01*
X2336800Y-4775200D02*
X2235200Y-4876800D01*
X2321921Y-4861921D02*
X2321921Y-4790079D01*
X2250079Y-4790079D01*
X2250079Y-4861921D01*
X2321921Y-4861921D01*
X2235200Y-5029200D02*
X2336800Y-5130800D01*
X2336800Y-5029200D02*
X2235200Y-5130800D01*
X2321921Y-5115921D02*
X2321921Y-5044079D01*
X2250079Y-5044079D01*
X2250079Y-5115921D01*
X2321921Y-5115921D01*
X2235200Y-5283200D02*
X2336800Y-5384800D01*
X2336800Y-5283200D02*
X2235200Y-5384800D01*
X2321921Y-5369921D02*
X2321921Y-5298079D01*
X2250079Y-5298079D01*
X2250079Y-5369921D01*
X2321921Y-5369921D01*
X2235200Y-5537200D02*
X2336800Y-5638800D01*
X2336800Y-5537200D02*
X2235200Y-5638800D01*
X2321921Y-5623921D02*
X2321921Y-5552079D01*
X2250079Y-5552079D01*
X2250079Y-5623921D01*
X2321921Y-5623921D01*
X2235200Y-5791200D02*
X2336800Y-5892800D01*
X2336800Y-5791200D02*
X2235200Y-5892800D01*
X2321921Y-5877921D02*
X2321921Y-5806079D01*
X2250079Y-5806079D01*
X2250079Y-5877921D01*
X2321921Y-5877921D01*
X2235200Y-6045200D02*
X2336800Y-6146800D01*
X2336800Y-6045200D02*
X2235200Y-6146800D01*
X2321921Y-6131921D02*
X2321921Y-6060079D01*
X2250079Y-6060079D01*
X2250079Y-6131921D01*
X2321921Y-6131921D01*
X2235200Y-6299200D02*
X2336800Y-6400800D01*
X2336800Y-6299200D02*
X2235200Y-6400800D01*
X2321921Y-6385921D02*
X2321921Y-6314079D01*
X2250079Y-6314079D01*
X2250079Y-6385921D01*
X2321921Y-6385921D01*
X2235200Y-6553200D02*
X2336800Y-6654800D01*
X2336800Y-6553200D02*
X2235200Y-6654800D01*
X2321921Y-6639921D02*
X2321921Y-6568079D01*
X2250079Y-6568079D01*
X2250079Y-6639921D01*
X2321921Y-6639921D01*
X2235200Y-6807200D02*
X2336800Y-6908800D01*
X2336800Y-6807200D02*
X2235200Y-6908800D01*
X2321921Y-6893921D02*
X2321921Y-6822079D01*
X2250079Y-6822079D01*
X2250079Y-6893921D01*
X2321921Y-6893921D01*
X2235200Y-7061200D02*
X2336800Y-7162800D01*
X2336800Y-7061200D02*
X2235200Y-7162800D01*
X2321921Y-7147921D02*
X2321921Y-7076079D01*
X2250079Y-7076079D01*
X2250079Y-7147921D01*
X2321921Y-7147921D01*
X2235200Y-7315200D02*
X2336800Y-7416800D01*
X2336800Y-7315200D02*
X2235200Y-7416800D01*
X2321921Y-7401921D02*
X2321921Y-7330079D01*
X2250079Y-7330079D01*
X2250079Y-7401921D01*
X2321921Y-7401921D01*
X2235200Y-7569200D02*
X2336800Y-7670800D01*
X2336800Y-7569200D02*
X2235200Y-7670800D01*
X2321921Y-7655921D02*
X2321921Y-7584079D01*
X2250079Y-7584079D01*
X2250079Y-7655921D01*
X2321921Y-7655921D01*
X2235200Y-7823200D02*
X2336800Y-7924800D01*
X2336800Y-7823200D02*
X2235200Y-7924800D01*
X2321921Y-7909921D02*
X2321921Y-7838079D01*
X2250079Y-7838079D01*
X2250079Y-7909921D01*
X2321921Y-7909921D01*
X2489200Y-2997200D02*
X2590800Y-3098800D01*
X2590800Y-2997200D02*
X2489200Y-3098800D01*
X2575921Y-3083921D02*
X2575921Y-3012079D01*
X2504079Y-3012079D01*
X2504079Y-3083921D01*
X2575921Y-3083921D01*
X2489200Y-3251200D02*
X2590800Y-3352800D01*
X2590800Y-3251200D02*
X2489200Y-3352800D01*
X2575921Y-3337921D02*
X2575921Y-3266079D01*
X2504079Y-3266079D01*
X2504079Y-3337921D01*
X2575921Y-3337921D01*
X2489200Y-3505200D02*
X2590800Y-3606800D01*
X2590800Y-3505200D02*
X2489200Y-3606800D01*
X2575921Y-3591921D02*
X2575921Y-3520079D01*
X2504079Y-3520079D01*
X2504079Y-3591921D01*
X2575921Y-3591921D01*
X2489200Y-3759200D02*
X2590800Y-3860800D01*
X2590800Y-3759200D02*
X2489200Y-3860800D01*
X2575921Y-3845921D02*
X2575921Y-3774079D01*
X2504079Y-3774079D01*
X2504079Y-3845921D01*
X2575921Y-3845921D01*
X2489200Y-4013200D02*
X2590800Y-4114800D01*
X2590800Y-4013200D02*
X2489200Y-4114800D01*
X2575921Y-4099921D02*
X2575921Y-4028079D01*
X2504079Y-4028079D01*
X2504079Y-4099921D01*
X2575921Y-4099921D01*
X2489200Y-4267200D02*
X2590800Y-4368800D01*
X2590800Y-4267200D02*
X2489200Y-4368800D01*
X2575921Y-4353921D02*
X2575921Y-4282079D01*
X2504079Y-4282079D01*
X2504079Y-4353921D01*
X2575921Y-4353921D01*
X2489200Y-4521200D02*
X2590800Y-4622800D01*
X2590800Y-4521200D02*
X2489200Y-4622800D01*
X2575921Y-4607921D02*
X2575921Y-4536079D01*
X2504079Y-4536079D01*
X2504079Y-4607921D01*
X2575921Y-4607921D01*
X2489200Y-4775200D02*
X2590800Y-4876800D01*
X2590800Y-4775200D02*
X2489200Y-4876800D01*
X2575921Y-4861921D02*
X2575921Y-4790079D01*
X2504079Y-4790079D01*
X2504079Y-4861921D01*
X2575921Y-4861921D01*
X2489200Y-5029200D02*
X2590800Y-5130800D01*
X2590800Y-5029200D02*
X2489200Y-5130800D01*
X2575921Y-5115921D02*
X2575921Y-5044079D01*
X2504079Y-5044079D01*
X2504079Y-5115921D01*
X2575921Y-5115921D01*
X2489200Y-5283200D02*
X2590800Y-5384800D01*
X2590800Y-5283200D02*
X2489200Y-5384800D01*
X2575921Y-5369921D02*
X2575921Y-5298079D01*
X2504079Y-5298079D01*
X2504079Y-5369921D01*
X2575921Y-5369921D01*
X2489200Y-5537200D02*
X2590800Y-5638800D01*
X2590800Y-5537200D02*
X2489200Y-5638800D01*
X2575921Y-5623921D02*
X2575921Y-5552079D01*
X2504079Y-5552079D01*
X2504079Y-5623921D01*
X2575921Y-5623921D01*
X2489200Y-5791200D02*
X2590800Y-5892800D01*
X2590800Y-5791200D02*
X2489200Y-5892800D01*
X2575921Y-5877921D02*
X2575921Y-5806079D01*
X2504079Y-5806079D01*
X2504079Y-5877921D01*
X2575921Y-5877921D01*
X2489200Y-6045200D02*
X2590800Y-6146800D01*
X2590800Y-6045200D02*
X2489200Y-6146800D01*
X2575921Y-6131921D02*
X2575921Y-6060079D01*
X2504079Y-6060079D01*
X2504079Y-6131921D01*
X2575921Y-6131921D01*
X2489200Y-6299200D02*
X2590800Y-6400800D01*
X2590800Y-6299200D02*
X2489200Y-6400800D01*
X2575921Y-6385921D02*
X2575921Y-6314079D01*
X2504079Y-6314079D01*
X2504079Y-6385921D01*
X2575921Y-6385921D01*
X2489200Y-6553200D02*
X2590800Y-6654800D01*
X2590800Y-6553200D02*
X2489200Y-6654800D01*
X2575921Y-6639921D02*
X2575921Y-6568079D01*
X2504079Y-6568079D01*
X2504079Y-6639921D01*
X2575921Y-6639921D01*
X2489200Y-6807200D02*
X2590800Y-6908800D01*
X2590800Y-6807200D02*
X2489200Y-6908800D01*
X2575921Y-6893921D02*
X2575921Y-6822079D01*
X2504079Y-6822079D01*
X2504079Y-6893921D01*
X2575921Y-6893921D01*
X2489200Y-7061200D02*
X2590800Y-7162800D01*
X2590800Y-7061200D02*
X2489200Y-7162800D01*
X2575921Y-7147921D02*
X2575921Y-7076079D01*
X2504079Y-7076079D01*
X2504079Y-7147921D01*
X2575921Y-7147921D01*
X2489200Y-7315200D02*
X2590800Y-7416800D01*
X2590800Y-7315200D02*
X2489200Y-7416800D01*
X2575921Y-7401921D02*
X2575921Y-7330079D01*
X2504079Y-7330079D01*
X2504079Y-7401921D01*
X2575921Y-7401921D01*
X2489200Y-7569200D02*
X2590800Y-7670800D01*
X2590800Y-7569200D02*
X2489200Y-7670800D01*
X2575921Y-7655921D02*
X2575921Y-7584079D01*
X2504079Y-7584079D01*
X2504079Y-7655921D01*
X2575921Y-7655921D01*
X2489200Y-7823200D02*
X2590800Y-7924800D01*
X2590800Y-7823200D02*
X2489200Y-7924800D01*
X2575921Y-7909921D02*
X2575921Y-7838079D01*
X2504079Y-7838079D01*
X2504079Y-7909921D01*
X2575921Y-7909921D01*
X3378200Y-2997200D02*
X3479800Y-3098800D01*
X3479800Y-2997200D02*
X3378200Y-3098800D01*
X3464921Y-3083921D02*
X3464921Y-3012079D01*
X3393079Y-3012079D01*
X3393079Y-3083921D01*
X3464921Y-3083921D01*
X3378200Y-3251200D02*
X3479800Y-3352800D01*
X3479800Y-3251200D02*
X3378200Y-3352800D01*
X3464921Y-3337921D02*
X3464921Y-3266079D01*
X3393079Y-3266079D01*
X3393079Y-3337921D01*
X3464921Y-3337921D01*
X3378200Y-3505200D02*
X3479800Y-3606800D01*
X3479800Y-3505200D02*
X3378200Y-3606800D01*
X3464921Y-3591921D02*
X3464921Y-3520079D01*
X3393079Y-3520079D01*
X3393079Y-3591921D01*
X3464921Y-3591921D01*
X3378200Y-3759200D02*
X3479800Y-3860800D01*
X3479800Y-3759200D02*
X3378200Y-3860800D01*
X3464921Y-3845921D02*
X3464921Y-3774079D01*
X3393079Y-3774079D01*
X3393079Y-3845921D01*
X3464921Y-3845921D01*
X3378200Y-4013200D02*
X3479800Y-4114800D01*
X3479800Y-4013200D02*
X3378200Y-4114800D01*
X3464921Y-4099921D02*
X3464921Y-4028079D01*
X3393079Y-4028079D01*
X3393079Y-4099921D01*
X3464921Y-4099921D01*
X3378200Y-4267200D02*
X3479800Y-4368800D01*
X3479800Y-4267200D02*
X3378200Y-4368800D01*
X3464921Y-4353921D02*
X3464921Y-4282079D01*
X3393079Y-4282079D01*
X3393079Y-4353921D01*
X3464921Y-4353921D01*
X3378200Y-4521200D02*
X3479800Y-4622800D01*
X3479800Y-4521200D02*
X3378200Y-4622800D01*
X3464921Y-4607921D02*
X3464921Y-4536079D01*
X3393079Y-4536079D01*
X3393079Y-4607921D01*
X3464921Y-4607921D01*
X3378200Y-4775200D02*
X3479800Y-4876800D01*
X3479800Y-4775200D02*
X3378200Y-4876800D01*
X3464921Y-4861921D02*
X3464921Y-4790079D01*
X3393079Y-4790079D01*
X3393079Y-4861921D01*
X3464921Y-4861921D01*
X3632200Y-2997200D02*
X3733800Y-3098800D01*
X3733800Y-2997200D02*
X3632200Y-3098800D01*
X3718921Y-3083921D02*
X3718921Y-3012079D01*
X3647079Y-3012079D01*
X3647079Y-3083921D01*
X3718921Y-3083921D01*
X3632200Y-3251200D02*
X3733800Y-3352800D01*
X3733800Y-3251200D02*
X3632200Y-3352800D01*
X3718921Y-3337921D02*
X3718921Y-3266079D01*
X3647079Y-3266079D01*
X3647079Y-3337921D01*
X3718921Y-3337921D01*
X3632200Y-3505200D02*
X3733800Y-3606800D01*
X3733800Y-3505200D02*
X3632200Y-3606800D01*
X3718921Y-3591921D02*
X3718921Y-3520079D01*
X3647079Y-3520079D01*
X3647079Y-3591921D01*
X3718921Y-3591921D01*
X3632200Y-3759200D02*
X3733800Y-3860800D01*
X3733800Y-3759200D02*
X3632200Y-3860800D01*
X3718921Y-3845921D02*
X3718921Y-3774079D01*
X3647079Y-3774079D01*
X3647079Y-3845921D01*
X3718921Y-3845921D01*
X3632200Y-4013200D02*
X3733800Y-4114800D01*
X3733800Y-4013200D02*
X3632200Y-4114800D01*
X3718921Y-4099921D02*
X3718921Y-4028079D01*
X3647079Y-4028079D01*
X3647079Y-4099921D01*
X3718921Y-4099921D01*
X3632200Y-4267200D02*
X3733800Y-4368800D01*
X3733800Y-4267200D02*
X3632200Y-4368800D01*
X3718921Y-4353921D02*
X3718921Y-4282079D01*
X3647079Y-4282079D01*
X3647079Y-4353921D01*
X3718921Y-4353921D01*
X3632200Y-4521200D02*
X3733800Y-4622800D01*
X3733800Y-4521200D02*
X3632200Y-4622800D01*
X3718921Y-4607921D02*
X3718921Y-4536079D01*
X3647079Y-4536079D01*
X3647079Y-4607921D01*
X3718921Y-4607921D01*
X3632200Y-4775200D02*
X3733800Y-4876800D01*
X3733800Y-4775200D02*
X3632200Y-4876800D01*
X3718921Y-4861921D02*
X3718921Y-4790079D01*
X3647079Y-4790079D01*
X3647079Y-4861921D01*
X3718921Y-4861921D01*
D14*
X2089000Y-8893000D02*
X2199000Y-9003000D01*
X2199000Y-8893000D02*
X2089000Y-9003000D01*
X2144000Y-9003000D02*
X2199000Y-8948000D01*
X2144000Y-8893000D01*
X2089000Y-8948000D01*
X2144000Y-9003000D01*
X2089000Y-9343000D02*
X2199000Y-9453000D01*
X2199000Y-9343000D02*
X2089000Y-9453000D01*
X2144000Y-9453000D02*
X2199000Y-9398000D01*
X2144000Y-9343000D01*
X2089000Y-9398000D01*
X2144000Y-9453000D01*
X2739000Y-8893000D02*
X2849000Y-9003000D01*
X2849000Y-8893000D02*
X2739000Y-9003000D01*
X2794000Y-9003000D02*
X2849000Y-8948000D01*
X2794000Y-8893000D01*
X2739000Y-8948000D01*
X2794000Y-9003000D01*
X2739000Y-9343000D02*
X2849000Y-9453000D01*
X2849000Y-9343000D02*
X2739000Y-9453000D01*
X2794000Y-9453000D02*
X2849000Y-9398000D01*
X2794000Y-9343000D01*
X2739000Y-9398000D01*
X2794000Y-9453000D01*
X3867000Y-8893000D02*
X3977000Y-9003000D01*
X3977000Y-8893000D02*
X3867000Y-9003000D01*
X3922000Y-9003000D02*
X3977000Y-8948000D01*
X3922000Y-8893000D01*
X3867000Y-8948000D01*
X3922000Y-9003000D01*
X3867000Y-9343000D02*
X3977000Y-9453000D01*
X3977000Y-9343000D02*
X3867000Y-9453000D01*
X3922000Y-9453000D02*
X3977000Y-9398000D01*
X3922000Y-9343000D01*
X3867000Y-9398000D01*
X3922000Y-9453000D01*
X4517000Y-8893000D02*
X4627000Y-9003000D01*
X4627000Y-8893000D02*
X4517000Y-9003000D01*
X4572000Y-9003000D02*
X4627000Y-8948000D01*
X4572000Y-8893000D01*
X4517000Y-8948000D01*
X4572000Y-9003000D01*
X4517000Y-9343000D02*
X4627000Y-9453000D01*
X4627000Y-9343000D02*
X4517000Y-9453000D01*
X4572000Y-9453000D02*
X4627000Y-9398000D01*
X4572000Y-9343000D01*
X4517000Y-9398000D01*
X4572000Y-9453000D01*
D15*
X5334000Y-5872500D02*
X5334000Y-6192500D01*
X5174000Y-6032500D02*
X5494000Y-6032500D01*
X5494000Y-6032500D02*
G75*
G02*
X5174000Y-6032500I-160000J0D01*
G01*
X5174000Y-6032500D02*
G75*
G02*
X5494000Y-6032500I160000J0D01*
G01*
X11176000Y-2634000D02*
X11176000Y-2954000D01*
X11016000Y-2794000D02*
X11336000Y-2794000D01*
X11336000Y-2794000D02*
G75*
G02*
X11016000Y-2794000I-160000J0D01*
G01*
X11016000Y-2794000D02*
G75*
G02*
X11336000Y-2794000I160000J0D01*
G01*
X11176000Y-9111000D02*
X11176000Y-9431000D01*
X11016000Y-9271000D02*
X11336000Y-9271000D01*
X11336000Y-9271000D02*
G75*
G02*
X11016000Y-9271000I-160000J0D01*
G01*
X11016000Y-9271000D02*
G75*
G02*
X11336000Y-9271000I160000J0D01*
G01*
D11*
X2163277Y-9965984D02*
X2163277Y-9765984D01*
X2163277Y-9765984D02*
X2210896Y-9765984D01*
X2210896Y-9765984D02*
X2239467Y-9775508D01*
X2239467Y-9775508D02*
X2258515Y-9794555D01*
X2258515Y-9794555D02*
X2268039Y-9813603D01*
X2268039Y-9813603D02*
X2277563Y-9851698D01*
X2277563Y-9851698D02*
X2277563Y-9880270D01*
X2277563Y-9880270D02*
X2268039Y-9918365D01*
X2268039Y-9918365D02*
X2258515Y-9937412D01*
X2258515Y-9937412D02*
X2239467Y-9956460D01*
X2239467Y-9956460D02*
X2210896Y-9965984D01*
X2210896Y-9965984D02*
X2163277Y-9965984D01*
X2363277Y-9965984D02*
X2363277Y-9832650D01*
X2363277Y-9870746D02*
X2372801Y-9851698D01*
X2372801Y-9851698D02*
X2382324Y-9842174D01*
X2382324Y-9842174D02*
X2401372Y-9832650D01*
X2401372Y-9832650D02*
X2420420Y-9832650D01*
X2487086Y-9965984D02*
X2487086Y-9832650D01*
X2487086Y-9765984D02*
X2477563Y-9775508D01*
X2477563Y-9775508D02*
X2487086Y-9785031D01*
X2487086Y-9785031D02*
X2496610Y-9775508D01*
X2496610Y-9775508D02*
X2487086Y-9765984D01*
X2487086Y-9765984D02*
X2487086Y-9785031D01*
X2610896Y-9965984D02*
X2591848Y-9956460D01*
X2591848Y-9956460D02*
X2582324Y-9937412D01*
X2582324Y-9937412D02*
X2582324Y-9765984D01*
X2715658Y-9965984D02*
X2696610Y-9956460D01*
X2696610Y-9956460D02*
X2687086Y-9937412D01*
X2687086Y-9937412D02*
X2687086Y-9765984D01*
X2944229Y-9965984D02*
X2944229Y-9765984D01*
X2944229Y-9765984D02*
X3010896Y-9908841D01*
X3010896Y-9908841D02*
X3077562Y-9765984D01*
X3077562Y-9765984D02*
X3077562Y-9965984D01*
X3258515Y-9965984D02*
X3258515Y-9861222D01*
X3258515Y-9861222D02*
X3248991Y-9842174D01*
X3248991Y-9842174D02*
X3229943Y-9832650D01*
X3229943Y-9832650D02*
X3191848Y-9832650D01*
X3191848Y-9832650D02*
X3172801Y-9842174D01*
X3258515Y-9956460D02*
X3239467Y-9965984D01*
X3239467Y-9965984D02*
X3191848Y-9965984D01*
X3191848Y-9965984D02*
X3172801Y-9956460D01*
X3172801Y-9956460D02*
X3163277Y-9937412D01*
X3163277Y-9937412D02*
X3163277Y-9918365D01*
X3163277Y-9918365D02*
X3172801Y-9899317D01*
X3172801Y-9899317D02*
X3191848Y-9889793D01*
X3191848Y-9889793D02*
X3239467Y-9889793D01*
X3239467Y-9889793D02*
X3258515Y-9880270D01*
X3353753Y-9832650D02*
X3353753Y-10032650D01*
X3353753Y-9842174D02*
X3372801Y-9832650D01*
X3372801Y-9832650D02*
X3410896Y-9832650D01*
X3410896Y-9832650D02*
X3429943Y-9842174D01*
X3429943Y-9842174D02*
X3439467Y-9851698D01*
X3439467Y-9851698D02*
X3448991Y-9870746D01*
X3448991Y-9870746D02*
X3448991Y-9927889D01*
X3448991Y-9927889D02*
X3439467Y-9946936D01*
X3439467Y-9946936D02*
X3429943Y-9956460D01*
X3429943Y-9956460D02*
X3410896Y-9965984D01*
X3410896Y-9965984D02*
X3372801Y-9965984D01*
X3372801Y-9965984D02*
X3353753Y-9956460D01*
X3534705Y-9946936D02*
X3544229Y-9956460D01*
X3544229Y-9956460D02*
X3534705Y-9965984D01*
X3534705Y-9965984D02*
X3525182Y-9956460D01*
X3525182Y-9956460D02*
X3534705Y-9946936D01*
X3534705Y-9946936D02*
X3534705Y-9965984D01*
X3534705Y-9842174D02*
X3544229Y-9851698D01*
X3544229Y-9851698D02*
X3534705Y-9861222D01*
X3534705Y-9861222D02*
X3525182Y-9851698D01*
X3525182Y-9851698D02*
X3534705Y-9842174D01*
X3534705Y-9842174D02*
X3534705Y-9861222D01*
D12*
X1867500Y-10277000D02*
X1902500Y-10312000D01*
X1902500Y-10277000D02*
X1867500Y-10312000D01*
D11*
X2201372Y-10185984D02*
X2220420Y-10185984D01*
X2220420Y-10185984D02*
X2239467Y-10195508D01*
X2239467Y-10195508D02*
X2248991Y-10205031D01*
X2248991Y-10205031D02*
X2258515Y-10224079D01*
X2258515Y-10224079D02*
X2268039Y-10262174D01*
X2268039Y-10262174D02*
X2268039Y-10309793D01*
X2268039Y-10309793D02*
X2258515Y-10347889D01*
X2258515Y-10347889D02*
X2248991Y-10366936D01*
X2248991Y-10366936D02*
X2239467Y-10376460D01*
X2239467Y-10376460D02*
X2220420Y-10385984D01*
X2220420Y-10385984D02*
X2201372Y-10385984D01*
X2201372Y-10385984D02*
X2182324Y-10376460D01*
X2182324Y-10376460D02*
X2172801Y-10366936D01*
X2172801Y-10366936D02*
X2163277Y-10347889D01*
X2163277Y-10347889D02*
X2153753Y-10309793D01*
X2153753Y-10309793D02*
X2153753Y-10262174D01*
X2153753Y-10262174D02*
X2163277Y-10224079D01*
X2163277Y-10224079D02*
X2172801Y-10205031D01*
X2172801Y-10205031D02*
X2182324Y-10195508D01*
X2182324Y-10195508D02*
X2201372Y-10185984D01*
X2353753Y-10366936D02*
X2363277Y-10376460D01*
X2363277Y-10376460D02*
X2353753Y-10385984D01*
X2353753Y-10385984D02*
X2344229Y-10376460D01*
X2344229Y-10376460D02*
X2353753Y-10366936D01*
X2353753Y-10366936D02*
X2353753Y-10385984D01*
X2429944Y-10185984D02*
X2553753Y-10185984D01*
X2553753Y-10185984D02*
X2487086Y-10262174D01*
X2487086Y-10262174D02*
X2515658Y-10262174D01*
X2515658Y-10262174D02*
X2534705Y-10271698D01*
X2534705Y-10271698D02*
X2544229Y-10281222D01*
X2544229Y-10281222D02*
X2553753Y-10300270D01*
X2553753Y-10300270D02*
X2553753Y-10347889D01*
X2553753Y-10347889D02*
X2544229Y-10366936D01*
X2544229Y-10366936D02*
X2534705Y-10376460D01*
X2534705Y-10376460D02*
X2515658Y-10385984D01*
X2515658Y-10385984D02*
X2458515Y-10385984D01*
X2458515Y-10385984D02*
X2439467Y-10376460D01*
X2439467Y-10376460D02*
X2429944Y-10366936D01*
X2734705Y-10185984D02*
X2639467Y-10185984D01*
X2639467Y-10185984D02*
X2629944Y-10281222D01*
X2629944Y-10281222D02*
X2639467Y-10271698D01*
X2639467Y-10271698D02*
X2658515Y-10262174D01*
X2658515Y-10262174D02*
X2706134Y-10262174D01*
X2706134Y-10262174D02*
X2725182Y-10271698D01*
X2725182Y-10271698D02*
X2734705Y-10281222D01*
X2734705Y-10281222D02*
X2744229Y-10300270D01*
X2744229Y-10300270D02*
X2744229Y-10347889D01*
X2744229Y-10347889D02*
X2734705Y-10366936D01*
X2734705Y-10366936D02*
X2725182Y-10376460D01*
X2725182Y-10376460D02*
X2706134Y-10385984D01*
X2706134Y-10385984D02*
X2658515Y-10385984D01*
X2658515Y-10385984D02*
X2639467Y-10376460D01*
X2639467Y-10376460D02*
X2629944Y-10366936D01*
X2868039Y-10185984D02*
X2887086Y-10185984D01*
X2887086Y-10185984D02*
X2906134Y-10195508D01*
X2906134Y-10195508D02*
X2915658Y-10205031D01*
X2915658Y-10205031D02*
X2925182Y-10224079D01*
X2925182Y-10224079D02*
X2934705Y-10262174D01*
X2934705Y-10262174D02*
X2934705Y-10309793D01*
X2934705Y-10309793D02*
X2925182Y-10347889D01*
X2925182Y-10347889D02*
X2915658Y-10366936D01*
X2915658Y-10366936D02*
X2906134Y-10376460D01*
X2906134Y-10376460D02*
X2887086Y-10385984D01*
X2887086Y-10385984D02*
X2868039Y-10385984D01*
X2868039Y-10385984D02*
X2848991Y-10376460D01*
X2848991Y-10376460D02*
X2839467Y-10366936D01*
X2839467Y-10366936D02*
X2829943Y-10347889D01*
X2829943Y-10347889D02*
X2820420Y-10309793D01*
X2820420Y-10309793D02*
X2820420Y-10262174D01*
X2820420Y-10262174D02*
X2829943Y-10224079D01*
X2829943Y-10224079D02*
X2839467Y-10205031D01*
X2839467Y-10205031D02*
X2848991Y-10195508D01*
X2848991Y-10195508D02*
X2868039Y-10185984D01*
X3020420Y-10385984D02*
X3020420Y-10252650D01*
X3020420Y-10271698D02*
X3029943Y-10262174D01*
X3029943Y-10262174D02*
X3048991Y-10252650D01*
X3048991Y-10252650D02*
X3077563Y-10252650D01*
X3077563Y-10252650D02*
X3096610Y-10262174D01*
X3096610Y-10262174D02*
X3106134Y-10281222D01*
X3106134Y-10281222D02*
X3106134Y-10385984D01*
X3106134Y-10281222D02*
X3115658Y-10262174D01*
X3115658Y-10262174D02*
X3134705Y-10252650D01*
X3134705Y-10252650D02*
X3163277Y-10252650D01*
X3163277Y-10252650D02*
X3182324Y-10262174D01*
X3182324Y-10262174D02*
X3191848Y-10281222D01*
X3191848Y-10281222D02*
X3191848Y-10385984D01*
X3287086Y-10385984D02*
X3287086Y-10252650D01*
X3287086Y-10271698D02*
X3296610Y-10262174D01*
X3296610Y-10262174D02*
X3315658Y-10252650D01*
X3315658Y-10252650D02*
X3344229Y-10252650D01*
X3344229Y-10252650D02*
X3363277Y-10262174D01*
X3363277Y-10262174D02*
X3372801Y-10281222D01*
X3372801Y-10281222D02*
X3372801Y-10385984D01*
X3372801Y-10281222D02*
X3382324Y-10262174D01*
X3382324Y-10262174D02*
X3401372Y-10252650D01*
X3401372Y-10252650D02*
X3429943Y-10252650D01*
X3429943Y-10252650D02*
X3448991Y-10262174D01*
X3448991Y-10262174D02*
X3458515Y-10281222D01*
X3458515Y-10281222D02*
X3458515Y-10385984D01*
X3848991Y-10176460D02*
X3677563Y-10433603D01*
X4106134Y-10185984D02*
X4125182Y-10185984D01*
X4125182Y-10185984D02*
X4144229Y-10195508D01*
X4144229Y-10195508D02*
X4153753Y-10205031D01*
X4153753Y-10205031D02*
X4163277Y-10224079D01*
X4163277Y-10224079D02*
X4172801Y-10262174D01*
X4172801Y-10262174D02*
X4172801Y-10309793D01*
X4172801Y-10309793D02*
X4163277Y-10347889D01*
X4163277Y-10347889D02*
X4153753Y-10366936D01*
X4153753Y-10366936D02*
X4144229Y-10376460D01*
X4144229Y-10376460D02*
X4125182Y-10385984D01*
X4125182Y-10385984D02*
X4106134Y-10385984D01*
X4106134Y-10385984D02*
X4087086Y-10376460D01*
X4087086Y-10376460D02*
X4077563Y-10366936D01*
X4077563Y-10366936D02*
X4068039Y-10347889D01*
X4068039Y-10347889D02*
X4058515Y-10309793D01*
X4058515Y-10309793D02*
X4058515Y-10262174D01*
X4058515Y-10262174D02*
X4068039Y-10224079D01*
X4068039Y-10224079D02*
X4077563Y-10205031D01*
X4077563Y-10205031D02*
X4087086Y-10195508D01*
X4087086Y-10195508D02*
X4106134Y-10185984D01*
X4258515Y-10366936D02*
X4268039Y-10376460D01*
X4268039Y-10376460D02*
X4258515Y-10385984D01*
X4258515Y-10385984D02*
X4248991Y-10376460D01*
X4248991Y-10376460D02*
X4258515Y-10366936D01*
X4258515Y-10366936D02*
X4258515Y-10385984D01*
X4391848Y-10185984D02*
X4410896Y-10185984D01*
X4410896Y-10185984D02*
X4429944Y-10195508D01*
X4429944Y-10195508D02*
X4439468Y-10205031D01*
X4439468Y-10205031D02*
X4448991Y-10224079D01*
X4448991Y-10224079D02*
X4458515Y-10262174D01*
X4458515Y-10262174D02*
X4458515Y-10309793D01*
X4458515Y-10309793D02*
X4448991Y-10347889D01*
X4448991Y-10347889D02*
X4439468Y-10366936D01*
X4439468Y-10366936D02*
X4429944Y-10376460D01*
X4429944Y-10376460D02*
X4410896Y-10385984D01*
X4410896Y-10385984D02*
X4391848Y-10385984D01*
X4391848Y-10385984D02*
X4372801Y-10376460D01*
X4372801Y-10376460D02*
X4363277Y-10366936D01*
X4363277Y-10366936D02*
X4353753Y-10347889D01*
X4353753Y-10347889D02*
X4344229Y-10309793D01*
X4344229Y-10309793D02*
X4344229Y-10262174D01*
X4344229Y-10262174D02*
X4353753Y-10224079D01*
X4353753Y-10224079D02*
X4363277Y-10205031D01*
X4363277Y-10205031D02*
X4372801Y-10195508D01*
X4372801Y-10195508D02*
X4391848Y-10185984D01*
X4648991Y-10385984D02*
X4534706Y-10385984D01*
X4591848Y-10385984D02*
X4591848Y-10185984D01*
X4591848Y-10185984D02*
X4572801Y-10214555D01*
X4572801Y-10214555D02*
X4553753Y-10233603D01*
X4553753Y-10233603D02*
X4534706Y-10243127D01*
X4715658Y-10185984D02*
X4839468Y-10185984D01*
X4839468Y-10185984D02*
X4772801Y-10262174D01*
X4772801Y-10262174D02*
X4801372Y-10262174D01*
X4801372Y-10262174D02*
X4820420Y-10271698D01*
X4820420Y-10271698D02*
X4829944Y-10281222D01*
X4829944Y-10281222D02*
X4839468Y-10300270D01*
X4839468Y-10300270D02*
X4839468Y-10347889D01*
X4839468Y-10347889D02*
X4829944Y-10366936D01*
X4829944Y-10366936D02*
X4820420Y-10376460D01*
X4820420Y-10376460D02*
X4801372Y-10385984D01*
X4801372Y-10385984D02*
X4744229Y-10385984D01*
X4744229Y-10385984D02*
X4725182Y-10376460D01*
X4725182Y-10376460D02*
X4715658Y-10366936D01*
X4953753Y-10271698D02*
X4934706Y-10262174D01*
X4934706Y-10262174D02*
X4925182Y-10252650D01*
X4925182Y-10252650D02*
X4915658Y-10233603D01*
X4915658Y-10233603D02*
X4915658Y-10224079D01*
X4915658Y-10224079D02*
X4925182Y-10205031D01*
X4925182Y-10205031D02*
X4934706Y-10195508D01*
X4934706Y-10195508D02*
X4953753Y-10185984D01*
X4953753Y-10185984D02*
X4991849Y-10185984D01*
X4991849Y-10185984D02*
X5010896Y-10195508D01*
X5010896Y-10195508D02*
X5020420Y-10205031D01*
X5020420Y-10205031D02*
X5029944Y-10224079D01*
X5029944Y-10224079D02*
X5029944Y-10233603D01*
X5029944Y-10233603D02*
X5020420Y-10252650D01*
X5020420Y-10252650D02*
X5010896Y-10262174D01*
X5010896Y-10262174D02*
X4991849Y-10271698D01*
X4991849Y-10271698D02*
X4953753Y-10271698D01*
X4953753Y-10271698D02*
X4934706Y-10281222D01*
X4934706Y-10281222D02*
X4925182Y-10290746D01*
X4925182Y-10290746D02*
X4915658Y-10309793D01*
X4915658Y-10309793D02*
X4915658Y-10347889D01*
X4915658Y-10347889D02*
X4925182Y-10366936D01*
X4925182Y-10366936D02*
X4934706Y-10376460D01*
X4934706Y-10376460D02*
X4953753Y-10385984D01*
X4953753Y-10385984D02*
X4991849Y-10385984D01*
X4991849Y-10385984D02*
X5010896Y-10376460D01*
X5010896Y-10376460D02*
X5020420Y-10366936D01*
X5020420Y-10366936D02*
X5029944Y-10347889D01*
X5029944Y-10347889D02*
X5029944Y-10309793D01*
X5029944Y-10309793D02*
X5020420Y-10290746D01*
X5020420Y-10290746D02*
X5010896Y-10281222D01*
X5010896Y-10281222D02*
X4991849Y-10271698D01*
X5106134Y-10185984D02*
X5106134Y-10224079D01*
X5182325Y-10185984D02*
X5182325Y-10224079D01*
X5477563Y-10462174D02*
X5468039Y-10452650D01*
X5468039Y-10452650D02*
X5448991Y-10424079D01*
X5448991Y-10424079D02*
X5439468Y-10405031D01*
X5439468Y-10405031D02*
X5429944Y-10376460D01*
X5429944Y-10376460D02*
X5420420Y-10328841D01*
X5420420Y-10328841D02*
X5420420Y-10290746D01*
X5420420Y-10290746D02*
X5429944Y-10243127D01*
X5429944Y-10243127D02*
X5439468Y-10214555D01*
X5439468Y-10214555D02*
X5448991Y-10195508D01*
X5448991Y-10195508D02*
X5468039Y-10166936D01*
X5468039Y-10166936D02*
X5477563Y-10157412D01*
X5639468Y-10185984D02*
X5601372Y-10185984D01*
X5601372Y-10185984D02*
X5582325Y-10195508D01*
X5582325Y-10195508D02*
X5572801Y-10205031D01*
X5572801Y-10205031D02*
X5553753Y-10233603D01*
X5553753Y-10233603D02*
X5544230Y-10271698D01*
X5544230Y-10271698D02*
X5544230Y-10347889D01*
X5544230Y-10347889D02*
X5553753Y-10366936D01*
X5553753Y-10366936D02*
X5563277Y-10376460D01*
X5563277Y-10376460D02*
X5582325Y-10385984D01*
X5582325Y-10385984D02*
X5620420Y-10385984D01*
X5620420Y-10385984D02*
X5639468Y-10376460D01*
X5639468Y-10376460D02*
X5648991Y-10366936D01*
X5648991Y-10366936D02*
X5658515Y-10347889D01*
X5658515Y-10347889D02*
X5658515Y-10300270D01*
X5658515Y-10300270D02*
X5648991Y-10281222D01*
X5648991Y-10281222D02*
X5639468Y-10271698D01*
X5639468Y-10271698D02*
X5620420Y-10262174D01*
X5620420Y-10262174D02*
X5582325Y-10262174D01*
X5582325Y-10262174D02*
X5563277Y-10271698D01*
X5563277Y-10271698D02*
X5553753Y-10281222D01*
X5553753Y-10281222D02*
X5544230Y-10300270D01*
X5782325Y-10185984D02*
X5801372Y-10185984D01*
X5801372Y-10185984D02*
X5820420Y-10195508D01*
X5820420Y-10195508D02*
X5829944Y-10205031D01*
X5829944Y-10205031D02*
X5839468Y-10224079D01*
X5839468Y-10224079D02*
X5848991Y-10262174D01*
X5848991Y-10262174D02*
X5848991Y-10309793D01*
X5848991Y-10309793D02*
X5839468Y-10347889D01*
X5839468Y-10347889D02*
X5829944Y-10366936D01*
X5829944Y-10366936D02*
X5820420Y-10376460D01*
X5820420Y-10376460D02*
X5801372Y-10385984D01*
X5801372Y-10385984D02*
X5782325Y-10385984D01*
X5782325Y-10385984D02*
X5763277Y-10376460D01*
X5763277Y-10376460D02*
X5753753Y-10366936D01*
X5753753Y-10366936D02*
X5744229Y-10347889D01*
X5744229Y-10347889D02*
X5734706Y-10309793D01*
X5734706Y-10309793D02*
X5734706Y-10262174D01*
X5734706Y-10262174D02*
X5744229Y-10224079D01*
X5744229Y-10224079D02*
X5753753Y-10205031D01*
X5753753Y-10205031D02*
X5763277Y-10195508D01*
X5763277Y-10195508D02*
X5782325Y-10185984D01*
X6087087Y-10385984D02*
X6087087Y-10185984D01*
X6172801Y-10385984D02*
X6172801Y-10281222D01*
X6172801Y-10281222D02*
X6163277Y-10262174D01*
X6163277Y-10262174D02*
X6144230Y-10252650D01*
X6144230Y-10252650D02*
X6115658Y-10252650D01*
X6115658Y-10252650D02*
X6096610Y-10262174D01*
X6096610Y-10262174D02*
X6087087Y-10271698D01*
X6296610Y-10385984D02*
X6277563Y-10376460D01*
X6277563Y-10376460D02*
X6268039Y-10366936D01*
X6268039Y-10366936D02*
X6258515Y-10347889D01*
X6258515Y-10347889D02*
X6258515Y-10290746D01*
X6258515Y-10290746D02*
X6268039Y-10271698D01*
X6268039Y-10271698D02*
X6277563Y-10262174D01*
X6277563Y-10262174D02*
X6296610Y-10252650D01*
X6296610Y-10252650D02*
X6325182Y-10252650D01*
X6325182Y-10252650D02*
X6344230Y-10262174D01*
X6344230Y-10262174D02*
X6353753Y-10271698D01*
X6353753Y-10271698D02*
X6363277Y-10290746D01*
X6363277Y-10290746D02*
X6363277Y-10347889D01*
X6363277Y-10347889D02*
X6353753Y-10366936D01*
X6353753Y-10366936D02*
X6344230Y-10376460D01*
X6344230Y-10376460D02*
X6325182Y-10385984D01*
X6325182Y-10385984D02*
X6296610Y-10385984D01*
X6477563Y-10385984D02*
X6458515Y-10376460D01*
X6458515Y-10376460D02*
X6448991Y-10357412D01*
X6448991Y-10357412D02*
X6448991Y-10185984D01*
X6629944Y-10376460D02*
X6610896Y-10385984D01*
X6610896Y-10385984D02*
X6572801Y-10385984D01*
X6572801Y-10385984D02*
X6553753Y-10376460D01*
X6553753Y-10376460D02*
X6544230Y-10357412D01*
X6544230Y-10357412D02*
X6544230Y-10281222D01*
X6544230Y-10281222D02*
X6553753Y-10262174D01*
X6553753Y-10262174D02*
X6572801Y-10252650D01*
X6572801Y-10252650D02*
X6610896Y-10252650D01*
X6610896Y-10252650D02*
X6629944Y-10262174D01*
X6629944Y-10262174D02*
X6639468Y-10281222D01*
X6639468Y-10281222D02*
X6639468Y-10300270D01*
X6639468Y-10300270D02*
X6544230Y-10319317D01*
X6715658Y-10376460D02*
X6734706Y-10385984D01*
X6734706Y-10385984D02*
X6772801Y-10385984D01*
X6772801Y-10385984D02*
X6791849Y-10376460D01*
X6791849Y-10376460D02*
X6801372Y-10357412D01*
X6801372Y-10357412D02*
X6801372Y-10347889D01*
X6801372Y-10347889D02*
X6791849Y-10328841D01*
X6791849Y-10328841D02*
X6772801Y-10319317D01*
X6772801Y-10319317D02*
X6744230Y-10319317D01*
X6744230Y-10319317D02*
X6725182Y-10309793D01*
X6725182Y-10309793D02*
X6715658Y-10290746D01*
X6715658Y-10290746D02*
X6715658Y-10281222D01*
X6715658Y-10281222D02*
X6725182Y-10262174D01*
X6725182Y-10262174D02*
X6744230Y-10252650D01*
X6744230Y-10252650D02*
X6772801Y-10252650D01*
X6772801Y-10252650D02*
X6791849Y-10262174D01*
X6868039Y-10462174D02*
X6877563Y-10452650D01*
X6877563Y-10452650D02*
X6896611Y-10424079D01*
X6896611Y-10424079D02*
X6906134Y-10405031D01*
X6906134Y-10405031D02*
X6915658Y-10376460D01*
X6915658Y-10376460D02*
X6925182Y-10328841D01*
X6925182Y-10328841D02*
X6925182Y-10290746D01*
X6925182Y-10290746D02*
X6915658Y-10243127D01*
X6915658Y-10243127D02*
X6906134Y-10214555D01*
X6906134Y-10214555D02*
X6896611Y-10195508D01*
X6896611Y-10195508D02*
X6877563Y-10166936D01*
X6877563Y-10166936D02*
X6868039Y-10157412D01*
D12*
X1902500Y-10558500D02*
G75*
G02*
X1852500Y-10558500I-25000J0D01*
G01*
X1852500Y-10558500D02*
G75*
G02*
X1902500Y-10558500I25000J0D01*
G01*
D11*
X2201372Y-10449984D02*
X2220420Y-10449984D01*
X2220420Y-10449984D02*
X2239467Y-10459508D01*
X2239467Y-10459508D02*
X2248991Y-10469031D01*
X2248991Y-10469031D02*
X2258515Y-10488079D01*
X2258515Y-10488079D02*
X2268039Y-10526174D01*
X2268039Y-10526174D02*
X2268039Y-10573793D01*
X2268039Y-10573793D02*
X2258515Y-10611889D01*
X2258515Y-10611889D02*
X2248991Y-10630936D01*
X2248991Y-10630936D02*
X2239467Y-10640460D01*
X2239467Y-10640460D02*
X2220420Y-10649984D01*
X2220420Y-10649984D02*
X2201372Y-10649984D01*
X2201372Y-10649984D02*
X2182324Y-10640460D01*
X2182324Y-10640460D02*
X2172801Y-10630936D01*
X2172801Y-10630936D02*
X2163277Y-10611889D01*
X2163277Y-10611889D02*
X2153753Y-10573793D01*
X2153753Y-10573793D02*
X2153753Y-10526174D01*
X2153753Y-10526174D02*
X2163277Y-10488079D01*
X2163277Y-10488079D02*
X2172801Y-10469031D01*
X2172801Y-10469031D02*
X2182324Y-10459508D01*
X2182324Y-10459508D02*
X2201372Y-10449984D01*
X2353753Y-10630936D02*
X2363277Y-10640460D01*
X2363277Y-10640460D02*
X2353753Y-10649984D01*
X2353753Y-10649984D02*
X2344229Y-10640460D01*
X2344229Y-10640460D02*
X2353753Y-10630936D01*
X2353753Y-10630936D02*
X2353753Y-10649984D01*
X2544229Y-10449984D02*
X2448991Y-10449984D01*
X2448991Y-10449984D02*
X2439467Y-10545222D01*
X2439467Y-10545222D02*
X2448991Y-10535698D01*
X2448991Y-10535698D02*
X2468039Y-10526174D01*
X2468039Y-10526174D02*
X2515658Y-10526174D01*
X2515658Y-10526174D02*
X2534705Y-10535698D01*
X2534705Y-10535698D02*
X2544229Y-10545222D01*
X2544229Y-10545222D02*
X2553753Y-10564270D01*
X2553753Y-10564270D02*
X2553753Y-10611889D01*
X2553753Y-10611889D02*
X2544229Y-10630936D01*
X2544229Y-10630936D02*
X2534705Y-10640460D01*
X2534705Y-10640460D02*
X2515658Y-10649984D01*
X2515658Y-10649984D02*
X2468039Y-10649984D01*
X2468039Y-10649984D02*
X2448991Y-10640460D01*
X2448991Y-10640460D02*
X2439467Y-10630936D01*
X2677563Y-10449984D02*
X2696610Y-10449984D01*
X2696610Y-10449984D02*
X2715658Y-10459508D01*
X2715658Y-10459508D02*
X2725182Y-10469031D01*
X2725182Y-10469031D02*
X2734705Y-10488079D01*
X2734705Y-10488079D02*
X2744229Y-10526174D01*
X2744229Y-10526174D02*
X2744229Y-10573793D01*
X2744229Y-10573793D02*
X2734705Y-10611889D01*
X2734705Y-10611889D02*
X2725182Y-10630936D01*
X2725182Y-10630936D02*
X2715658Y-10640460D01*
X2715658Y-10640460D02*
X2696610Y-10649984D01*
X2696610Y-10649984D02*
X2677563Y-10649984D01*
X2677563Y-10649984D02*
X2658515Y-10640460D01*
X2658515Y-10640460D02*
X2648991Y-10630936D01*
X2648991Y-10630936D02*
X2639467Y-10611889D01*
X2639467Y-10611889D02*
X2629944Y-10573793D01*
X2629944Y-10573793D02*
X2629944Y-10526174D01*
X2629944Y-10526174D02*
X2639467Y-10488079D01*
X2639467Y-10488079D02*
X2648991Y-10469031D01*
X2648991Y-10469031D02*
X2658515Y-10459508D01*
X2658515Y-10459508D02*
X2677563Y-10449984D01*
X2868039Y-10449984D02*
X2887086Y-10449984D01*
X2887086Y-10449984D02*
X2906134Y-10459508D01*
X2906134Y-10459508D02*
X2915658Y-10469031D01*
X2915658Y-10469031D02*
X2925182Y-10488079D01*
X2925182Y-10488079D02*
X2934705Y-10526174D01*
X2934705Y-10526174D02*
X2934705Y-10573793D01*
X2934705Y-10573793D02*
X2925182Y-10611889D01*
X2925182Y-10611889D02*
X2915658Y-10630936D01*
X2915658Y-10630936D02*
X2906134Y-10640460D01*
X2906134Y-10640460D02*
X2887086Y-10649984D01*
X2887086Y-10649984D02*
X2868039Y-10649984D01*
X2868039Y-10649984D02*
X2848991Y-10640460D01*
X2848991Y-10640460D02*
X2839467Y-10630936D01*
X2839467Y-10630936D02*
X2829943Y-10611889D01*
X2829943Y-10611889D02*
X2820420Y-10573793D01*
X2820420Y-10573793D02*
X2820420Y-10526174D01*
X2820420Y-10526174D02*
X2829943Y-10488079D01*
X2829943Y-10488079D02*
X2839467Y-10469031D01*
X2839467Y-10469031D02*
X2848991Y-10459508D01*
X2848991Y-10459508D02*
X2868039Y-10449984D01*
X3020420Y-10649984D02*
X3020420Y-10516650D01*
X3020420Y-10535698D02*
X3029943Y-10526174D01*
X3029943Y-10526174D02*
X3048991Y-10516650D01*
X3048991Y-10516650D02*
X3077563Y-10516650D01*
X3077563Y-10516650D02*
X3096610Y-10526174D01*
X3096610Y-10526174D02*
X3106134Y-10545222D01*
X3106134Y-10545222D02*
X3106134Y-10649984D01*
X3106134Y-10545222D02*
X3115658Y-10526174D01*
X3115658Y-10526174D02*
X3134705Y-10516650D01*
X3134705Y-10516650D02*
X3163277Y-10516650D01*
X3163277Y-10516650D02*
X3182324Y-10526174D01*
X3182324Y-10526174D02*
X3191848Y-10545222D01*
X3191848Y-10545222D02*
X3191848Y-10649984D01*
X3287086Y-10649984D02*
X3287086Y-10516650D01*
X3287086Y-10535698D02*
X3296610Y-10526174D01*
X3296610Y-10526174D02*
X3315658Y-10516650D01*
X3315658Y-10516650D02*
X3344229Y-10516650D01*
X3344229Y-10516650D02*
X3363277Y-10526174D01*
X3363277Y-10526174D02*
X3372801Y-10545222D01*
X3372801Y-10545222D02*
X3372801Y-10649984D01*
X3372801Y-10545222D02*
X3382324Y-10526174D01*
X3382324Y-10526174D02*
X3401372Y-10516650D01*
X3401372Y-10516650D02*
X3429943Y-10516650D01*
X3429943Y-10516650D02*
X3448991Y-10526174D01*
X3448991Y-10526174D02*
X3458515Y-10545222D01*
X3458515Y-10545222D02*
X3458515Y-10649984D01*
X3848991Y-10440460D02*
X3677563Y-10697603D01*
X4106134Y-10449984D02*
X4125182Y-10449984D01*
X4125182Y-10449984D02*
X4144229Y-10459508D01*
X4144229Y-10459508D02*
X4153753Y-10469031D01*
X4153753Y-10469031D02*
X4163277Y-10488079D01*
X4163277Y-10488079D02*
X4172801Y-10526174D01*
X4172801Y-10526174D02*
X4172801Y-10573793D01*
X4172801Y-10573793D02*
X4163277Y-10611889D01*
X4163277Y-10611889D02*
X4153753Y-10630936D01*
X4153753Y-10630936D02*
X4144229Y-10640460D01*
X4144229Y-10640460D02*
X4125182Y-10649984D01*
X4125182Y-10649984D02*
X4106134Y-10649984D01*
X4106134Y-10649984D02*
X4087086Y-10640460D01*
X4087086Y-10640460D02*
X4077563Y-10630936D01*
X4077563Y-10630936D02*
X4068039Y-10611889D01*
X4068039Y-10611889D02*
X4058515Y-10573793D01*
X4058515Y-10573793D02*
X4058515Y-10526174D01*
X4058515Y-10526174D02*
X4068039Y-10488079D01*
X4068039Y-10488079D02*
X4077563Y-10469031D01*
X4077563Y-10469031D02*
X4087086Y-10459508D01*
X4087086Y-10459508D02*
X4106134Y-10449984D01*
X4258515Y-10630936D02*
X4268039Y-10640460D01*
X4268039Y-10640460D02*
X4258515Y-10649984D01*
X4258515Y-10649984D02*
X4248991Y-10640460D01*
X4248991Y-10640460D02*
X4258515Y-10630936D01*
X4258515Y-10630936D02*
X4258515Y-10649984D01*
X4391848Y-10449984D02*
X4410896Y-10449984D01*
X4410896Y-10449984D02*
X4429944Y-10459508D01*
X4429944Y-10459508D02*
X4439468Y-10469031D01*
X4439468Y-10469031D02*
X4448991Y-10488079D01*
X4448991Y-10488079D02*
X4458515Y-10526174D01*
X4458515Y-10526174D02*
X4458515Y-10573793D01*
X4458515Y-10573793D02*
X4448991Y-10611889D01*
X4448991Y-10611889D02*
X4439468Y-10630936D01*
X4439468Y-10630936D02*
X4429944Y-10640460D01*
X4429944Y-10640460D02*
X4410896Y-10649984D01*
X4410896Y-10649984D02*
X4391848Y-10649984D01*
X4391848Y-10649984D02*
X4372801Y-10640460D01*
X4372801Y-10640460D02*
X4363277Y-10630936D01*
X4363277Y-10630936D02*
X4353753Y-10611889D01*
X4353753Y-10611889D02*
X4344229Y-10573793D01*
X4344229Y-10573793D02*
X4344229Y-10526174D01*
X4344229Y-10526174D02*
X4353753Y-10488079D01*
X4353753Y-10488079D02*
X4363277Y-10469031D01*
X4363277Y-10469031D02*
X4372801Y-10459508D01*
X4372801Y-10459508D02*
X4391848Y-10449984D01*
X4648991Y-10649984D02*
X4534706Y-10649984D01*
X4591848Y-10649984D02*
X4591848Y-10449984D01*
X4591848Y-10449984D02*
X4572801Y-10478555D01*
X4572801Y-10478555D02*
X4553753Y-10497603D01*
X4553753Y-10497603D02*
X4534706Y-10507127D01*
X4744229Y-10649984D02*
X4782325Y-10649984D01*
X4782325Y-10649984D02*
X4801372Y-10640460D01*
X4801372Y-10640460D02*
X4810896Y-10630936D01*
X4810896Y-10630936D02*
X4829944Y-10602365D01*
X4829944Y-10602365D02*
X4839468Y-10564270D01*
X4839468Y-10564270D02*
X4839468Y-10488079D01*
X4839468Y-10488079D02*
X4829944Y-10469031D01*
X4829944Y-10469031D02*
X4820420Y-10459508D01*
X4820420Y-10459508D02*
X4801372Y-10449984D01*
X4801372Y-10449984D02*
X4763277Y-10449984D01*
X4763277Y-10449984D02*
X4744229Y-10459508D01*
X4744229Y-10459508D02*
X4734706Y-10469031D01*
X4734706Y-10469031D02*
X4725182Y-10488079D01*
X4725182Y-10488079D02*
X4725182Y-10535698D01*
X4725182Y-10535698D02*
X4734706Y-10554746D01*
X4734706Y-10554746D02*
X4744229Y-10564270D01*
X4744229Y-10564270D02*
X4763277Y-10573793D01*
X4763277Y-10573793D02*
X4801372Y-10573793D01*
X4801372Y-10573793D02*
X4820420Y-10564270D01*
X4820420Y-10564270D02*
X4829944Y-10554746D01*
X4829944Y-10554746D02*
X4839468Y-10535698D01*
X4906134Y-10449984D02*
X5039468Y-10449984D01*
X5039468Y-10449984D02*
X4953753Y-10649984D01*
X5106134Y-10449984D02*
X5106134Y-10488079D01*
X5182325Y-10449984D02*
X5182325Y-10488079D01*
X5477563Y-10726174D02*
X5468039Y-10716650D01*
X5468039Y-10716650D02*
X5448991Y-10688079D01*
X5448991Y-10688079D02*
X5439468Y-10669031D01*
X5439468Y-10669031D02*
X5429944Y-10640460D01*
X5429944Y-10640460D02*
X5420420Y-10592841D01*
X5420420Y-10592841D02*
X5420420Y-10554746D01*
X5420420Y-10554746D02*
X5429944Y-10507127D01*
X5429944Y-10507127D02*
X5439468Y-10478555D01*
X5439468Y-10478555D02*
X5448991Y-10459508D01*
X5448991Y-10459508D02*
X5468039Y-10430936D01*
X5468039Y-10430936D02*
X5477563Y-10421412D01*
X5563277Y-10649984D02*
X5601372Y-10649984D01*
X5601372Y-10649984D02*
X5620420Y-10640460D01*
X5620420Y-10640460D02*
X5629944Y-10630936D01*
X5629944Y-10630936D02*
X5648991Y-10602365D01*
X5648991Y-10602365D02*
X5658515Y-10564270D01*
X5658515Y-10564270D02*
X5658515Y-10488079D01*
X5658515Y-10488079D02*
X5648991Y-10469031D01*
X5648991Y-10469031D02*
X5639468Y-10459508D01*
X5639468Y-10459508D02*
X5620420Y-10449984D01*
X5620420Y-10449984D02*
X5582325Y-10449984D01*
X5582325Y-10449984D02*
X5563277Y-10459508D01*
X5563277Y-10459508D02*
X5553753Y-10469031D01*
X5553753Y-10469031D02*
X5544230Y-10488079D01*
X5544230Y-10488079D02*
X5544230Y-10535698D01*
X5544230Y-10535698D02*
X5553753Y-10554746D01*
X5553753Y-10554746D02*
X5563277Y-10564270D01*
X5563277Y-10564270D02*
X5582325Y-10573793D01*
X5582325Y-10573793D02*
X5620420Y-10573793D01*
X5620420Y-10573793D02*
X5639468Y-10564270D01*
X5639468Y-10564270D02*
X5648991Y-10554746D01*
X5648991Y-10554746D02*
X5658515Y-10535698D01*
X5896610Y-10649984D02*
X5896610Y-10449984D01*
X5982325Y-10649984D02*
X5982325Y-10545222D01*
X5982325Y-10545222D02*
X5972801Y-10526174D01*
X5972801Y-10526174D02*
X5953753Y-10516650D01*
X5953753Y-10516650D02*
X5925182Y-10516650D01*
X5925182Y-10516650D02*
X5906134Y-10526174D01*
X5906134Y-10526174D02*
X5896610Y-10535698D01*
X6106134Y-10649984D02*
X6087087Y-10640460D01*
X6087087Y-10640460D02*
X6077563Y-10630936D01*
X6077563Y-10630936D02*
X6068039Y-10611889D01*
X6068039Y-10611889D02*
X6068039Y-10554746D01*
X6068039Y-10554746D02*
X6077563Y-10535698D01*
X6077563Y-10535698D02*
X6087087Y-10526174D01*
X6087087Y-10526174D02*
X6106134Y-10516650D01*
X6106134Y-10516650D02*
X6134706Y-10516650D01*
X6134706Y-10516650D02*
X6153753Y-10526174D01*
X6153753Y-10526174D02*
X6163277Y-10535698D01*
X6163277Y-10535698D02*
X6172801Y-10554746D01*
X6172801Y-10554746D02*
X6172801Y-10611889D01*
X6172801Y-10611889D02*
X6163277Y-10630936D01*
X6163277Y-10630936D02*
X6153753Y-10640460D01*
X6153753Y-10640460D02*
X6134706Y-10649984D01*
X6134706Y-10649984D02*
X6106134Y-10649984D01*
X6287087Y-10649984D02*
X6268039Y-10640460D01*
X6268039Y-10640460D02*
X6258515Y-10621412D01*
X6258515Y-10621412D02*
X6258515Y-10449984D01*
X6439468Y-10640460D02*
X6420420Y-10649984D01*
X6420420Y-10649984D02*
X6382325Y-10649984D01*
X6382325Y-10649984D02*
X6363277Y-10640460D01*
X6363277Y-10640460D02*
X6353753Y-10621412D01*
X6353753Y-10621412D02*
X6353753Y-10545222D01*
X6353753Y-10545222D02*
X6363277Y-10526174D01*
X6363277Y-10526174D02*
X6382325Y-10516650D01*
X6382325Y-10516650D02*
X6420420Y-10516650D01*
X6420420Y-10516650D02*
X6439468Y-10526174D01*
X6439468Y-10526174D02*
X6448991Y-10545222D01*
X6448991Y-10545222D02*
X6448991Y-10564270D01*
X6448991Y-10564270D02*
X6353753Y-10583317D01*
X6525182Y-10640460D02*
X6544230Y-10649984D01*
X6544230Y-10649984D02*
X6582325Y-10649984D01*
X6582325Y-10649984D02*
X6601372Y-10640460D01*
X6601372Y-10640460D02*
X6610896Y-10621412D01*
X6610896Y-10621412D02*
X6610896Y-10611889D01*
X6610896Y-10611889D02*
X6601372Y-10592841D01*
X6601372Y-10592841D02*
X6582325Y-10583317D01*
X6582325Y-10583317D02*
X6553753Y-10583317D01*
X6553753Y-10583317D02*
X6534706Y-10573793D01*
X6534706Y-10573793D02*
X6525182Y-10554746D01*
X6525182Y-10554746D02*
X6525182Y-10545222D01*
X6525182Y-10545222D02*
X6534706Y-10526174D01*
X6534706Y-10526174D02*
X6553753Y-10516650D01*
X6553753Y-10516650D02*
X6582325Y-10516650D01*
X6582325Y-10516650D02*
X6601372Y-10526174D01*
X6677563Y-10726174D02*
X6687087Y-10716650D01*
X6687087Y-10716650D02*
X6706134Y-10688079D01*
X6706134Y-10688079D02*
X6715658Y-10669031D01*
X6715658Y-10669031D02*
X6725182Y-10640460D01*
X6725182Y-10640460D02*
X6734706Y-10592841D01*
X6734706Y-10592841D02*
X6734706Y-10554746D01*
X6734706Y-10554746D02*
X6725182Y-10507127D01*
X6725182Y-10507127D02*
X6715658Y-10478555D01*
X6715658Y-10478555D02*
X6706134Y-10459508D01*
X6706134Y-10459508D02*
X6687087Y-10430936D01*
X6687087Y-10430936D02*
X6677563Y-10421412D01*
D12*
X1872500Y-10792500D02*
X1872500Y-10852500D01*
X1842500Y-10822500D02*
X1902500Y-10822500D01*
D11*
X2201372Y-10713984D02*
X2220420Y-10713984D01*
X2220420Y-10713984D02*
X2239467Y-10723508D01*
X2239467Y-10723508D02*
X2248991Y-10733031D01*
X2248991Y-10733031D02*
X2258515Y-10752079D01*
X2258515Y-10752079D02*
X2268039Y-10790174D01*
X2268039Y-10790174D02*
X2268039Y-10837793D01*
X2268039Y-10837793D02*
X2258515Y-10875889D01*
X2258515Y-10875889D02*
X2248991Y-10894936D01*
X2248991Y-10894936D02*
X2239467Y-10904460D01*
X2239467Y-10904460D02*
X2220420Y-10913984D01*
X2220420Y-10913984D02*
X2201372Y-10913984D01*
X2201372Y-10913984D02*
X2182324Y-10904460D01*
X2182324Y-10904460D02*
X2172801Y-10894936D01*
X2172801Y-10894936D02*
X2163277Y-10875889D01*
X2163277Y-10875889D02*
X2153753Y-10837793D01*
X2153753Y-10837793D02*
X2153753Y-10790174D01*
X2153753Y-10790174D02*
X2163277Y-10752079D01*
X2163277Y-10752079D02*
X2172801Y-10733031D01*
X2172801Y-10733031D02*
X2182324Y-10723508D01*
X2182324Y-10723508D02*
X2201372Y-10713984D01*
X2353753Y-10894936D02*
X2363277Y-10904460D01*
X2363277Y-10904460D02*
X2353753Y-10913984D01*
X2353753Y-10913984D02*
X2344229Y-10904460D01*
X2344229Y-10904460D02*
X2353753Y-10894936D01*
X2353753Y-10894936D02*
X2353753Y-10913984D01*
X2534705Y-10713984D02*
X2496610Y-10713984D01*
X2496610Y-10713984D02*
X2477563Y-10723508D01*
X2477563Y-10723508D02*
X2468039Y-10733031D01*
X2468039Y-10733031D02*
X2448991Y-10761603D01*
X2448991Y-10761603D02*
X2439467Y-10799698D01*
X2439467Y-10799698D02*
X2439467Y-10875889D01*
X2439467Y-10875889D02*
X2448991Y-10894936D01*
X2448991Y-10894936D02*
X2458515Y-10904460D01*
X2458515Y-10904460D02*
X2477563Y-10913984D01*
X2477563Y-10913984D02*
X2515658Y-10913984D01*
X2515658Y-10913984D02*
X2534705Y-10904460D01*
X2534705Y-10904460D02*
X2544229Y-10894936D01*
X2544229Y-10894936D02*
X2553753Y-10875889D01*
X2553753Y-10875889D02*
X2553753Y-10828270D01*
X2553753Y-10828270D02*
X2544229Y-10809222D01*
X2544229Y-10809222D02*
X2534705Y-10799698D01*
X2534705Y-10799698D02*
X2515658Y-10790174D01*
X2515658Y-10790174D02*
X2477563Y-10790174D01*
X2477563Y-10790174D02*
X2458515Y-10799698D01*
X2458515Y-10799698D02*
X2448991Y-10809222D01*
X2448991Y-10809222D02*
X2439467Y-10828270D01*
X2677563Y-10713984D02*
X2696610Y-10713984D01*
X2696610Y-10713984D02*
X2715658Y-10723508D01*
X2715658Y-10723508D02*
X2725182Y-10733031D01*
X2725182Y-10733031D02*
X2734705Y-10752079D01*
X2734705Y-10752079D02*
X2744229Y-10790174D01*
X2744229Y-10790174D02*
X2744229Y-10837793D01*
X2744229Y-10837793D02*
X2734705Y-10875889D01*
X2734705Y-10875889D02*
X2725182Y-10894936D01*
X2725182Y-10894936D02*
X2715658Y-10904460D01*
X2715658Y-10904460D02*
X2696610Y-10913984D01*
X2696610Y-10913984D02*
X2677563Y-10913984D01*
X2677563Y-10913984D02*
X2658515Y-10904460D01*
X2658515Y-10904460D02*
X2648991Y-10894936D01*
X2648991Y-10894936D02*
X2639467Y-10875889D01*
X2639467Y-10875889D02*
X2629944Y-10837793D01*
X2629944Y-10837793D02*
X2629944Y-10790174D01*
X2629944Y-10790174D02*
X2639467Y-10752079D01*
X2639467Y-10752079D02*
X2648991Y-10733031D01*
X2648991Y-10733031D02*
X2658515Y-10723508D01*
X2658515Y-10723508D02*
X2677563Y-10713984D01*
X2868039Y-10713984D02*
X2887086Y-10713984D01*
X2887086Y-10713984D02*
X2906134Y-10723508D01*
X2906134Y-10723508D02*
X2915658Y-10733031D01*
X2915658Y-10733031D02*
X2925182Y-10752079D01*
X2925182Y-10752079D02*
X2934705Y-10790174D01*
X2934705Y-10790174D02*
X2934705Y-10837793D01*
X2934705Y-10837793D02*
X2925182Y-10875889D01*
X2925182Y-10875889D02*
X2915658Y-10894936D01*
X2915658Y-10894936D02*
X2906134Y-10904460D01*
X2906134Y-10904460D02*
X2887086Y-10913984D01*
X2887086Y-10913984D02*
X2868039Y-10913984D01*
X2868039Y-10913984D02*
X2848991Y-10904460D01*
X2848991Y-10904460D02*
X2839467Y-10894936D01*
X2839467Y-10894936D02*
X2829943Y-10875889D01*
X2829943Y-10875889D02*
X2820420Y-10837793D01*
X2820420Y-10837793D02*
X2820420Y-10790174D01*
X2820420Y-10790174D02*
X2829943Y-10752079D01*
X2829943Y-10752079D02*
X2839467Y-10733031D01*
X2839467Y-10733031D02*
X2848991Y-10723508D01*
X2848991Y-10723508D02*
X2868039Y-10713984D01*
X3020420Y-10913984D02*
X3020420Y-10780650D01*
X3020420Y-10799698D02*
X3029943Y-10790174D01*
X3029943Y-10790174D02*
X3048991Y-10780650D01*
X3048991Y-10780650D02*
X3077563Y-10780650D01*
X3077563Y-10780650D02*
X3096610Y-10790174D01*
X3096610Y-10790174D02*
X3106134Y-10809222D01*
X3106134Y-10809222D02*
X3106134Y-10913984D01*
X3106134Y-10809222D02*
X3115658Y-10790174D01*
X3115658Y-10790174D02*
X3134705Y-10780650D01*
X3134705Y-10780650D02*
X3163277Y-10780650D01*
X3163277Y-10780650D02*
X3182324Y-10790174D01*
X3182324Y-10790174D02*
X3191848Y-10809222D01*
X3191848Y-10809222D02*
X3191848Y-10913984D01*
X3287086Y-10913984D02*
X3287086Y-10780650D01*
X3287086Y-10799698D02*
X3296610Y-10790174D01*
X3296610Y-10790174D02*
X3315658Y-10780650D01*
X3315658Y-10780650D02*
X3344229Y-10780650D01*
X3344229Y-10780650D02*
X3363277Y-10790174D01*
X3363277Y-10790174D02*
X3372801Y-10809222D01*
X3372801Y-10809222D02*
X3372801Y-10913984D01*
X3372801Y-10809222D02*
X3382324Y-10790174D01*
X3382324Y-10790174D02*
X3401372Y-10780650D01*
X3401372Y-10780650D02*
X3429943Y-10780650D01*
X3429943Y-10780650D02*
X3448991Y-10790174D01*
X3448991Y-10790174D02*
X3458515Y-10809222D01*
X3458515Y-10809222D02*
X3458515Y-10913984D01*
X3848991Y-10704460D02*
X3677563Y-10961603D01*
X4106134Y-10713984D02*
X4125182Y-10713984D01*
X4125182Y-10713984D02*
X4144229Y-10723508D01*
X4144229Y-10723508D02*
X4153753Y-10733031D01*
X4153753Y-10733031D02*
X4163277Y-10752079D01*
X4163277Y-10752079D02*
X4172801Y-10790174D01*
X4172801Y-10790174D02*
X4172801Y-10837793D01*
X4172801Y-10837793D02*
X4163277Y-10875889D01*
X4163277Y-10875889D02*
X4153753Y-10894936D01*
X4153753Y-10894936D02*
X4144229Y-10904460D01*
X4144229Y-10904460D02*
X4125182Y-10913984D01*
X4125182Y-10913984D02*
X4106134Y-10913984D01*
X4106134Y-10913984D02*
X4087086Y-10904460D01*
X4087086Y-10904460D02*
X4077563Y-10894936D01*
X4077563Y-10894936D02*
X4068039Y-10875889D01*
X4068039Y-10875889D02*
X4058515Y-10837793D01*
X4058515Y-10837793D02*
X4058515Y-10790174D01*
X4058515Y-10790174D02*
X4068039Y-10752079D01*
X4068039Y-10752079D02*
X4077563Y-10733031D01*
X4077563Y-10733031D02*
X4087086Y-10723508D01*
X4087086Y-10723508D02*
X4106134Y-10713984D01*
X4258515Y-10894936D02*
X4268039Y-10904460D01*
X4268039Y-10904460D02*
X4258515Y-10913984D01*
X4258515Y-10913984D02*
X4248991Y-10904460D01*
X4248991Y-10904460D02*
X4258515Y-10894936D01*
X4258515Y-10894936D02*
X4258515Y-10913984D01*
X4391848Y-10713984D02*
X4410896Y-10713984D01*
X4410896Y-10713984D02*
X4429944Y-10723508D01*
X4429944Y-10723508D02*
X4439468Y-10733031D01*
X4439468Y-10733031D02*
X4448991Y-10752079D01*
X4448991Y-10752079D02*
X4458515Y-10790174D01*
X4458515Y-10790174D02*
X4458515Y-10837793D01*
X4458515Y-10837793D02*
X4448991Y-10875889D01*
X4448991Y-10875889D02*
X4439468Y-10894936D01*
X4439468Y-10894936D02*
X4429944Y-10904460D01*
X4429944Y-10904460D02*
X4410896Y-10913984D01*
X4410896Y-10913984D02*
X4391848Y-10913984D01*
X4391848Y-10913984D02*
X4372801Y-10904460D01*
X4372801Y-10904460D02*
X4363277Y-10894936D01*
X4363277Y-10894936D02*
X4353753Y-10875889D01*
X4353753Y-10875889D02*
X4344229Y-10837793D01*
X4344229Y-10837793D02*
X4344229Y-10790174D01*
X4344229Y-10790174D02*
X4353753Y-10752079D01*
X4353753Y-10752079D02*
X4363277Y-10733031D01*
X4363277Y-10733031D02*
X4372801Y-10723508D01*
X4372801Y-10723508D02*
X4391848Y-10713984D01*
X4534706Y-10733031D02*
X4544229Y-10723508D01*
X4544229Y-10723508D02*
X4563277Y-10713984D01*
X4563277Y-10713984D02*
X4610896Y-10713984D01*
X4610896Y-10713984D02*
X4629944Y-10723508D01*
X4629944Y-10723508D02*
X4639468Y-10733031D01*
X4639468Y-10733031D02*
X4648991Y-10752079D01*
X4648991Y-10752079D02*
X4648991Y-10771127D01*
X4648991Y-10771127D02*
X4639468Y-10799698D01*
X4639468Y-10799698D02*
X4525182Y-10913984D01*
X4525182Y-10913984D02*
X4648991Y-10913984D01*
X4715658Y-10713984D02*
X4839468Y-10713984D01*
X4839468Y-10713984D02*
X4772801Y-10790174D01*
X4772801Y-10790174D02*
X4801372Y-10790174D01*
X4801372Y-10790174D02*
X4820420Y-10799698D01*
X4820420Y-10799698D02*
X4829944Y-10809222D01*
X4829944Y-10809222D02*
X4839468Y-10828270D01*
X4839468Y-10828270D02*
X4839468Y-10875889D01*
X4839468Y-10875889D02*
X4829944Y-10894936D01*
X4829944Y-10894936D02*
X4820420Y-10904460D01*
X4820420Y-10904460D02*
X4801372Y-10913984D01*
X4801372Y-10913984D02*
X4744229Y-10913984D01*
X4744229Y-10913984D02*
X4725182Y-10904460D01*
X4725182Y-10904460D02*
X4715658Y-10894936D01*
X5010896Y-10713984D02*
X4972801Y-10713984D01*
X4972801Y-10713984D02*
X4953753Y-10723508D01*
X4953753Y-10723508D02*
X4944229Y-10733031D01*
X4944229Y-10733031D02*
X4925182Y-10761603D01*
X4925182Y-10761603D02*
X4915658Y-10799698D01*
X4915658Y-10799698D02*
X4915658Y-10875889D01*
X4915658Y-10875889D02*
X4925182Y-10894936D01*
X4925182Y-10894936D02*
X4934706Y-10904460D01*
X4934706Y-10904460D02*
X4953753Y-10913984D01*
X4953753Y-10913984D02*
X4991849Y-10913984D01*
X4991849Y-10913984D02*
X5010896Y-10904460D01*
X5010896Y-10904460D02*
X5020420Y-10894936D01*
X5020420Y-10894936D02*
X5029944Y-10875889D01*
X5029944Y-10875889D02*
X5029944Y-10828270D01*
X5029944Y-10828270D02*
X5020420Y-10809222D01*
X5020420Y-10809222D02*
X5010896Y-10799698D01*
X5010896Y-10799698D02*
X4991849Y-10790174D01*
X4991849Y-10790174D02*
X4953753Y-10790174D01*
X4953753Y-10790174D02*
X4934706Y-10799698D01*
X4934706Y-10799698D02*
X4925182Y-10809222D01*
X4925182Y-10809222D02*
X4915658Y-10828270D01*
X5106134Y-10713984D02*
X5106134Y-10752079D01*
X5182325Y-10713984D02*
X5182325Y-10752079D01*
X5477563Y-10990174D02*
X5468039Y-10980650D01*
X5468039Y-10980650D02*
X5448991Y-10952079D01*
X5448991Y-10952079D02*
X5439468Y-10933031D01*
X5439468Y-10933031D02*
X5429944Y-10904460D01*
X5429944Y-10904460D02*
X5420420Y-10856841D01*
X5420420Y-10856841D02*
X5420420Y-10818746D01*
X5420420Y-10818746D02*
X5429944Y-10771127D01*
X5429944Y-10771127D02*
X5439468Y-10742555D01*
X5439468Y-10742555D02*
X5448991Y-10723508D01*
X5448991Y-10723508D02*
X5468039Y-10694936D01*
X5468039Y-10694936D02*
X5477563Y-10685412D01*
X5639468Y-10780650D02*
X5639468Y-10913984D01*
X5591849Y-10704460D02*
X5544230Y-10847317D01*
X5544230Y-10847317D02*
X5668039Y-10847317D01*
X5896610Y-10913984D02*
X5896610Y-10713984D01*
X5982325Y-10913984D02*
X5982325Y-10809222D01*
X5982325Y-10809222D02*
X5972801Y-10790174D01*
X5972801Y-10790174D02*
X5953753Y-10780650D01*
X5953753Y-10780650D02*
X5925182Y-10780650D01*
X5925182Y-10780650D02*
X5906134Y-10790174D01*
X5906134Y-10790174D02*
X5896610Y-10799698D01*
X6106134Y-10913984D02*
X6087087Y-10904460D01*
X6087087Y-10904460D02*
X6077563Y-10894936D01*
X6077563Y-10894936D02*
X6068039Y-10875889D01*
X6068039Y-10875889D02*
X6068039Y-10818746D01*
X6068039Y-10818746D02*
X6077563Y-10799698D01*
X6077563Y-10799698D02*
X6087087Y-10790174D01*
X6087087Y-10790174D02*
X6106134Y-10780650D01*
X6106134Y-10780650D02*
X6134706Y-10780650D01*
X6134706Y-10780650D02*
X6153753Y-10790174D01*
X6153753Y-10790174D02*
X6163277Y-10799698D01*
X6163277Y-10799698D02*
X6172801Y-10818746D01*
X6172801Y-10818746D02*
X6172801Y-10875889D01*
X6172801Y-10875889D02*
X6163277Y-10894936D01*
X6163277Y-10894936D02*
X6153753Y-10904460D01*
X6153753Y-10904460D02*
X6134706Y-10913984D01*
X6134706Y-10913984D02*
X6106134Y-10913984D01*
X6287087Y-10913984D02*
X6268039Y-10904460D01*
X6268039Y-10904460D02*
X6258515Y-10885412D01*
X6258515Y-10885412D02*
X6258515Y-10713984D01*
X6439468Y-10904460D02*
X6420420Y-10913984D01*
X6420420Y-10913984D02*
X6382325Y-10913984D01*
X6382325Y-10913984D02*
X6363277Y-10904460D01*
X6363277Y-10904460D02*
X6353753Y-10885412D01*
X6353753Y-10885412D02*
X6353753Y-10809222D01*
X6353753Y-10809222D02*
X6363277Y-10790174D01*
X6363277Y-10790174D02*
X6382325Y-10780650D01*
X6382325Y-10780650D02*
X6420420Y-10780650D01*
X6420420Y-10780650D02*
X6439468Y-10790174D01*
X6439468Y-10790174D02*
X6448991Y-10809222D01*
X6448991Y-10809222D02*
X6448991Y-10828270D01*
X6448991Y-10828270D02*
X6353753Y-10847317D01*
X6525182Y-10904460D02*
X6544230Y-10913984D01*
X6544230Y-10913984D02*
X6582325Y-10913984D01*
X6582325Y-10913984D02*
X6601372Y-10904460D01*
X6601372Y-10904460D02*
X6610896Y-10885412D01*
X6610896Y-10885412D02*
X6610896Y-10875889D01*
X6610896Y-10875889D02*
X6601372Y-10856841D01*
X6601372Y-10856841D02*
X6582325Y-10847317D01*
X6582325Y-10847317D02*
X6553753Y-10847317D01*
X6553753Y-10847317D02*
X6534706Y-10837793D01*
X6534706Y-10837793D02*
X6525182Y-10818746D01*
X6525182Y-10818746D02*
X6525182Y-10809222D01*
X6525182Y-10809222D02*
X6534706Y-10790174D01*
X6534706Y-10790174D02*
X6553753Y-10780650D01*
X6553753Y-10780650D02*
X6582325Y-10780650D01*
X6582325Y-10780650D02*
X6601372Y-10790174D01*
X6677563Y-10990174D02*
X6687087Y-10980650D01*
X6687087Y-10980650D02*
X6706134Y-10952079D01*
X6706134Y-10952079D02*
X6715658Y-10933031D01*
X6715658Y-10933031D02*
X6725182Y-10904460D01*
X6725182Y-10904460D02*
X6734706Y-10856841D01*
X6734706Y-10856841D02*
X6734706Y-10818746D01*
X6734706Y-10818746D02*
X6725182Y-10771127D01*
X6725182Y-10771127D02*
X6715658Y-10742555D01*
X6715658Y-10742555D02*
X6706134Y-10723508D01*
X6706134Y-10723508D02*
X6687087Y-10694936D01*
X6687087Y-10694936D02*
X6677563Y-10685412D01*
D12*
X1891517Y-11113017D02*
X1891517Y-11059983D01*
X1838483Y-11059983D01*
X1838483Y-11113017D01*
X1891517Y-11113017D01*
D11*
X2201372Y-10977984D02*
X2220420Y-10977984D01*
X2220420Y-10977984D02*
X2239467Y-10987508D01*
X2239467Y-10987508D02*
X2248991Y-10997031D01*
X2248991Y-10997031D02*
X2258515Y-11016079D01*
X2258515Y-11016079D02*
X2268039Y-11054174D01*
X2268039Y-11054174D02*
X2268039Y-11101793D01*
X2268039Y-11101793D02*
X2258515Y-11139889D01*
X2258515Y-11139889D02*
X2248991Y-11158936D01*
X2248991Y-11158936D02*
X2239467Y-11168460D01*
X2239467Y-11168460D02*
X2220420Y-11177984D01*
X2220420Y-11177984D02*
X2201372Y-11177984D01*
X2201372Y-11177984D02*
X2182324Y-11168460D01*
X2182324Y-11168460D02*
X2172801Y-11158936D01*
X2172801Y-11158936D02*
X2163277Y-11139889D01*
X2163277Y-11139889D02*
X2153753Y-11101793D01*
X2153753Y-11101793D02*
X2153753Y-11054174D01*
X2153753Y-11054174D02*
X2163277Y-11016079D01*
X2163277Y-11016079D02*
X2172801Y-10997031D01*
X2172801Y-10997031D02*
X2182324Y-10987508D01*
X2182324Y-10987508D02*
X2201372Y-10977984D01*
X2353753Y-11158936D02*
X2363277Y-11168460D01*
X2363277Y-11168460D02*
X2353753Y-11177984D01*
X2353753Y-11177984D02*
X2344229Y-11168460D01*
X2344229Y-11168460D02*
X2353753Y-11158936D01*
X2353753Y-11158936D02*
X2353753Y-11177984D01*
X2429944Y-10977984D02*
X2563277Y-10977984D01*
X2563277Y-10977984D02*
X2477563Y-11177984D01*
X2734705Y-10977984D02*
X2639467Y-10977984D01*
X2639467Y-10977984D02*
X2629944Y-11073222D01*
X2629944Y-11073222D02*
X2639467Y-11063698D01*
X2639467Y-11063698D02*
X2658515Y-11054174D01*
X2658515Y-11054174D02*
X2706134Y-11054174D01*
X2706134Y-11054174D02*
X2725182Y-11063698D01*
X2725182Y-11063698D02*
X2734705Y-11073222D01*
X2734705Y-11073222D02*
X2744229Y-11092270D01*
X2744229Y-11092270D02*
X2744229Y-11139889D01*
X2744229Y-11139889D02*
X2734705Y-11158936D01*
X2734705Y-11158936D02*
X2725182Y-11168460D01*
X2725182Y-11168460D02*
X2706134Y-11177984D01*
X2706134Y-11177984D02*
X2658515Y-11177984D01*
X2658515Y-11177984D02*
X2639467Y-11168460D01*
X2639467Y-11168460D02*
X2629944Y-11158936D01*
X2868039Y-10977984D02*
X2887086Y-10977984D01*
X2887086Y-10977984D02*
X2906134Y-10987508D01*
X2906134Y-10987508D02*
X2915658Y-10997031D01*
X2915658Y-10997031D02*
X2925182Y-11016079D01*
X2925182Y-11016079D02*
X2934705Y-11054174D01*
X2934705Y-11054174D02*
X2934705Y-11101793D01*
X2934705Y-11101793D02*
X2925182Y-11139889D01*
X2925182Y-11139889D02*
X2915658Y-11158936D01*
X2915658Y-11158936D02*
X2906134Y-11168460D01*
X2906134Y-11168460D02*
X2887086Y-11177984D01*
X2887086Y-11177984D02*
X2868039Y-11177984D01*
X2868039Y-11177984D02*
X2848991Y-11168460D01*
X2848991Y-11168460D02*
X2839467Y-11158936D01*
X2839467Y-11158936D02*
X2829943Y-11139889D01*
X2829943Y-11139889D02*
X2820420Y-11101793D01*
X2820420Y-11101793D02*
X2820420Y-11054174D01*
X2820420Y-11054174D02*
X2829943Y-11016079D01*
X2829943Y-11016079D02*
X2839467Y-10997031D01*
X2839467Y-10997031D02*
X2848991Y-10987508D01*
X2848991Y-10987508D02*
X2868039Y-10977984D01*
X3020420Y-11177984D02*
X3020420Y-11044650D01*
X3020420Y-11063698D02*
X3029943Y-11054174D01*
X3029943Y-11054174D02*
X3048991Y-11044650D01*
X3048991Y-11044650D02*
X3077563Y-11044650D01*
X3077563Y-11044650D02*
X3096610Y-11054174D01*
X3096610Y-11054174D02*
X3106134Y-11073222D01*
X3106134Y-11073222D02*
X3106134Y-11177984D01*
X3106134Y-11073222D02*
X3115658Y-11054174D01*
X3115658Y-11054174D02*
X3134705Y-11044650D01*
X3134705Y-11044650D02*
X3163277Y-11044650D01*
X3163277Y-11044650D02*
X3182324Y-11054174D01*
X3182324Y-11054174D02*
X3191848Y-11073222D01*
X3191848Y-11073222D02*
X3191848Y-11177984D01*
X3287086Y-11177984D02*
X3287086Y-11044650D01*
X3287086Y-11063698D02*
X3296610Y-11054174D01*
X3296610Y-11054174D02*
X3315658Y-11044650D01*
X3315658Y-11044650D02*
X3344229Y-11044650D01*
X3344229Y-11044650D02*
X3363277Y-11054174D01*
X3363277Y-11054174D02*
X3372801Y-11073222D01*
X3372801Y-11073222D02*
X3372801Y-11177984D01*
X3372801Y-11073222D02*
X3382324Y-11054174D01*
X3382324Y-11054174D02*
X3401372Y-11044650D01*
X3401372Y-11044650D02*
X3429943Y-11044650D01*
X3429943Y-11044650D02*
X3448991Y-11054174D01*
X3448991Y-11054174D02*
X3458515Y-11073222D01*
X3458515Y-11073222D02*
X3458515Y-11177984D01*
X3848991Y-10968460D02*
X3677563Y-11225603D01*
X4106134Y-10977984D02*
X4125182Y-10977984D01*
X4125182Y-10977984D02*
X4144229Y-10987508D01*
X4144229Y-10987508D02*
X4153753Y-10997031D01*
X4153753Y-10997031D02*
X4163277Y-11016079D01*
X4163277Y-11016079D02*
X4172801Y-11054174D01*
X4172801Y-11054174D02*
X4172801Y-11101793D01*
X4172801Y-11101793D02*
X4163277Y-11139889D01*
X4163277Y-11139889D02*
X4153753Y-11158936D01*
X4153753Y-11158936D02*
X4144229Y-11168460D01*
X4144229Y-11168460D02*
X4125182Y-11177984D01*
X4125182Y-11177984D02*
X4106134Y-11177984D01*
X4106134Y-11177984D02*
X4087086Y-11168460D01*
X4087086Y-11168460D02*
X4077563Y-11158936D01*
X4077563Y-11158936D02*
X4068039Y-11139889D01*
X4068039Y-11139889D02*
X4058515Y-11101793D01*
X4058515Y-11101793D02*
X4058515Y-11054174D01*
X4058515Y-11054174D02*
X4068039Y-11016079D01*
X4068039Y-11016079D02*
X4077563Y-10997031D01*
X4077563Y-10997031D02*
X4087086Y-10987508D01*
X4087086Y-10987508D02*
X4106134Y-10977984D01*
X4258515Y-11158936D02*
X4268039Y-11168460D01*
X4268039Y-11168460D02*
X4258515Y-11177984D01*
X4258515Y-11177984D02*
X4248991Y-11168460D01*
X4248991Y-11168460D02*
X4258515Y-11158936D01*
X4258515Y-11158936D02*
X4258515Y-11177984D01*
X4391848Y-10977984D02*
X4410896Y-10977984D01*
X4410896Y-10977984D02*
X4429944Y-10987508D01*
X4429944Y-10987508D02*
X4439468Y-10997031D01*
X4439468Y-10997031D02*
X4448991Y-11016079D01*
X4448991Y-11016079D02*
X4458515Y-11054174D01*
X4458515Y-11054174D02*
X4458515Y-11101793D01*
X4458515Y-11101793D02*
X4448991Y-11139889D01*
X4448991Y-11139889D02*
X4439468Y-11158936D01*
X4439468Y-11158936D02*
X4429944Y-11168460D01*
X4429944Y-11168460D02*
X4410896Y-11177984D01*
X4410896Y-11177984D02*
X4391848Y-11177984D01*
X4391848Y-11177984D02*
X4372801Y-11168460D01*
X4372801Y-11168460D02*
X4363277Y-11158936D01*
X4363277Y-11158936D02*
X4353753Y-11139889D01*
X4353753Y-11139889D02*
X4344229Y-11101793D01*
X4344229Y-11101793D02*
X4344229Y-11054174D01*
X4344229Y-11054174D02*
X4353753Y-11016079D01*
X4353753Y-11016079D02*
X4363277Y-10997031D01*
X4363277Y-10997031D02*
X4372801Y-10987508D01*
X4372801Y-10987508D02*
X4391848Y-10977984D01*
X4534706Y-10997031D02*
X4544229Y-10987508D01*
X4544229Y-10987508D02*
X4563277Y-10977984D01*
X4563277Y-10977984D02*
X4610896Y-10977984D01*
X4610896Y-10977984D02*
X4629944Y-10987508D01*
X4629944Y-10987508D02*
X4639468Y-10997031D01*
X4639468Y-10997031D02*
X4648991Y-11016079D01*
X4648991Y-11016079D02*
X4648991Y-11035127D01*
X4648991Y-11035127D02*
X4639468Y-11063698D01*
X4639468Y-11063698D02*
X4525182Y-11177984D01*
X4525182Y-11177984D02*
X4648991Y-11177984D01*
X4744229Y-11177984D02*
X4782325Y-11177984D01*
X4782325Y-11177984D02*
X4801372Y-11168460D01*
X4801372Y-11168460D02*
X4810896Y-11158936D01*
X4810896Y-11158936D02*
X4829944Y-11130365D01*
X4829944Y-11130365D02*
X4839468Y-11092270D01*
X4839468Y-11092270D02*
X4839468Y-11016079D01*
X4839468Y-11016079D02*
X4829944Y-10997031D01*
X4829944Y-10997031D02*
X4820420Y-10987508D01*
X4820420Y-10987508D02*
X4801372Y-10977984D01*
X4801372Y-10977984D02*
X4763277Y-10977984D01*
X4763277Y-10977984D02*
X4744229Y-10987508D01*
X4744229Y-10987508D02*
X4734706Y-10997031D01*
X4734706Y-10997031D02*
X4725182Y-11016079D01*
X4725182Y-11016079D02*
X4725182Y-11063698D01*
X4725182Y-11063698D02*
X4734706Y-11082746D01*
X4734706Y-11082746D02*
X4744229Y-11092270D01*
X4744229Y-11092270D02*
X4763277Y-11101793D01*
X4763277Y-11101793D02*
X4801372Y-11101793D01*
X4801372Y-11101793D02*
X4820420Y-11092270D01*
X4820420Y-11092270D02*
X4829944Y-11082746D01*
X4829944Y-11082746D02*
X4839468Y-11063698D01*
X5020420Y-10977984D02*
X4925182Y-10977984D01*
X4925182Y-10977984D02*
X4915658Y-11073222D01*
X4915658Y-11073222D02*
X4925182Y-11063698D01*
X4925182Y-11063698D02*
X4944229Y-11054174D01*
X4944229Y-11054174D02*
X4991849Y-11054174D01*
X4991849Y-11054174D02*
X5010896Y-11063698D01*
X5010896Y-11063698D02*
X5020420Y-11073222D01*
X5020420Y-11073222D02*
X5029944Y-11092270D01*
X5029944Y-11092270D02*
X5029944Y-11139889D01*
X5029944Y-11139889D02*
X5020420Y-11158936D01*
X5020420Y-11158936D02*
X5010896Y-11168460D01*
X5010896Y-11168460D02*
X4991849Y-11177984D01*
X4991849Y-11177984D02*
X4944229Y-11177984D01*
X4944229Y-11177984D02*
X4925182Y-11168460D01*
X4925182Y-11168460D02*
X4915658Y-11158936D01*
X5106134Y-10977984D02*
X5106134Y-11016079D01*
X5182325Y-10977984D02*
X5182325Y-11016079D01*
X5477563Y-11254174D02*
X5468039Y-11244650D01*
X5468039Y-11244650D02*
X5448991Y-11216079D01*
X5448991Y-11216079D02*
X5439468Y-11197031D01*
X5439468Y-11197031D02*
X5429944Y-11168460D01*
X5429944Y-11168460D02*
X5420420Y-11120841D01*
X5420420Y-11120841D02*
X5420420Y-11082746D01*
X5420420Y-11082746D02*
X5429944Y-11035127D01*
X5429944Y-11035127D02*
X5439468Y-11006555D01*
X5439468Y-11006555D02*
X5448991Y-10987508D01*
X5448991Y-10987508D02*
X5468039Y-10958936D01*
X5468039Y-10958936D02*
X5477563Y-10949412D01*
X5563277Y-11177984D02*
X5601372Y-11177984D01*
X5601372Y-11177984D02*
X5620420Y-11168460D01*
X5620420Y-11168460D02*
X5629944Y-11158936D01*
X5629944Y-11158936D02*
X5648991Y-11130365D01*
X5648991Y-11130365D02*
X5658515Y-11092270D01*
X5658515Y-11092270D02*
X5658515Y-11016079D01*
X5658515Y-11016079D02*
X5648991Y-10997031D01*
X5648991Y-10997031D02*
X5639468Y-10987508D01*
X5639468Y-10987508D02*
X5620420Y-10977984D01*
X5620420Y-10977984D02*
X5582325Y-10977984D01*
X5582325Y-10977984D02*
X5563277Y-10987508D01*
X5563277Y-10987508D02*
X5553753Y-10997031D01*
X5553753Y-10997031D02*
X5544230Y-11016079D01*
X5544230Y-11016079D02*
X5544230Y-11063698D01*
X5544230Y-11063698D02*
X5553753Y-11082746D01*
X5553753Y-11082746D02*
X5563277Y-11092270D01*
X5563277Y-11092270D02*
X5582325Y-11101793D01*
X5582325Y-11101793D02*
X5620420Y-11101793D01*
X5620420Y-11101793D02*
X5639468Y-11092270D01*
X5639468Y-11092270D02*
X5648991Y-11082746D01*
X5648991Y-11082746D02*
X5658515Y-11063698D01*
X5896610Y-11177984D02*
X5896610Y-10977984D01*
X5982325Y-11177984D02*
X5982325Y-11073222D01*
X5982325Y-11073222D02*
X5972801Y-11054174D01*
X5972801Y-11054174D02*
X5953753Y-11044650D01*
X5953753Y-11044650D02*
X5925182Y-11044650D01*
X5925182Y-11044650D02*
X5906134Y-11054174D01*
X5906134Y-11054174D02*
X5896610Y-11063698D01*
X6106134Y-11177984D02*
X6087087Y-11168460D01*
X6087087Y-11168460D02*
X6077563Y-11158936D01*
X6077563Y-11158936D02*
X6068039Y-11139889D01*
X6068039Y-11139889D02*
X6068039Y-11082746D01*
X6068039Y-11082746D02*
X6077563Y-11063698D01*
X6077563Y-11063698D02*
X6087087Y-11054174D01*
X6087087Y-11054174D02*
X6106134Y-11044650D01*
X6106134Y-11044650D02*
X6134706Y-11044650D01*
X6134706Y-11044650D02*
X6153753Y-11054174D01*
X6153753Y-11054174D02*
X6163277Y-11063698D01*
X6163277Y-11063698D02*
X6172801Y-11082746D01*
X6172801Y-11082746D02*
X6172801Y-11139889D01*
X6172801Y-11139889D02*
X6163277Y-11158936D01*
X6163277Y-11158936D02*
X6153753Y-11168460D01*
X6153753Y-11168460D02*
X6134706Y-11177984D01*
X6134706Y-11177984D02*
X6106134Y-11177984D01*
X6287087Y-11177984D02*
X6268039Y-11168460D01*
X6268039Y-11168460D02*
X6258515Y-11149412D01*
X6258515Y-11149412D02*
X6258515Y-10977984D01*
X6439468Y-11168460D02*
X6420420Y-11177984D01*
X6420420Y-11177984D02*
X6382325Y-11177984D01*
X6382325Y-11177984D02*
X6363277Y-11168460D01*
X6363277Y-11168460D02*
X6353753Y-11149412D01*
X6353753Y-11149412D02*
X6353753Y-11073222D01*
X6353753Y-11073222D02*
X6363277Y-11054174D01*
X6363277Y-11054174D02*
X6382325Y-11044650D01*
X6382325Y-11044650D02*
X6420420Y-11044650D01*
X6420420Y-11044650D02*
X6439468Y-11054174D01*
X6439468Y-11054174D02*
X6448991Y-11073222D01*
X6448991Y-11073222D02*
X6448991Y-11092270D01*
X6448991Y-11092270D02*
X6353753Y-11111317D01*
X6525182Y-11168460D02*
X6544230Y-11177984D01*
X6544230Y-11177984D02*
X6582325Y-11177984D01*
X6582325Y-11177984D02*
X6601372Y-11168460D01*
X6601372Y-11168460D02*
X6610896Y-11149412D01*
X6610896Y-11149412D02*
X6610896Y-11139889D01*
X6610896Y-11139889D02*
X6601372Y-11120841D01*
X6601372Y-11120841D02*
X6582325Y-11111317D01*
X6582325Y-11111317D02*
X6553753Y-11111317D01*
X6553753Y-11111317D02*
X6534706Y-11101793D01*
X6534706Y-11101793D02*
X6525182Y-11082746D01*
X6525182Y-11082746D02*
X6525182Y-11073222D01*
X6525182Y-11073222D02*
X6534706Y-11054174D01*
X6534706Y-11054174D02*
X6553753Y-11044650D01*
X6553753Y-11044650D02*
X6582325Y-11044650D01*
X6582325Y-11044650D02*
X6601372Y-11054174D01*
X6677563Y-11254174D02*
X6687087Y-11244650D01*
X6687087Y-11244650D02*
X6706134Y-11216079D01*
X6706134Y-11216079D02*
X6715658Y-11197031D01*
X6715658Y-11197031D02*
X6725182Y-11168460D01*
X6725182Y-11168460D02*
X6734706Y-11120841D01*
X6734706Y-11120841D02*
X6734706Y-11082746D01*
X6734706Y-11082746D02*
X6725182Y-11035127D01*
X6725182Y-11035127D02*
X6715658Y-11006555D01*
X6715658Y-11006555D02*
X6706134Y-10987508D01*
X6706134Y-10987508D02*
X6687087Y-10958936D01*
X6687087Y-10958936D02*
X6677563Y-10949412D01*
D12*
X1862500Y-11390500D02*
X1902500Y-11350500D01*
X1862500Y-11310500D01*
X1822500Y-11350500D01*
X1862500Y-11390500D01*
D11*
X2201372Y-11241984D02*
X2220420Y-11241984D01*
X2220420Y-11241984D02*
X2239467Y-11251508D01*
X2239467Y-11251508D02*
X2248991Y-11261031D01*
X2248991Y-11261031D02*
X2258515Y-11280079D01*
X2258515Y-11280079D02*
X2268039Y-11318174D01*
X2268039Y-11318174D02*
X2268039Y-11365793D01*
X2268039Y-11365793D02*
X2258515Y-11403888D01*
X2258515Y-11403888D02*
X2248991Y-11422936D01*
X2248991Y-11422936D02*
X2239467Y-11432460D01*
X2239467Y-11432460D02*
X2220420Y-11441984D01*
X2220420Y-11441984D02*
X2201372Y-11441984D01*
X2201372Y-11441984D02*
X2182324Y-11432460D01*
X2182324Y-11432460D02*
X2172801Y-11422936D01*
X2172801Y-11422936D02*
X2163277Y-11403888D01*
X2163277Y-11403888D02*
X2153753Y-11365793D01*
X2153753Y-11365793D02*
X2153753Y-11318174D01*
X2153753Y-11318174D02*
X2163277Y-11280079D01*
X2163277Y-11280079D02*
X2172801Y-11261031D01*
X2172801Y-11261031D02*
X2182324Y-11251508D01*
X2182324Y-11251508D02*
X2201372Y-11241984D01*
X2353753Y-11422936D02*
X2363277Y-11432460D01*
X2363277Y-11432460D02*
X2353753Y-11441984D01*
X2353753Y-11441984D02*
X2344229Y-11432460D01*
X2344229Y-11432460D02*
X2353753Y-11422936D01*
X2353753Y-11422936D02*
X2353753Y-11441984D01*
X2477563Y-11327698D02*
X2458515Y-11318174D01*
X2458515Y-11318174D02*
X2448991Y-11308650D01*
X2448991Y-11308650D02*
X2439467Y-11289603D01*
X2439467Y-11289603D02*
X2439467Y-11280079D01*
X2439467Y-11280079D02*
X2448991Y-11261031D01*
X2448991Y-11261031D02*
X2458515Y-11251508D01*
X2458515Y-11251508D02*
X2477563Y-11241984D01*
X2477563Y-11241984D02*
X2515658Y-11241984D01*
X2515658Y-11241984D02*
X2534705Y-11251508D01*
X2534705Y-11251508D02*
X2544229Y-11261031D01*
X2544229Y-11261031D02*
X2553753Y-11280079D01*
X2553753Y-11280079D02*
X2553753Y-11289603D01*
X2553753Y-11289603D02*
X2544229Y-11308650D01*
X2544229Y-11308650D02*
X2534705Y-11318174D01*
X2534705Y-11318174D02*
X2515658Y-11327698D01*
X2515658Y-11327698D02*
X2477563Y-11327698D01*
X2477563Y-11327698D02*
X2458515Y-11337222D01*
X2458515Y-11337222D02*
X2448991Y-11346746D01*
X2448991Y-11346746D02*
X2439467Y-11365793D01*
X2439467Y-11365793D02*
X2439467Y-11403888D01*
X2439467Y-11403888D02*
X2448991Y-11422936D01*
X2448991Y-11422936D02*
X2458515Y-11432460D01*
X2458515Y-11432460D02*
X2477563Y-11441984D01*
X2477563Y-11441984D02*
X2515658Y-11441984D01*
X2515658Y-11441984D02*
X2534705Y-11432460D01*
X2534705Y-11432460D02*
X2544229Y-11422936D01*
X2544229Y-11422936D02*
X2553753Y-11403888D01*
X2553753Y-11403888D02*
X2553753Y-11365793D01*
X2553753Y-11365793D02*
X2544229Y-11346746D01*
X2544229Y-11346746D02*
X2534705Y-11337222D01*
X2534705Y-11337222D02*
X2515658Y-11327698D01*
X2677563Y-11241984D02*
X2696610Y-11241984D01*
X2696610Y-11241984D02*
X2715658Y-11251508D01*
X2715658Y-11251508D02*
X2725182Y-11261031D01*
X2725182Y-11261031D02*
X2734705Y-11280079D01*
X2734705Y-11280079D02*
X2744229Y-11318174D01*
X2744229Y-11318174D02*
X2744229Y-11365793D01*
X2744229Y-11365793D02*
X2734705Y-11403888D01*
X2734705Y-11403888D02*
X2725182Y-11422936D01*
X2725182Y-11422936D02*
X2715658Y-11432460D01*
X2715658Y-11432460D02*
X2696610Y-11441984D01*
X2696610Y-11441984D02*
X2677563Y-11441984D01*
X2677563Y-11441984D02*
X2658515Y-11432460D01*
X2658515Y-11432460D02*
X2648991Y-11422936D01*
X2648991Y-11422936D02*
X2639467Y-11403888D01*
X2639467Y-11403888D02*
X2629944Y-11365793D01*
X2629944Y-11365793D02*
X2629944Y-11318174D01*
X2629944Y-11318174D02*
X2639467Y-11280079D01*
X2639467Y-11280079D02*
X2648991Y-11261031D01*
X2648991Y-11261031D02*
X2658515Y-11251508D01*
X2658515Y-11251508D02*
X2677563Y-11241984D01*
X2868039Y-11241984D02*
X2887086Y-11241984D01*
X2887086Y-11241984D02*
X2906134Y-11251508D01*
X2906134Y-11251508D02*
X2915658Y-11261031D01*
X2915658Y-11261031D02*
X2925182Y-11280079D01*
X2925182Y-11280079D02*
X2934705Y-11318174D01*
X2934705Y-11318174D02*
X2934705Y-11365793D01*
X2934705Y-11365793D02*
X2925182Y-11403888D01*
X2925182Y-11403888D02*
X2915658Y-11422936D01*
X2915658Y-11422936D02*
X2906134Y-11432460D01*
X2906134Y-11432460D02*
X2887086Y-11441984D01*
X2887086Y-11441984D02*
X2868039Y-11441984D01*
X2868039Y-11441984D02*
X2848991Y-11432460D01*
X2848991Y-11432460D02*
X2839467Y-11422936D01*
X2839467Y-11422936D02*
X2829943Y-11403888D01*
X2829943Y-11403888D02*
X2820420Y-11365793D01*
X2820420Y-11365793D02*
X2820420Y-11318174D01*
X2820420Y-11318174D02*
X2829943Y-11280079D01*
X2829943Y-11280079D02*
X2839467Y-11261031D01*
X2839467Y-11261031D02*
X2848991Y-11251508D01*
X2848991Y-11251508D02*
X2868039Y-11241984D01*
X3020420Y-11441984D02*
X3020420Y-11308650D01*
X3020420Y-11327698D02*
X3029943Y-11318174D01*
X3029943Y-11318174D02*
X3048991Y-11308650D01*
X3048991Y-11308650D02*
X3077563Y-11308650D01*
X3077563Y-11308650D02*
X3096610Y-11318174D01*
X3096610Y-11318174D02*
X3106134Y-11337222D01*
X3106134Y-11337222D02*
X3106134Y-11441984D01*
X3106134Y-11337222D02*
X3115658Y-11318174D01*
X3115658Y-11318174D02*
X3134705Y-11308650D01*
X3134705Y-11308650D02*
X3163277Y-11308650D01*
X3163277Y-11308650D02*
X3182324Y-11318174D01*
X3182324Y-11318174D02*
X3191848Y-11337222D01*
X3191848Y-11337222D02*
X3191848Y-11441984D01*
X3287086Y-11441984D02*
X3287086Y-11308650D01*
X3287086Y-11327698D02*
X3296610Y-11318174D01*
X3296610Y-11318174D02*
X3315658Y-11308650D01*
X3315658Y-11308650D02*
X3344229Y-11308650D01*
X3344229Y-11308650D02*
X3363277Y-11318174D01*
X3363277Y-11318174D02*
X3372801Y-11337222D01*
X3372801Y-11337222D02*
X3372801Y-11441984D01*
X3372801Y-11337222D02*
X3382324Y-11318174D01*
X3382324Y-11318174D02*
X3401372Y-11308650D01*
X3401372Y-11308650D02*
X3429943Y-11308650D01*
X3429943Y-11308650D02*
X3448991Y-11318174D01*
X3448991Y-11318174D02*
X3458515Y-11337222D01*
X3458515Y-11337222D02*
X3458515Y-11441984D01*
X3848991Y-11232460D02*
X3677563Y-11489603D01*
X4106134Y-11241984D02*
X4125182Y-11241984D01*
X4125182Y-11241984D02*
X4144229Y-11251508D01*
X4144229Y-11251508D02*
X4153753Y-11261031D01*
X4153753Y-11261031D02*
X4163277Y-11280079D01*
X4163277Y-11280079D02*
X4172801Y-11318174D01*
X4172801Y-11318174D02*
X4172801Y-11365793D01*
X4172801Y-11365793D02*
X4163277Y-11403888D01*
X4163277Y-11403888D02*
X4153753Y-11422936D01*
X4153753Y-11422936D02*
X4144229Y-11432460D01*
X4144229Y-11432460D02*
X4125182Y-11441984D01*
X4125182Y-11441984D02*
X4106134Y-11441984D01*
X4106134Y-11441984D02*
X4087086Y-11432460D01*
X4087086Y-11432460D02*
X4077563Y-11422936D01*
X4077563Y-11422936D02*
X4068039Y-11403888D01*
X4068039Y-11403888D02*
X4058515Y-11365793D01*
X4058515Y-11365793D02*
X4058515Y-11318174D01*
X4058515Y-11318174D02*
X4068039Y-11280079D01*
X4068039Y-11280079D02*
X4077563Y-11261031D01*
X4077563Y-11261031D02*
X4087086Y-11251508D01*
X4087086Y-11251508D02*
X4106134Y-11241984D01*
X4258515Y-11422936D02*
X4268039Y-11432460D01*
X4268039Y-11432460D02*
X4258515Y-11441984D01*
X4258515Y-11441984D02*
X4248991Y-11432460D01*
X4248991Y-11432460D02*
X4258515Y-11422936D01*
X4258515Y-11422936D02*
X4258515Y-11441984D01*
X4391848Y-11241984D02*
X4410896Y-11241984D01*
X4410896Y-11241984D02*
X4429944Y-11251508D01*
X4429944Y-11251508D02*
X4439468Y-11261031D01*
X4439468Y-11261031D02*
X4448991Y-11280079D01*
X4448991Y-11280079D02*
X4458515Y-11318174D01*
X4458515Y-11318174D02*
X4458515Y-11365793D01*
X4458515Y-11365793D02*
X4448991Y-11403888D01*
X4448991Y-11403888D02*
X4439468Y-11422936D01*
X4439468Y-11422936D02*
X4429944Y-11432460D01*
X4429944Y-11432460D02*
X4410896Y-11441984D01*
X4410896Y-11441984D02*
X4391848Y-11441984D01*
X4391848Y-11441984D02*
X4372801Y-11432460D01*
X4372801Y-11432460D02*
X4363277Y-11422936D01*
X4363277Y-11422936D02*
X4353753Y-11403888D01*
X4353753Y-11403888D02*
X4344229Y-11365793D01*
X4344229Y-11365793D02*
X4344229Y-11318174D01*
X4344229Y-11318174D02*
X4353753Y-11280079D01*
X4353753Y-11280079D02*
X4363277Y-11261031D01*
X4363277Y-11261031D02*
X4372801Y-11251508D01*
X4372801Y-11251508D02*
X4391848Y-11241984D01*
X4525182Y-11241984D02*
X4648991Y-11241984D01*
X4648991Y-11241984D02*
X4582325Y-11318174D01*
X4582325Y-11318174D02*
X4610896Y-11318174D01*
X4610896Y-11318174D02*
X4629944Y-11327698D01*
X4629944Y-11327698D02*
X4639468Y-11337222D01*
X4639468Y-11337222D02*
X4648991Y-11356269D01*
X4648991Y-11356269D02*
X4648991Y-11403888D01*
X4648991Y-11403888D02*
X4639468Y-11422936D01*
X4639468Y-11422936D02*
X4629944Y-11432460D01*
X4629944Y-11432460D02*
X4610896Y-11441984D01*
X4610896Y-11441984D02*
X4553753Y-11441984D01*
X4553753Y-11441984D02*
X4534706Y-11432460D01*
X4534706Y-11432460D02*
X4525182Y-11422936D01*
X4839468Y-11441984D02*
X4725182Y-11441984D01*
X4782325Y-11441984D02*
X4782325Y-11241984D01*
X4782325Y-11241984D02*
X4763277Y-11270555D01*
X4763277Y-11270555D02*
X4744229Y-11289603D01*
X4744229Y-11289603D02*
X4725182Y-11299127D01*
X5020420Y-11241984D02*
X4925182Y-11241984D01*
X4925182Y-11241984D02*
X4915658Y-11337222D01*
X4915658Y-11337222D02*
X4925182Y-11327698D01*
X4925182Y-11327698D02*
X4944229Y-11318174D01*
X4944229Y-11318174D02*
X4991849Y-11318174D01*
X4991849Y-11318174D02*
X5010896Y-11327698D01*
X5010896Y-11327698D02*
X5020420Y-11337222D01*
X5020420Y-11337222D02*
X5029944Y-11356269D01*
X5029944Y-11356269D02*
X5029944Y-11403888D01*
X5029944Y-11403888D02*
X5020420Y-11422936D01*
X5020420Y-11422936D02*
X5010896Y-11432460D01*
X5010896Y-11432460D02*
X4991849Y-11441984D01*
X4991849Y-11441984D02*
X4944229Y-11441984D01*
X4944229Y-11441984D02*
X4925182Y-11432460D01*
X4925182Y-11432460D02*
X4915658Y-11422936D01*
X5106134Y-11241984D02*
X5106134Y-11280079D01*
X5182325Y-11241984D02*
X5182325Y-11280079D01*
X5477563Y-11518174D02*
X5468039Y-11508650D01*
X5468039Y-11508650D02*
X5448991Y-11480079D01*
X5448991Y-11480079D02*
X5439468Y-11461031D01*
X5439468Y-11461031D02*
X5429944Y-11432460D01*
X5429944Y-11432460D02*
X5420420Y-11384841D01*
X5420420Y-11384841D02*
X5420420Y-11346746D01*
X5420420Y-11346746D02*
X5429944Y-11299127D01*
X5429944Y-11299127D02*
X5439468Y-11270555D01*
X5439468Y-11270555D02*
X5448991Y-11251508D01*
X5448991Y-11251508D02*
X5468039Y-11222936D01*
X5468039Y-11222936D02*
X5477563Y-11213412D01*
X5658515Y-11441984D02*
X5544230Y-11441984D01*
X5601372Y-11441984D02*
X5601372Y-11241984D01*
X5601372Y-11241984D02*
X5582325Y-11270555D01*
X5582325Y-11270555D02*
X5563277Y-11289603D01*
X5563277Y-11289603D02*
X5544230Y-11299127D01*
X5725182Y-11241984D02*
X5858515Y-11241984D01*
X5858515Y-11241984D02*
X5772801Y-11441984D01*
X5915658Y-11241984D02*
X6048991Y-11241984D01*
X6048991Y-11241984D02*
X5963277Y-11441984D01*
X6277563Y-11441984D02*
X6277563Y-11241984D01*
X6363277Y-11441984D02*
X6363277Y-11337222D01*
X6363277Y-11337222D02*
X6353753Y-11318174D01*
X6353753Y-11318174D02*
X6334706Y-11308650D01*
X6334706Y-11308650D02*
X6306134Y-11308650D01*
X6306134Y-11308650D02*
X6287087Y-11318174D01*
X6287087Y-11318174D02*
X6277563Y-11327698D01*
X6487087Y-11441984D02*
X6468039Y-11432460D01*
X6468039Y-11432460D02*
X6458515Y-11422936D01*
X6458515Y-11422936D02*
X6448991Y-11403888D01*
X6448991Y-11403888D02*
X6448991Y-11346746D01*
X6448991Y-11346746D02*
X6458515Y-11327698D01*
X6458515Y-11327698D02*
X6468039Y-11318174D01*
X6468039Y-11318174D02*
X6487087Y-11308650D01*
X6487087Y-11308650D02*
X6515658Y-11308650D01*
X6515658Y-11308650D02*
X6534706Y-11318174D01*
X6534706Y-11318174D02*
X6544230Y-11327698D01*
X6544230Y-11327698D02*
X6553753Y-11346746D01*
X6553753Y-11346746D02*
X6553753Y-11403888D01*
X6553753Y-11403888D02*
X6544230Y-11422936D01*
X6544230Y-11422936D02*
X6534706Y-11432460D01*
X6534706Y-11432460D02*
X6515658Y-11441984D01*
X6515658Y-11441984D02*
X6487087Y-11441984D01*
X6668039Y-11441984D02*
X6648991Y-11432460D01*
X6648991Y-11432460D02*
X6639468Y-11413412D01*
X6639468Y-11413412D02*
X6639468Y-11241984D01*
X6820420Y-11432460D02*
X6801372Y-11441984D01*
X6801372Y-11441984D02*
X6763277Y-11441984D01*
X6763277Y-11441984D02*
X6744230Y-11432460D01*
X6744230Y-11432460D02*
X6734706Y-11413412D01*
X6734706Y-11413412D02*
X6734706Y-11337222D01*
X6734706Y-11337222D02*
X6744230Y-11318174D01*
X6744230Y-11318174D02*
X6763277Y-11308650D01*
X6763277Y-11308650D02*
X6801372Y-11308650D01*
X6801372Y-11308650D02*
X6820420Y-11318174D01*
X6820420Y-11318174D02*
X6829944Y-11337222D01*
X6829944Y-11337222D02*
X6829944Y-11356269D01*
X6829944Y-11356269D02*
X6734706Y-11375317D01*
X6906134Y-11432460D02*
X6925182Y-11441984D01*
X6925182Y-11441984D02*
X6963277Y-11441984D01*
X6963277Y-11441984D02*
X6982325Y-11432460D01*
X6982325Y-11432460D02*
X6991849Y-11413412D01*
X6991849Y-11413412D02*
X6991849Y-11403888D01*
X6991849Y-11403888D02*
X6982325Y-11384841D01*
X6982325Y-11384841D02*
X6963277Y-11375317D01*
X6963277Y-11375317D02*
X6934706Y-11375317D01*
X6934706Y-11375317D02*
X6915658Y-11365793D01*
X6915658Y-11365793D02*
X6906134Y-11346746D01*
X6906134Y-11346746D02*
X6906134Y-11337222D01*
X6906134Y-11337222D02*
X6915658Y-11318174D01*
X6915658Y-11318174D02*
X6934706Y-11308650D01*
X6934706Y-11308650D02*
X6963277Y-11308650D01*
X6963277Y-11308650D02*
X6982325Y-11318174D01*
X7058515Y-11518174D02*
X7068039Y-11508650D01*
X7068039Y-11508650D02*
X7087087Y-11480079D01*
X7087087Y-11480079D02*
X7096611Y-11461031D01*
X7096611Y-11461031D02*
X7106134Y-11432460D01*
X7106134Y-11432460D02*
X7115658Y-11384841D01*
X7115658Y-11384841D02*
X7115658Y-11346746D01*
X7115658Y-11346746D02*
X7106134Y-11299127D01*
X7106134Y-11299127D02*
X7096611Y-11270555D01*
X7096611Y-11270555D02*
X7087087Y-11251508D01*
X7087087Y-11251508D02*
X7068039Y-11222936D01*
X7068039Y-11222936D02*
X7058515Y-11213412D01*
D12*
X1812500Y-11569500D02*
X1902500Y-11659500D01*
X1902500Y-11569500D02*
X1812500Y-11659500D01*
X1902500Y-11614500D02*
G75*
G02*
X1812500Y-11614500I-45000J0D01*
G01*
X1812500Y-11614500D02*
G75*
G02*
X1902500Y-11614500I45000J0D01*
G01*
D11*
X2201372Y-11505984D02*
X2220420Y-11505984D01*
X2220420Y-11505984D02*
X2239467Y-11515508D01*
X2239467Y-11515508D02*
X2248991Y-11525031D01*
X2248991Y-11525031D02*
X2258515Y-11544079D01*
X2258515Y-11544079D02*
X2268039Y-11582174D01*
X2268039Y-11582174D02*
X2268039Y-11629793D01*
X2268039Y-11629793D02*
X2258515Y-11667888D01*
X2258515Y-11667888D02*
X2248991Y-11686936D01*
X2248991Y-11686936D02*
X2239467Y-11696460D01*
X2239467Y-11696460D02*
X2220420Y-11705984D01*
X2220420Y-11705984D02*
X2201372Y-11705984D01*
X2201372Y-11705984D02*
X2182324Y-11696460D01*
X2182324Y-11696460D02*
X2172801Y-11686936D01*
X2172801Y-11686936D02*
X2163277Y-11667888D01*
X2163277Y-11667888D02*
X2153753Y-11629793D01*
X2153753Y-11629793D02*
X2153753Y-11582174D01*
X2153753Y-11582174D02*
X2163277Y-11544079D01*
X2163277Y-11544079D02*
X2172801Y-11525031D01*
X2172801Y-11525031D02*
X2182324Y-11515508D01*
X2182324Y-11515508D02*
X2201372Y-11505984D01*
X2353753Y-11686936D02*
X2363277Y-11696460D01*
X2363277Y-11696460D02*
X2353753Y-11705984D01*
X2353753Y-11705984D02*
X2344229Y-11696460D01*
X2344229Y-11696460D02*
X2353753Y-11686936D01*
X2353753Y-11686936D02*
X2353753Y-11705984D01*
X2458515Y-11705984D02*
X2496610Y-11705984D01*
X2496610Y-11705984D02*
X2515658Y-11696460D01*
X2515658Y-11696460D02*
X2525182Y-11686936D01*
X2525182Y-11686936D02*
X2544229Y-11658365D01*
X2544229Y-11658365D02*
X2553753Y-11620269D01*
X2553753Y-11620269D02*
X2553753Y-11544079D01*
X2553753Y-11544079D02*
X2544229Y-11525031D01*
X2544229Y-11525031D02*
X2534705Y-11515508D01*
X2534705Y-11515508D02*
X2515658Y-11505984D01*
X2515658Y-11505984D02*
X2477563Y-11505984D01*
X2477563Y-11505984D02*
X2458515Y-11515508D01*
X2458515Y-11515508D02*
X2448991Y-11525031D01*
X2448991Y-11525031D02*
X2439467Y-11544079D01*
X2439467Y-11544079D02*
X2439467Y-11591698D01*
X2439467Y-11591698D02*
X2448991Y-11610746D01*
X2448991Y-11610746D02*
X2458515Y-11620269D01*
X2458515Y-11620269D02*
X2477563Y-11629793D01*
X2477563Y-11629793D02*
X2515658Y-11629793D01*
X2515658Y-11629793D02*
X2534705Y-11620269D01*
X2534705Y-11620269D02*
X2544229Y-11610746D01*
X2544229Y-11610746D02*
X2553753Y-11591698D01*
X2677563Y-11505984D02*
X2696610Y-11505984D01*
X2696610Y-11505984D02*
X2715658Y-11515508D01*
X2715658Y-11515508D02*
X2725182Y-11525031D01*
X2725182Y-11525031D02*
X2734705Y-11544079D01*
X2734705Y-11544079D02*
X2744229Y-11582174D01*
X2744229Y-11582174D02*
X2744229Y-11629793D01*
X2744229Y-11629793D02*
X2734705Y-11667888D01*
X2734705Y-11667888D02*
X2725182Y-11686936D01*
X2725182Y-11686936D02*
X2715658Y-11696460D01*
X2715658Y-11696460D02*
X2696610Y-11705984D01*
X2696610Y-11705984D02*
X2677563Y-11705984D01*
X2677563Y-11705984D02*
X2658515Y-11696460D01*
X2658515Y-11696460D02*
X2648991Y-11686936D01*
X2648991Y-11686936D02*
X2639467Y-11667888D01*
X2639467Y-11667888D02*
X2629944Y-11629793D01*
X2629944Y-11629793D02*
X2629944Y-11582174D01*
X2629944Y-11582174D02*
X2639467Y-11544079D01*
X2639467Y-11544079D02*
X2648991Y-11525031D01*
X2648991Y-11525031D02*
X2658515Y-11515508D01*
X2658515Y-11515508D02*
X2677563Y-11505984D01*
X2868039Y-11505984D02*
X2887086Y-11505984D01*
X2887086Y-11505984D02*
X2906134Y-11515508D01*
X2906134Y-11515508D02*
X2915658Y-11525031D01*
X2915658Y-11525031D02*
X2925182Y-11544079D01*
X2925182Y-11544079D02*
X2934705Y-11582174D01*
X2934705Y-11582174D02*
X2934705Y-11629793D01*
X2934705Y-11629793D02*
X2925182Y-11667888D01*
X2925182Y-11667888D02*
X2915658Y-11686936D01*
X2915658Y-11686936D02*
X2906134Y-11696460D01*
X2906134Y-11696460D02*
X2887086Y-11705984D01*
X2887086Y-11705984D02*
X2868039Y-11705984D01*
X2868039Y-11705984D02*
X2848991Y-11696460D01*
X2848991Y-11696460D02*
X2839467Y-11686936D01*
X2839467Y-11686936D02*
X2829943Y-11667888D01*
X2829943Y-11667888D02*
X2820420Y-11629793D01*
X2820420Y-11629793D02*
X2820420Y-11582174D01*
X2820420Y-11582174D02*
X2829943Y-11544079D01*
X2829943Y-11544079D02*
X2839467Y-11525031D01*
X2839467Y-11525031D02*
X2848991Y-11515508D01*
X2848991Y-11515508D02*
X2868039Y-11505984D01*
X3020420Y-11705984D02*
X3020420Y-11572650D01*
X3020420Y-11591698D02*
X3029943Y-11582174D01*
X3029943Y-11582174D02*
X3048991Y-11572650D01*
X3048991Y-11572650D02*
X3077563Y-11572650D01*
X3077563Y-11572650D02*
X3096610Y-11582174D01*
X3096610Y-11582174D02*
X3106134Y-11601222D01*
X3106134Y-11601222D02*
X3106134Y-11705984D01*
X3106134Y-11601222D02*
X3115658Y-11582174D01*
X3115658Y-11582174D02*
X3134705Y-11572650D01*
X3134705Y-11572650D02*
X3163277Y-11572650D01*
X3163277Y-11572650D02*
X3182324Y-11582174D01*
X3182324Y-11582174D02*
X3191848Y-11601222D01*
X3191848Y-11601222D02*
X3191848Y-11705984D01*
X3287086Y-11705984D02*
X3287086Y-11572650D01*
X3287086Y-11591698D02*
X3296610Y-11582174D01*
X3296610Y-11582174D02*
X3315658Y-11572650D01*
X3315658Y-11572650D02*
X3344229Y-11572650D01*
X3344229Y-11572650D02*
X3363277Y-11582174D01*
X3363277Y-11582174D02*
X3372801Y-11601222D01*
X3372801Y-11601222D02*
X3372801Y-11705984D01*
X3372801Y-11601222D02*
X3382324Y-11582174D01*
X3382324Y-11582174D02*
X3401372Y-11572650D01*
X3401372Y-11572650D02*
X3429943Y-11572650D01*
X3429943Y-11572650D02*
X3448991Y-11582174D01*
X3448991Y-11582174D02*
X3458515Y-11601222D01*
X3458515Y-11601222D02*
X3458515Y-11705984D01*
X3848991Y-11496460D02*
X3677563Y-11753603D01*
X4106134Y-11505984D02*
X4125182Y-11505984D01*
X4125182Y-11505984D02*
X4144229Y-11515508D01*
X4144229Y-11515508D02*
X4153753Y-11525031D01*
X4153753Y-11525031D02*
X4163277Y-11544079D01*
X4163277Y-11544079D02*
X4172801Y-11582174D01*
X4172801Y-11582174D02*
X4172801Y-11629793D01*
X4172801Y-11629793D02*
X4163277Y-11667888D01*
X4163277Y-11667888D02*
X4153753Y-11686936D01*
X4153753Y-11686936D02*
X4144229Y-11696460D01*
X4144229Y-11696460D02*
X4125182Y-11705984D01*
X4125182Y-11705984D02*
X4106134Y-11705984D01*
X4106134Y-11705984D02*
X4087086Y-11696460D01*
X4087086Y-11696460D02*
X4077563Y-11686936D01*
X4077563Y-11686936D02*
X4068039Y-11667888D01*
X4068039Y-11667888D02*
X4058515Y-11629793D01*
X4058515Y-11629793D02*
X4058515Y-11582174D01*
X4058515Y-11582174D02*
X4068039Y-11544079D01*
X4068039Y-11544079D02*
X4077563Y-11525031D01*
X4077563Y-11525031D02*
X4087086Y-11515508D01*
X4087086Y-11515508D02*
X4106134Y-11505984D01*
X4258515Y-11686936D02*
X4268039Y-11696460D01*
X4268039Y-11696460D02*
X4258515Y-11705984D01*
X4258515Y-11705984D02*
X4248991Y-11696460D01*
X4248991Y-11696460D02*
X4258515Y-11686936D01*
X4258515Y-11686936D02*
X4258515Y-11705984D01*
X4391848Y-11505984D02*
X4410896Y-11505984D01*
X4410896Y-11505984D02*
X4429944Y-11515508D01*
X4429944Y-11515508D02*
X4439468Y-11525031D01*
X4439468Y-11525031D02*
X4448991Y-11544079D01*
X4448991Y-11544079D02*
X4458515Y-11582174D01*
X4458515Y-11582174D02*
X4458515Y-11629793D01*
X4458515Y-11629793D02*
X4448991Y-11667888D01*
X4448991Y-11667888D02*
X4439468Y-11686936D01*
X4439468Y-11686936D02*
X4429944Y-11696460D01*
X4429944Y-11696460D02*
X4410896Y-11705984D01*
X4410896Y-11705984D02*
X4391848Y-11705984D01*
X4391848Y-11705984D02*
X4372801Y-11696460D01*
X4372801Y-11696460D02*
X4363277Y-11686936D01*
X4363277Y-11686936D02*
X4353753Y-11667888D01*
X4353753Y-11667888D02*
X4344229Y-11629793D01*
X4344229Y-11629793D02*
X4344229Y-11582174D01*
X4344229Y-11582174D02*
X4353753Y-11544079D01*
X4353753Y-11544079D02*
X4363277Y-11525031D01*
X4363277Y-11525031D02*
X4372801Y-11515508D01*
X4372801Y-11515508D02*
X4391848Y-11505984D01*
X4525182Y-11505984D02*
X4648991Y-11505984D01*
X4648991Y-11505984D02*
X4582325Y-11582174D01*
X4582325Y-11582174D02*
X4610896Y-11582174D01*
X4610896Y-11582174D02*
X4629944Y-11591698D01*
X4629944Y-11591698D02*
X4639468Y-11601222D01*
X4639468Y-11601222D02*
X4648991Y-11620269D01*
X4648991Y-11620269D02*
X4648991Y-11667888D01*
X4648991Y-11667888D02*
X4639468Y-11686936D01*
X4639468Y-11686936D02*
X4629944Y-11696460D01*
X4629944Y-11696460D02*
X4610896Y-11705984D01*
X4610896Y-11705984D02*
X4553753Y-11705984D01*
X4553753Y-11705984D02*
X4534706Y-11696460D01*
X4534706Y-11696460D02*
X4525182Y-11686936D01*
X4829944Y-11505984D02*
X4734706Y-11505984D01*
X4734706Y-11505984D02*
X4725182Y-11601222D01*
X4725182Y-11601222D02*
X4734706Y-11591698D01*
X4734706Y-11591698D02*
X4753753Y-11582174D01*
X4753753Y-11582174D02*
X4801372Y-11582174D01*
X4801372Y-11582174D02*
X4820420Y-11591698D01*
X4820420Y-11591698D02*
X4829944Y-11601222D01*
X4829944Y-11601222D02*
X4839468Y-11620269D01*
X4839468Y-11620269D02*
X4839468Y-11667888D01*
X4839468Y-11667888D02*
X4829944Y-11686936D01*
X4829944Y-11686936D02*
X4820420Y-11696460D01*
X4820420Y-11696460D02*
X4801372Y-11705984D01*
X4801372Y-11705984D02*
X4753753Y-11705984D01*
X4753753Y-11705984D02*
X4734706Y-11696460D01*
X4734706Y-11696460D02*
X4725182Y-11686936D01*
X5010896Y-11572650D02*
X5010896Y-11705984D01*
X4963277Y-11496460D02*
X4915658Y-11639317D01*
X4915658Y-11639317D02*
X5039468Y-11639317D01*
X5106134Y-11505984D02*
X5106134Y-11544079D01*
X5182325Y-11505984D02*
X5182325Y-11544079D01*
X5477563Y-11782174D02*
X5468039Y-11772650D01*
X5468039Y-11772650D02*
X5448991Y-11744079D01*
X5448991Y-11744079D02*
X5439468Y-11725031D01*
X5439468Y-11725031D02*
X5429944Y-11696460D01*
X5429944Y-11696460D02*
X5420420Y-11648841D01*
X5420420Y-11648841D02*
X5420420Y-11610746D01*
X5420420Y-11610746D02*
X5429944Y-11563127D01*
X5429944Y-11563127D02*
X5439468Y-11534555D01*
X5439468Y-11534555D02*
X5448991Y-11515508D01*
X5448991Y-11515508D02*
X5468039Y-11486936D01*
X5468039Y-11486936D02*
X5477563Y-11477412D01*
X5544230Y-11525031D02*
X5553753Y-11515508D01*
X5553753Y-11515508D02*
X5572801Y-11505984D01*
X5572801Y-11505984D02*
X5620420Y-11505984D01*
X5620420Y-11505984D02*
X5639468Y-11515508D01*
X5639468Y-11515508D02*
X5648991Y-11525031D01*
X5648991Y-11525031D02*
X5658515Y-11544079D01*
X5658515Y-11544079D02*
X5658515Y-11563127D01*
X5658515Y-11563127D02*
X5648991Y-11591698D01*
X5648991Y-11591698D02*
X5534706Y-11705984D01*
X5534706Y-11705984D02*
X5658515Y-11705984D01*
X5896610Y-11705984D02*
X5896610Y-11505984D01*
X5982325Y-11705984D02*
X5982325Y-11601222D01*
X5982325Y-11601222D02*
X5972801Y-11582174D01*
X5972801Y-11582174D02*
X5953753Y-11572650D01*
X5953753Y-11572650D02*
X5925182Y-11572650D01*
X5925182Y-11572650D02*
X5906134Y-11582174D01*
X5906134Y-11582174D02*
X5896610Y-11591698D01*
X6106134Y-11705984D02*
X6087087Y-11696460D01*
X6087087Y-11696460D02*
X6077563Y-11686936D01*
X6077563Y-11686936D02*
X6068039Y-11667888D01*
X6068039Y-11667888D02*
X6068039Y-11610746D01*
X6068039Y-11610746D02*
X6077563Y-11591698D01*
X6077563Y-11591698D02*
X6087087Y-11582174D01*
X6087087Y-11582174D02*
X6106134Y-11572650D01*
X6106134Y-11572650D02*
X6134706Y-11572650D01*
X6134706Y-11572650D02*
X6153753Y-11582174D01*
X6153753Y-11582174D02*
X6163277Y-11591698D01*
X6163277Y-11591698D02*
X6172801Y-11610746D01*
X6172801Y-11610746D02*
X6172801Y-11667888D01*
X6172801Y-11667888D02*
X6163277Y-11686936D01*
X6163277Y-11686936D02*
X6153753Y-11696460D01*
X6153753Y-11696460D02*
X6134706Y-11705984D01*
X6134706Y-11705984D02*
X6106134Y-11705984D01*
X6287087Y-11705984D02*
X6268039Y-11696460D01*
X6268039Y-11696460D02*
X6258515Y-11677412D01*
X6258515Y-11677412D02*
X6258515Y-11505984D01*
X6439468Y-11696460D02*
X6420420Y-11705984D01*
X6420420Y-11705984D02*
X6382325Y-11705984D01*
X6382325Y-11705984D02*
X6363277Y-11696460D01*
X6363277Y-11696460D02*
X6353753Y-11677412D01*
X6353753Y-11677412D02*
X6353753Y-11601222D01*
X6353753Y-11601222D02*
X6363277Y-11582174D01*
X6363277Y-11582174D02*
X6382325Y-11572650D01*
X6382325Y-11572650D02*
X6420420Y-11572650D01*
X6420420Y-11572650D02*
X6439468Y-11582174D01*
X6439468Y-11582174D02*
X6448991Y-11601222D01*
X6448991Y-11601222D02*
X6448991Y-11620269D01*
X6448991Y-11620269D02*
X6353753Y-11639317D01*
X6525182Y-11696460D02*
X6544230Y-11705984D01*
X6544230Y-11705984D02*
X6582325Y-11705984D01*
X6582325Y-11705984D02*
X6601372Y-11696460D01*
X6601372Y-11696460D02*
X6610896Y-11677412D01*
X6610896Y-11677412D02*
X6610896Y-11667888D01*
X6610896Y-11667888D02*
X6601372Y-11648841D01*
X6601372Y-11648841D02*
X6582325Y-11639317D01*
X6582325Y-11639317D02*
X6553753Y-11639317D01*
X6553753Y-11639317D02*
X6534706Y-11629793D01*
X6534706Y-11629793D02*
X6525182Y-11610746D01*
X6525182Y-11610746D02*
X6525182Y-11601222D01*
X6525182Y-11601222D02*
X6534706Y-11582174D01*
X6534706Y-11582174D02*
X6553753Y-11572650D01*
X6553753Y-11572650D02*
X6582325Y-11572650D01*
X6582325Y-11572650D02*
X6601372Y-11582174D01*
X6677563Y-11782174D02*
X6687087Y-11772650D01*
X6687087Y-11772650D02*
X6706134Y-11744079D01*
X6706134Y-11744079D02*
X6715658Y-11725031D01*
X6715658Y-11725031D02*
X6725182Y-11696460D01*
X6725182Y-11696460D02*
X6734706Y-11648841D01*
X6734706Y-11648841D02*
X6734706Y-11610746D01*
X6734706Y-11610746D02*
X6725182Y-11563127D01*
X6725182Y-11563127D02*
X6715658Y-11534555D01*
X6715658Y-11534555D02*
X6706134Y-11515508D01*
X6706134Y-11515508D02*
X6687087Y-11486936D01*
X6687087Y-11486936D02*
X6677563Y-11477412D01*
D12*
X1802500Y-11828500D02*
X1902500Y-11928500D01*
X1902500Y-11828500D02*
X1802500Y-11928500D01*
X1852500Y-11828500D02*
X1852500Y-11928500D01*
X1802500Y-11878500D02*
X1902500Y-11878500D01*
D11*
X2268039Y-11969984D02*
X2153753Y-11969984D01*
X2210896Y-11969984D02*
X2210896Y-11769984D01*
X2210896Y-11769984D02*
X2191848Y-11798555D01*
X2191848Y-11798555D02*
X2172801Y-11817603D01*
X2172801Y-11817603D02*
X2153753Y-11827127D01*
X2353753Y-11950936D02*
X2363277Y-11960460D01*
X2363277Y-11960460D02*
X2353753Y-11969984D01*
X2353753Y-11969984D02*
X2344229Y-11960460D01*
X2344229Y-11960460D02*
X2353753Y-11950936D01*
X2353753Y-11950936D02*
X2353753Y-11969984D01*
X2487086Y-11769984D02*
X2506134Y-11769984D01*
X2506134Y-11769984D02*
X2525182Y-11779508D01*
X2525182Y-11779508D02*
X2534705Y-11789031D01*
X2534705Y-11789031D02*
X2544229Y-11808079D01*
X2544229Y-11808079D02*
X2553753Y-11846174D01*
X2553753Y-11846174D02*
X2553753Y-11893793D01*
X2553753Y-11893793D02*
X2544229Y-11931888D01*
X2544229Y-11931888D02*
X2534705Y-11950936D01*
X2534705Y-11950936D02*
X2525182Y-11960460D01*
X2525182Y-11960460D02*
X2506134Y-11969984D01*
X2506134Y-11969984D02*
X2487086Y-11969984D01*
X2487086Y-11969984D02*
X2468039Y-11960460D01*
X2468039Y-11960460D02*
X2458515Y-11950936D01*
X2458515Y-11950936D02*
X2448991Y-11931888D01*
X2448991Y-11931888D02*
X2439467Y-11893793D01*
X2439467Y-11893793D02*
X2439467Y-11846174D01*
X2439467Y-11846174D02*
X2448991Y-11808079D01*
X2448991Y-11808079D02*
X2458515Y-11789031D01*
X2458515Y-11789031D02*
X2468039Y-11779508D01*
X2468039Y-11779508D02*
X2487086Y-11769984D01*
X2677563Y-11769984D02*
X2696610Y-11769984D01*
X2696610Y-11769984D02*
X2715658Y-11779508D01*
X2715658Y-11779508D02*
X2725182Y-11789031D01*
X2725182Y-11789031D02*
X2734705Y-11808079D01*
X2734705Y-11808079D02*
X2744229Y-11846174D01*
X2744229Y-11846174D02*
X2744229Y-11893793D01*
X2744229Y-11893793D02*
X2734705Y-11931888D01*
X2734705Y-11931888D02*
X2725182Y-11950936D01*
X2725182Y-11950936D02*
X2715658Y-11960460D01*
X2715658Y-11960460D02*
X2696610Y-11969984D01*
X2696610Y-11969984D02*
X2677563Y-11969984D01*
X2677563Y-11969984D02*
X2658515Y-11960460D01*
X2658515Y-11960460D02*
X2648991Y-11950936D01*
X2648991Y-11950936D02*
X2639467Y-11931888D01*
X2639467Y-11931888D02*
X2629944Y-11893793D01*
X2629944Y-11893793D02*
X2629944Y-11846174D01*
X2629944Y-11846174D02*
X2639467Y-11808079D01*
X2639467Y-11808079D02*
X2648991Y-11789031D01*
X2648991Y-11789031D02*
X2658515Y-11779508D01*
X2658515Y-11779508D02*
X2677563Y-11769984D01*
X2868039Y-11769984D02*
X2887086Y-11769984D01*
X2887086Y-11769984D02*
X2906134Y-11779508D01*
X2906134Y-11779508D02*
X2915658Y-11789031D01*
X2915658Y-11789031D02*
X2925182Y-11808079D01*
X2925182Y-11808079D02*
X2934705Y-11846174D01*
X2934705Y-11846174D02*
X2934705Y-11893793D01*
X2934705Y-11893793D02*
X2925182Y-11931888D01*
X2925182Y-11931888D02*
X2915658Y-11950936D01*
X2915658Y-11950936D02*
X2906134Y-11960460D01*
X2906134Y-11960460D02*
X2887086Y-11969984D01*
X2887086Y-11969984D02*
X2868039Y-11969984D01*
X2868039Y-11969984D02*
X2848991Y-11960460D01*
X2848991Y-11960460D02*
X2839467Y-11950936D01*
X2839467Y-11950936D02*
X2829943Y-11931888D01*
X2829943Y-11931888D02*
X2820420Y-11893793D01*
X2820420Y-11893793D02*
X2820420Y-11846174D01*
X2820420Y-11846174D02*
X2829943Y-11808079D01*
X2829943Y-11808079D02*
X2839467Y-11789031D01*
X2839467Y-11789031D02*
X2848991Y-11779508D01*
X2848991Y-11779508D02*
X2868039Y-11769984D01*
X3020420Y-11969984D02*
X3020420Y-11836650D01*
X3020420Y-11855698D02*
X3029943Y-11846174D01*
X3029943Y-11846174D02*
X3048991Y-11836650D01*
X3048991Y-11836650D02*
X3077563Y-11836650D01*
X3077563Y-11836650D02*
X3096610Y-11846174D01*
X3096610Y-11846174D02*
X3106134Y-11865222D01*
X3106134Y-11865222D02*
X3106134Y-11969984D01*
X3106134Y-11865222D02*
X3115658Y-11846174D01*
X3115658Y-11846174D02*
X3134705Y-11836650D01*
X3134705Y-11836650D02*
X3163277Y-11836650D01*
X3163277Y-11836650D02*
X3182324Y-11846174D01*
X3182324Y-11846174D02*
X3191848Y-11865222D01*
X3191848Y-11865222D02*
X3191848Y-11969984D01*
X3287086Y-11969984D02*
X3287086Y-11836650D01*
X3287086Y-11855698D02*
X3296610Y-11846174D01*
X3296610Y-11846174D02*
X3315658Y-11836650D01*
X3315658Y-11836650D02*
X3344229Y-11836650D01*
X3344229Y-11836650D02*
X3363277Y-11846174D01*
X3363277Y-11846174D02*
X3372801Y-11865222D01*
X3372801Y-11865222D02*
X3372801Y-11969984D01*
X3372801Y-11865222D02*
X3382324Y-11846174D01*
X3382324Y-11846174D02*
X3401372Y-11836650D01*
X3401372Y-11836650D02*
X3429943Y-11836650D01*
X3429943Y-11836650D02*
X3448991Y-11846174D01*
X3448991Y-11846174D02*
X3458515Y-11865222D01*
X3458515Y-11865222D02*
X3458515Y-11969984D01*
X3848991Y-11760460D02*
X3677563Y-12017603D01*
X4106134Y-11769984D02*
X4125182Y-11769984D01*
X4125182Y-11769984D02*
X4144229Y-11779508D01*
X4144229Y-11779508D02*
X4153753Y-11789031D01*
X4153753Y-11789031D02*
X4163277Y-11808079D01*
X4163277Y-11808079D02*
X4172801Y-11846174D01*
X4172801Y-11846174D02*
X4172801Y-11893793D01*
X4172801Y-11893793D02*
X4163277Y-11931888D01*
X4163277Y-11931888D02*
X4153753Y-11950936D01*
X4153753Y-11950936D02*
X4144229Y-11960460D01*
X4144229Y-11960460D02*
X4125182Y-11969984D01*
X4125182Y-11969984D02*
X4106134Y-11969984D01*
X4106134Y-11969984D02*
X4087086Y-11960460D01*
X4087086Y-11960460D02*
X4077563Y-11950936D01*
X4077563Y-11950936D02*
X4068039Y-11931888D01*
X4068039Y-11931888D02*
X4058515Y-11893793D01*
X4058515Y-11893793D02*
X4058515Y-11846174D01*
X4058515Y-11846174D02*
X4068039Y-11808079D01*
X4068039Y-11808079D02*
X4077563Y-11789031D01*
X4077563Y-11789031D02*
X4087086Y-11779508D01*
X4087086Y-11779508D02*
X4106134Y-11769984D01*
X4258515Y-11950936D02*
X4268039Y-11960460D01*
X4268039Y-11960460D02*
X4258515Y-11969984D01*
X4258515Y-11969984D02*
X4248991Y-11960460D01*
X4248991Y-11960460D02*
X4258515Y-11950936D01*
X4258515Y-11950936D02*
X4258515Y-11969984D01*
X4391848Y-11769984D02*
X4410896Y-11769984D01*
X4410896Y-11769984D02*
X4429944Y-11779508D01*
X4429944Y-11779508D02*
X4439468Y-11789031D01*
X4439468Y-11789031D02*
X4448991Y-11808079D01*
X4448991Y-11808079D02*
X4458515Y-11846174D01*
X4458515Y-11846174D02*
X4458515Y-11893793D01*
X4458515Y-11893793D02*
X4448991Y-11931888D01*
X4448991Y-11931888D02*
X4439468Y-11950936D01*
X4439468Y-11950936D02*
X4429944Y-11960460D01*
X4429944Y-11960460D02*
X4410896Y-11969984D01*
X4410896Y-11969984D02*
X4391848Y-11969984D01*
X4391848Y-11969984D02*
X4372801Y-11960460D01*
X4372801Y-11960460D02*
X4363277Y-11950936D01*
X4363277Y-11950936D02*
X4353753Y-11931888D01*
X4353753Y-11931888D02*
X4344229Y-11893793D01*
X4344229Y-11893793D02*
X4344229Y-11846174D01*
X4344229Y-11846174D02*
X4353753Y-11808079D01*
X4353753Y-11808079D02*
X4363277Y-11789031D01*
X4363277Y-11789031D02*
X4372801Y-11779508D01*
X4372801Y-11779508D02*
X4391848Y-11769984D01*
X4525182Y-11769984D02*
X4648991Y-11769984D01*
X4648991Y-11769984D02*
X4582325Y-11846174D01*
X4582325Y-11846174D02*
X4610896Y-11846174D01*
X4610896Y-11846174D02*
X4629944Y-11855698D01*
X4629944Y-11855698D02*
X4639468Y-11865222D01*
X4639468Y-11865222D02*
X4648991Y-11884269D01*
X4648991Y-11884269D02*
X4648991Y-11931888D01*
X4648991Y-11931888D02*
X4639468Y-11950936D01*
X4639468Y-11950936D02*
X4629944Y-11960460D01*
X4629944Y-11960460D02*
X4610896Y-11969984D01*
X4610896Y-11969984D02*
X4553753Y-11969984D01*
X4553753Y-11969984D02*
X4534706Y-11960460D01*
X4534706Y-11960460D02*
X4525182Y-11950936D01*
X4744229Y-11969984D02*
X4782325Y-11969984D01*
X4782325Y-11969984D02*
X4801372Y-11960460D01*
X4801372Y-11960460D02*
X4810896Y-11950936D01*
X4810896Y-11950936D02*
X4829944Y-11922365D01*
X4829944Y-11922365D02*
X4839468Y-11884269D01*
X4839468Y-11884269D02*
X4839468Y-11808079D01*
X4839468Y-11808079D02*
X4829944Y-11789031D01*
X4829944Y-11789031D02*
X4820420Y-11779508D01*
X4820420Y-11779508D02*
X4801372Y-11769984D01*
X4801372Y-11769984D02*
X4763277Y-11769984D01*
X4763277Y-11769984D02*
X4744229Y-11779508D01*
X4744229Y-11779508D02*
X4734706Y-11789031D01*
X4734706Y-11789031D02*
X4725182Y-11808079D01*
X4725182Y-11808079D02*
X4725182Y-11855698D01*
X4725182Y-11855698D02*
X4734706Y-11874746D01*
X4734706Y-11874746D02*
X4744229Y-11884269D01*
X4744229Y-11884269D02*
X4763277Y-11893793D01*
X4763277Y-11893793D02*
X4801372Y-11893793D01*
X4801372Y-11893793D02*
X4820420Y-11884269D01*
X4820420Y-11884269D02*
X4829944Y-11874746D01*
X4829944Y-11874746D02*
X4839468Y-11855698D01*
X5010896Y-11836650D02*
X5010896Y-11969984D01*
X4963277Y-11760460D02*
X4915658Y-11903317D01*
X4915658Y-11903317D02*
X5039468Y-11903317D01*
X5106134Y-11769984D02*
X5106134Y-11808079D01*
X5182325Y-11769984D02*
X5182325Y-11808079D01*
X5477563Y-12046174D02*
X5468039Y-12036650D01*
X5468039Y-12036650D02*
X5448991Y-12008079D01*
X5448991Y-12008079D02*
X5439468Y-11989031D01*
X5439468Y-11989031D02*
X5429944Y-11960460D01*
X5429944Y-11960460D02*
X5420420Y-11912841D01*
X5420420Y-11912841D02*
X5420420Y-11874746D01*
X5420420Y-11874746D02*
X5429944Y-11827127D01*
X5429944Y-11827127D02*
X5439468Y-11798555D01*
X5439468Y-11798555D02*
X5448991Y-11779508D01*
X5448991Y-11779508D02*
X5468039Y-11750936D01*
X5468039Y-11750936D02*
X5477563Y-11741412D01*
X5639468Y-11836650D02*
X5639468Y-11969984D01*
X5591849Y-11760460D02*
X5544230Y-11903317D01*
X5544230Y-11903317D02*
X5668039Y-11903317D01*
X5772801Y-11855698D02*
X5753753Y-11846174D01*
X5753753Y-11846174D02*
X5744229Y-11836650D01*
X5744229Y-11836650D02*
X5734706Y-11817603D01*
X5734706Y-11817603D02*
X5734706Y-11808079D01*
X5734706Y-11808079D02*
X5744229Y-11789031D01*
X5744229Y-11789031D02*
X5753753Y-11779508D01*
X5753753Y-11779508D02*
X5772801Y-11769984D01*
X5772801Y-11769984D02*
X5810896Y-11769984D01*
X5810896Y-11769984D02*
X5829944Y-11779508D01*
X5829944Y-11779508D02*
X5839468Y-11789031D01*
X5839468Y-11789031D02*
X5848991Y-11808079D01*
X5848991Y-11808079D02*
X5848991Y-11817603D01*
X5848991Y-11817603D02*
X5839468Y-11836650D01*
X5839468Y-11836650D02*
X5829944Y-11846174D01*
X5829944Y-11846174D02*
X5810896Y-11855698D01*
X5810896Y-11855698D02*
X5772801Y-11855698D01*
X5772801Y-11855698D02*
X5753753Y-11865222D01*
X5753753Y-11865222D02*
X5744229Y-11874746D01*
X5744229Y-11874746D02*
X5734706Y-11893793D01*
X5734706Y-11893793D02*
X5734706Y-11931888D01*
X5734706Y-11931888D02*
X5744229Y-11950936D01*
X5744229Y-11950936D02*
X5753753Y-11960460D01*
X5753753Y-11960460D02*
X5772801Y-11969984D01*
X5772801Y-11969984D02*
X5810896Y-11969984D01*
X5810896Y-11969984D02*
X5829944Y-11960460D01*
X5829944Y-11960460D02*
X5839468Y-11950936D01*
X5839468Y-11950936D02*
X5848991Y-11931888D01*
X5848991Y-11931888D02*
X5848991Y-11893793D01*
X5848991Y-11893793D02*
X5839468Y-11874746D01*
X5839468Y-11874746D02*
X5829944Y-11865222D01*
X5829944Y-11865222D02*
X5810896Y-11855698D01*
X6087087Y-11969984D02*
X6087087Y-11769984D01*
X6172801Y-11969984D02*
X6172801Y-11865222D01*
X6172801Y-11865222D02*
X6163277Y-11846174D01*
X6163277Y-11846174D02*
X6144230Y-11836650D01*
X6144230Y-11836650D02*
X6115658Y-11836650D01*
X6115658Y-11836650D02*
X6096610Y-11846174D01*
X6096610Y-11846174D02*
X6087087Y-11855698D01*
X6296610Y-11969984D02*
X6277563Y-11960460D01*
X6277563Y-11960460D02*
X6268039Y-11950936D01*
X6268039Y-11950936D02*
X6258515Y-11931888D01*
X6258515Y-11931888D02*
X6258515Y-11874746D01*
X6258515Y-11874746D02*
X6268039Y-11855698D01*
X6268039Y-11855698D02*
X6277563Y-11846174D01*
X6277563Y-11846174D02*
X6296610Y-11836650D01*
X6296610Y-11836650D02*
X6325182Y-11836650D01*
X6325182Y-11836650D02*
X6344230Y-11846174D01*
X6344230Y-11846174D02*
X6353753Y-11855698D01*
X6353753Y-11855698D02*
X6363277Y-11874746D01*
X6363277Y-11874746D02*
X6363277Y-11931888D01*
X6363277Y-11931888D02*
X6353753Y-11950936D01*
X6353753Y-11950936D02*
X6344230Y-11960460D01*
X6344230Y-11960460D02*
X6325182Y-11969984D01*
X6325182Y-11969984D02*
X6296610Y-11969984D01*
X6477563Y-11969984D02*
X6458515Y-11960460D01*
X6458515Y-11960460D02*
X6448991Y-11941412D01*
X6448991Y-11941412D02*
X6448991Y-11769984D01*
X6629944Y-11960460D02*
X6610896Y-11969984D01*
X6610896Y-11969984D02*
X6572801Y-11969984D01*
X6572801Y-11969984D02*
X6553753Y-11960460D01*
X6553753Y-11960460D02*
X6544230Y-11941412D01*
X6544230Y-11941412D02*
X6544230Y-11865222D01*
X6544230Y-11865222D02*
X6553753Y-11846174D01*
X6553753Y-11846174D02*
X6572801Y-11836650D01*
X6572801Y-11836650D02*
X6610896Y-11836650D01*
X6610896Y-11836650D02*
X6629944Y-11846174D01*
X6629944Y-11846174D02*
X6639468Y-11865222D01*
X6639468Y-11865222D02*
X6639468Y-11884269D01*
X6639468Y-11884269D02*
X6544230Y-11903317D01*
X6715658Y-11960460D02*
X6734706Y-11969984D01*
X6734706Y-11969984D02*
X6772801Y-11969984D01*
X6772801Y-11969984D02*
X6791849Y-11960460D01*
X6791849Y-11960460D02*
X6801372Y-11941412D01*
X6801372Y-11941412D02*
X6801372Y-11931888D01*
X6801372Y-11931888D02*
X6791849Y-11912841D01*
X6791849Y-11912841D02*
X6772801Y-11903317D01*
X6772801Y-11903317D02*
X6744230Y-11903317D01*
X6744230Y-11903317D02*
X6725182Y-11893793D01*
X6725182Y-11893793D02*
X6715658Y-11874746D01*
X6715658Y-11874746D02*
X6715658Y-11865222D01*
X6715658Y-11865222D02*
X6725182Y-11846174D01*
X6725182Y-11846174D02*
X6744230Y-11836650D01*
X6744230Y-11836650D02*
X6772801Y-11836650D01*
X6772801Y-11836650D02*
X6791849Y-11846174D01*
X6868039Y-12046174D02*
X6877563Y-12036650D01*
X6877563Y-12036650D02*
X6896611Y-12008079D01*
X6896611Y-12008079D02*
X6906134Y-11989031D01*
X6906134Y-11989031D02*
X6915658Y-11960460D01*
X6915658Y-11960460D02*
X6925182Y-11912841D01*
X6925182Y-11912841D02*
X6925182Y-11874746D01*
X6925182Y-11874746D02*
X6915658Y-11827127D01*
X6915658Y-11827127D02*
X6906134Y-11798555D01*
X6906134Y-11798555D02*
X6896611Y-11779508D01*
X6896611Y-11779508D02*
X6877563Y-11750936D01*
X6877563Y-11750936D02*
X6868039Y-11741412D01*
D13*
X1800900Y-12091700D02*
X1902500Y-12193300D01*
X1902500Y-12091700D02*
X1800900Y-12193300D01*
X1887621Y-12178421D02*
X1887621Y-12106579D01*
X1815779Y-12106579D01*
X1815779Y-12178421D01*
X1887621Y-12178421D01*
D11*
X2268039Y-12233984D02*
X2153753Y-12233984D01*
X2210896Y-12233984D02*
X2210896Y-12033984D01*
X2210896Y-12033984D02*
X2191848Y-12062555D01*
X2191848Y-12062555D02*
X2172801Y-12081603D01*
X2172801Y-12081603D02*
X2153753Y-12091127D01*
X2353753Y-12214936D02*
X2363277Y-12224460D01*
X2363277Y-12224460D02*
X2353753Y-12233984D01*
X2353753Y-12233984D02*
X2344229Y-12224460D01*
X2344229Y-12224460D02*
X2353753Y-12214936D01*
X2353753Y-12214936D02*
X2353753Y-12233984D01*
X2487086Y-12033984D02*
X2506134Y-12033984D01*
X2506134Y-12033984D02*
X2525182Y-12043508D01*
X2525182Y-12043508D02*
X2534705Y-12053031D01*
X2534705Y-12053031D02*
X2544229Y-12072079D01*
X2544229Y-12072079D02*
X2553753Y-12110174D01*
X2553753Y-12110174D02*
X2553753Y-12157793D01*
X2553753Y-12157793D02*
X2544229Y-12195888D01*
X2544229Y-12195888D02*
X2534705Y-12214936D01*
X2534705Y-12214936D02*
X2525182Y-12224460D01*
X2525182Y-12224460D02*
X2506134Y-12233984D01*
X2506134Y-12233984D02*
X2487086Y-12233984D01*
X2487086Y-12233984D02*
X2468039Y-12224460D01*
X2468039Y-12224460D02*
X2458515Y-12214936D01*
X2458515Y-12214936D02*
X2448991Y-12195888D01*
X2448991Y-12195888D02*
X2439467Y-12157793D01*
X2439467Y-12157793D02*
X2439467Y-12110174D01*
X2439467Y-12110174D02*
X2448991Y-12072079D01*
X2448991Y-12072079D02*
X2458515Y-12053031D01*
X2458515Y-12053031D02*
X2468039Y-12043508D01*
X2468039Y-12043508D02*
X2487086Y-12033984D01*
X2744229Y-12233984D02*
X2629944Y-12233984D01*
X2687086Y-12233984D02*
X2687086Y-12033984D01*
X2687086Y-12033984D02*
X2668039Y-12062555D01*
X2668039Y-12062555D02*
X2648991Y-12081603D01*
X2648991Y-12081603D02*
X2629944Y-12091127D01*
X2915658Y-12033984D02*
X2877562Y-12033984D01*
X2877562Y-12033984D02*
X2858515Y-12043508D01*
X2858515Y-12043508D02*
X2848991Y-12053031D01*
X2848991Y-12053031D02*
X2829943Y-12081603D01*
X2829943Y-12081603D02*
X2820420Y-12119698D01*
X2820420Y-12119698D02*
X2820420Y-12195888D01*
X2820420Y-12195888D02*
X2829943Y-12214936D01*
X2829943Y-12214936D02*
X2839467Y-12224460D01*
X2839467Y-12224460D02*
X2858515Y-12233984D01*
X2858515Y-12233984D02*
X2896610Y-12233984D01*
X2896610Y-12233984D02*
X2915658Y-12224460D01*
X2915658Y-12224460D02*
X2925182Y-12214936D01*
X2925182Y-12214936D02*
X2934705Y-12195888D01*
X2934705Y-12195888D02*
X2934705Y-12148269D01*
X2934705Y-12148269D02*
X2925182Y-12129222D01*
X2925182Y-12129222D02*
X2915658Y-12119698D01*
X2915658Y-12119698D02*
X2896610Y-12110174D01*
X2896610Y-12110174D02*
X2858515Y-12110174D01*
X2858515Y-12110174D02*
X2839467Y-12119698D01*
X2839467Y-12119698D02*
X2829943Y-12129222D01*
X2829943Y-12129222D02*
X2820420Y-12148269D01*
X3020420Y-12233984D02*
X3020420Y-12100650D01*
X3020420Y-12119698D02*
X3029943Y-12110174D01*
X3029943Y-12110174D02*
X3048991Y-12100650D01*
X3048991Y-12100650D02*
X3077563Y-12100650D01*
X3077563Y-12100650D02*
X3096610Y-12110174D01*
X3096610Y-12110174D02*
X3106134Y-12129222D01*
X3106134Y-12129222D02*
X3106134Y-12233984D01*
X3106134Y-12129222D02*
X3115658Y-12110174D01*
X3115658Y-12110174D02*
X3134705Y-12100650D01*
X3134705Y-12100650D02*
X3163277Y-12100650D01*
X3163277Y-12100650D02*
X3182324Y-12110174D01*
X3182324Y-12110174D02*
X3191848Y-12129222D01*
X3191848Y-12129222D02*
X3191848Y-12233984D01*
X3287086Y-12233984D02*
X3287086Y-12100650D01*
X3287086Y-12119698D02*
X3296610Y-12110174D01*
X3296610Y-12110174D02*
X3315658Y-12100650D01*
X3315658Y-12100650D02*
X3344229Y-12100650D01*
X3344229Y-12100650D02*
X3363277Y-12110174D01*
X3363277Y-12110174D02*
X3372801Y-12129222D01*
X3372801Y-12129222D02*
X3372801Y-12233984D01*
X3372801Y-12129222D02*
X3382324Y-12110174D01*
X3382324Y-12110174D02*
X3401372Y-12100650D01*
X3401372Y-12100650D02*
X3429943Y-12100650D01*
X3429943Y-12100650D02*
X3448991Y-12110174D01*
X3448991Y-12110174D02*
X3458515Y-12129222D01*
X3458515Y-12129222D02*
X3458515Y-12233984D01*
X3848991Y-12024460D02*
X3677563Y-12281603D01*
X4106134Y-12033984D02*
X4125182Y-12033984D01*
X4125182Y-12033984D02*
X4144229Y-12043508D01*
X4144229Y-12043508D02*
X4153753Y-12053031D01*
X4153753Y-12053031D02*
X4163277Y-12072079D01*
X4163277Y-12072079D02*
X4172801Y-12110174D01*
X4172801Y-12110174D02*
X4172801Y-12157793D01*
X4172801Y-12157793D02*
X4163277Y-12195888D01*
X4163277Y-12195888D02*
X4153753Y-12214936D01*
X4153753Y-12214936D02*
X4144229Y-12224460D01*
X4144229Y-12224460D02*
X4125182Y-12233984D01*
X4125182Y-12233984D02*
X4106134Y-12233984D01*
X4106134Y-12233984D02*
X4087086Y-12224460D01*
X4087086Y-12224460D02*
X4077563Y-12214936D01*
X4077563Y-12214936D02*
X4068039Y-12195888D01*
X4068039Y-12195888D02*
X4058515Y-12157793D01*
X4058515Y-12157793D02*
X4058515Y-12110174D01*
X4058515Y-12110174D02*
X4068039Y-12072079D01*
X4068039Y-12072079D02*
X4077563Y-12053031D01*
X4077563Y-12053031D02*
X4087086Y-12043508D01*
X4087086Y-12043508D02*
X4106134Y-12033984D01*
X4258515Y-12214936D02*
X4268039Y-12224460D01*
X4268039Y-12224460D02*
X4258515Y-12233984D01*
X4258515Y-12233984D02*
X4248991Y-12224460D01*
X4248991Y-12224460D02*
X4258515Y-12214936D01*
X4258515Y-12214936D02*
X4258515Y-12233984D01*
X4391848Y-12033984D02*
X4410896Y-12033984D01*
X4410896Y-12033984D02*
X4429944Y-12043508D01*
X4429944Y-12043508D02*
X4439468Y-12053031D01*
X4439468Y-12053031D02*
X4448991Y-12072079D01*
X4448991Y-12072079D02*
X4458515Y-12110174D01*
X4458515Y-12110174D02*
X4458515Y-12157793D01*
X4458515Y-12157793D02*
X4448991Y-12195888D01*
X4448991Y-12195888D02*
X4439468Y-12214936D01*
X4439468Y-12214936D02*
X4429944Y-12224460D01*
X4429944Y-12224460D02*
X4410896Y-12233984D01*
X4410896Y-12233984D02*
X4391848Y-12233984D01*
X4391848Y-12233984D02*
X4372801Y-12224460D01*
X4372801Y-12224460D02*
X4363277Y-12214936D01*
X4363277Y-12214936D02*
X4353753Y-12195888D01*
X4353753Y-12195888D02*
X4344229Y-12157793D01*
X4344229Y-12157793D02*
X4344229Y-12110174D01*
X4344229Y-12110174D02*
X4353753Y-12072079D01*
X4353753Y-12072079D02*
X4363277Y-12053031D01*
X4363277Y-12053031D02*
X4372801Y-12043508D01*
X4372801Y-12043508D02*
X4391848Y-12033984D01*
X4629944Y-12100650D02*
X4629944Y-12233984D01*
X4582325Y-12024460D02*
X4534706Y-12167317D01*
X4534706Y-12167317D02*
X4658515Y-12167317D01*
X4772801Y-12033984D02*
X4791849Y-12033984D01*
X4791849Y-12033984D02*
X4810896Y-12043508D01*
X4810896Y-12043508D02*
X4820420Y-12053031D01*
X4820420Y-12053031D02*
X4829944Y-12072079D01*
X4829944Y-12072079D02*
X4839468Y-12110174D01*
X4839468Y-12110174D02*
X4839468Y-12157793D01*
X4839468Y-12157793D02*
X4829944Y-12195888D01*
X4829944Y-12195888D02*
X4820420Y-12214936D01*
X4820420Y-12214936D02*
X4810896Y-12224460D01*
X4810896Y-12224460D02*
X4791849Y-12233984D01*
X4791849Y-12233984D02*
X4772801Y-12233984D01*
X4772801Y-12233984D02*
X4753753Y-12224460D01*
X4753753Y-12224460D02*
X4744229Y-12214936D01*
X4744229Y-12214936D02*
X4734706Y-12195888D01*
X4734706Y-12195888D02*
X4725182Y-12157793D01*
X4725182Y-12157793D02*
X4725182Y-12110174D01*
X4725182Y-12110174D02*
X4734706Y-12072079D01*
X4734706Y-12072079D02*
X4744229Y-12053031D01*
X4744229Y-12053031D02*
X4753753Y-12043508D01*
X4753753Y-12043508D02*
X4772801Y-12033984D01*
X4963277Y-12033984D02*
X4982325Y-12033984D01*
X4982325Y-12033984D02*
X5001372Y-12043508D01*
X5001372Y-12043508D02*
X5010896Y-12053031D01*
X5010896Y-12053031D02*
X5020420Y-12072079D01*
X5020420Y-12072079D02*
X5029944Y-12110174D01*
X5029944Y-12110174D02*
X5029944Y-12157793D01*
X5029944Y-12157793D02*
X5020420Y-12195888D01*
X5020420Y-12195888D02*
X5010896Y-12214936D01*
X5010896Y-12214936D02*
X5001372Y-12224460D01*
X5001372Y-12224460D02*
X4982325Y-12233984D01*
X4982325Y-12233984D02*
X4963277Y-12233984D01*
X4963277Y-12233984D02*
X4944229Y-12224460D01*
X4944229Y-12224460D02*
X4934706Y-12214936D01*
X4934706Y-12214936D02*
X4925182Y-12195888D01*
X4925182Y-12195888D02*
X4915658Y-12157793D01*
X4915658Y-12157793D02*
X4915658Y-12110174D01*
X4915658Y-12110174D02*
X4925182Y-12072079D01*
X4925182Y-12072079D02*
X4934706Y-12053031D01*
X4934706Y-12053031D02*
X4944229Y-12043508D01*
X4944229Y-12043508D02*
X4963277Y-12033984D01*
X5106134Y-12033984D02*
X5106134Y-12072079D01*
X5182325Y-12033984D02*
X5182325Y-12072079D01*
X5477563Y-12310174D02*
X5468039Y-12300650D01*
X5468039Y-12300650D02*
X5448991Y-12272079D01*
X5448991Y-12272079D02*
X5439468Y-12253031D01*
X5439468Y-12253031D02*
X5429944Y-12224460D01*
X5429944Y-12224460D02*
X5420420Y-12176841D01*
X5420420Y-12176841D02*
X5420420Y-12138746D01*
X5420420Y-12138746D02*
X5429944Y-12091127D01*
X5429944Y-12091127D02*
X5439468Y-12062555D01*
X5439468Y-12062555D02*
X5448991Y-12043508D01*
X5448991Y-12043508D02*
X5468039Y-12014936D01*
X5468039Y-12014936D02*
X5477563Y-12005412D01*
X5648991Y-12033984D02*
X5553753Y-12033984D01*
X5553753Y-12033984D02*
X5544230Y-12129222D01*
X5544230Y-12129222D02*
X5553753Y-12119698D01*
X5553753Y-12119698D02*
X5572801Y-12110174D01*
X5572801Y-12110174D02*
X5620420Y-12110174D01*
X5620420Y-12110174D02*
X5639468Y-12119698D01*
X5639468Y-12119698D02*
X5648991Y-12129222D01*
X5648991Y-12129222D02*
X5658515Y-12148269D01*
X5658515Y-12148269D02*
X5658515Y-12195888D01*
X5658515Y-12195888D02*
X5648991Y-12214936D01*
X5648991Y-12214936D02*
X5639468Y-12224460D01*
X5639468Y-12224460D02*
X5620420Y-12233984D01*
X5620420Y-12233984D02*
X5572801Y-12233984D01*
X5572801Y-12233984D02*
X5553753Y-12224460D01*
X5553753Y-12224460D02*
X5544230Y-12214936D01*
X5829944Y-12033984D02*
X5791848Y-12033984D01*
X5791848Y-12033984D02*
X5772801Y-12043508D01*
X5772801Y-12043508D02*
X5763277Y-12053031D01*
X5763277Y-12053031D02*
X5744229Y-12081603D01*
X5744229Y-12081603D02*
X5734706Y-12119698D01*
X5734706Y-12119698D02*
X5734706Y-12195888D01*
X5734706Y-12195888D02*
X5744229Y-12214936D01*
X5744229Y-12214936D02*
X5753753Y-12224460D01*
X5753753Y-12224460D02*
X5772801Y-12233984D01*
X5772801Y-12233984D02*
X5810896Y-12233984D01*
X5810896Y-12233984D02*
X5829944Y-12224460D01*
X5829944Y-12224460D02*
X5839468Y-12214936D01*
X5839468Y-12214936D02*
X5848991Y-12195888D01*
X5848991Y-12195888D02*
X5848991Y-12148269D01*
X5848991Y-12148269D02*
X5839468Y-12129222D01*
X5839468Y-12129222D02*
X5829944Y-12119698D01*
X5829944Y-12119698D02*
X5810896Y-12110174D01*
X5810896Y-12110174D02*
X5772801Y-12110174D01*
X5772801Y-12110174D02*
X5753753Y-12119698D01*
X5753753Y-12119698D02*
X5744229Y-12129222D01*
X5744229Y-12129222D02*
X5734706Y-12148269D01*
X6087087Y-12233984D02*
X6087087Y-12033984D01*
X6172801Y-12233984D02*
X6172801Y-12129222D01*
X6172801Y-12129222D02*
X6163277Y-12110174D01*
X6163277Y-12110174D02*
X6144230Y-12100650D01*
X6144230Y-12100650D02*
X6115658Y-12100650D01*
X6115658Y-12100650D02*
X6096610Y-12110174D01*
X6096610Y-12110174D02*
X6087087Y-12119698D01*
X6296610Y-12233984D02*
X6277563Y-12224460D01*
X6277563Y-12224460D02*
X6268039Y-12214936D01*
X6268039Y-12214936D02*
X6258515Y-12195888D01*
X6258515Y-12195888D02*
X6258515Y-12138746D01*
X6258515Y-12138746D02*
X6268039Y-12119698D01*
X6268039Y-12119698D02*
X6277563Y-12110174D01*
X6277563Y-12110174D02*
X6296610Y-12100650D01*
X6296610Y-12100650D02*
X6325182Y-12100650D01*
X6325182Y-12100650D02*
X6344230Y-12110174D01*
X6344230Y-12110174D02*
X6353753Y-12119698D01*
X6353753Y-12119698D02*
X6363277Y-12138746D01*
X6363277Y-12138746D02*
X6363277Y-12195888D01*
X6363277Y-12195888D02*
X6353753Y-12214936D01*
X6353753Y-12214936D02*
X6344230Y-12224460D01*
X6344230Y-12224460D02*
X6325182Y-12233984D01*
X6325182Y-12233984D02*
X6296610Y-12233984D01*
X6477563Y-12233984D02*
X6458515Y-12224460D01*
X6458515Y-12224460D02*
X6448991Y-12205412D01*
X6448991Y-12205412D02*
X6448991Y-12033984D01*
X6629944Y-12224460D02*
X6610896Y-12233984D01*
X6610896Y-12233984D02*
X6572801Y-12233984D01*
X6572801Y-12233984D02*
X6553753Y-12224460D01*
X6553753Y-12224460D02*
X6544230Y-12205412D01*
X6544230Y-12205412D02*
X6544230Y-12129222D01*
X6544230Y-12129222D02*
X6553753Y-12110174D01*
X6553753Y-12110174D02*
X6572801Y-12100650D01*
X6572801Y-12100650D02*
X6610896Y-12100650D01*
X6610896Y-12100650D02*
X6629944Y-12110174D01*
X6629944Y-12110174D02*
X6639468Y-12129222D01*
X6639468Y-12129222D02*
X6639468Y-12148269D01*
X6639468Y-12148269D02*
X6544230Y-12167317D01*
X6715658Y-12224460D02*
X6734706Y-12233984D01*
X6734706Y-12233984D02*
X6772801Y-12233984D01*
X6772801Y-12233984D02*
X6791849Y-12224460D01*
X6791849Y-12224460D02*
X6801372Y-12205412D01*
X6801372Y-12205412D02*
X6801372Y-12195888D01*
X6801372Y-12195888D02*
X6791849Y-12176841D01*
X6791849Y-12176841D02*
X6772801Y-12167317D01*
X6772801Y-12167317D02*
X6744230Y-12167317D01*
X6744230Y-12167317D02*
X6725182Y-12157793D01*
X6725182Y-12157793D02*
X6715658Y-12138746D01*
X6715658Y-12138746D02*
X6715658Y-12129222D01*
X6715658Y-12129222D02*
X6725182Y-12110174D01*
X6725182Y-12110174D02*
X6744230Y-12100650D01*
X6744230Y-12100650D02*
X6772801Y-12100650D01*
X6772801Y-12100650D02*
X6791849Y-12110174D01*
X6868039Y-12310174D02*
X6877563Y-12300650D01*
X6877563Y-12300650D02*
X6896611Y-12272079D01*
X6896611Y-12272079D02*
X6906134Y-12253031D01*
X6906134Y-12253031D02*
X6915658Y-12224460D01*
X6915658Y-12224460D02*
X6925182Y-12176841D01*
X6925182Y-12176841D02*
X6925182Y-12138746D01*
X6925182Y-12138746D02*
X6915658Y-12091127D01*
X6915658Y-12091127D02*
X6906134Y-12062555D01*
X6906134Y-12062555D02*
X6896611Y-12043508D01*
X6896611Y-12043508D02*
X6877563Y-12014936D01*
X6877563Y-12014936D02*
X6868039Y-12005412D01*
D14*
X1792500Y-12351500D02*
X1902500Y-12461500D01*
X1902500Y-12351500D02*
X1792500Y-12461500D01*
X1847500Y-12461500D02*
X1902500Y-12406500D01*
X1847500Y-12351500D01*
X1792500Y-12406500D01*
X1847500Y-12461500D01*
D11*
X2268039Y-12497984D02*
X2153753Y-12497984D01*
X2210896Y-12497984D02*
X2210896Y-12297984D01*
X2210896Y-12297984D02*
X2191848Y-12326555D01*
X2191848Y-12326555D02*
X2172801Y-12345603D01*
X2172801Y-12345603D02*
X2153753Y-12355127D01*
X2353753Y-12478936D02*
X2363277Y-12488460D01*
X2363277Y-12488460D02*
X2353753Y-12497984D01*
X2353753Y-12497984D02*
X2344229Y-12488460D01*
X2344229Y-12488460D02*
X2353753Y-12478936D01*
X2353753Y-12478936D02*
X2353753Y-12497984D01*
X2553753Y-12497984D02*
X2439467Y-12497984D01*
X2496610Y-12497984D02*
X2496610Y-12297984D01*
X2496610Y-12297984D02*
X2477563Y-12326555D01*
X2477563Y-12326555D02*
X2458515Y-12345603D01*
X2458515Y-12345603D02*
X2439467Y-12355127D01*
X2677563Y-12297984D02*
X2696610Y-12297984D01*
X2696610Y-12297984D02*
X2715658Y-12307508D01*
X2715658Y-12307508D02*
X2725182Y-12317031D01*
X2725182Y-12317031D02*
X2734705Y-12336079D01*
X2734705Y-12336079D02*
X2744229Y-12374174D01*
X2744229Y-12374174D02*
X2744229Y-12421793D01*
X2744229Y-12421793D02*
X2734705Y-12459888D01*
X2734705Y-12459888D02*
X2725182Y-12478936D01*
X2725182Y-12478936D02*
X2715658Y-12488460D01*
X2715658Y-12488460D02*
X2696610Y-12497984D01*
X2696610Y-12497984D02*
X2677563Y-12497984D01*
X2677563Y-12497984D02*
X2658515Y-12488460D01*
X2658515Y-12488460D02*
X2648991Y-12478936D01*
X2648991Y-12478936D02*
X2639467Y-12459888D01*
X2639467Y-12459888D02*
X2629944Y-12421793D01*
X2629944Y-12421793D02*
X2629944Y-12374174D01*
X2629944Y-12374174D02*
X2639467Y-12336079D01*
X2639467Y-12336079D02*
X2648991Y-12317031D01*
X2648991Y-12317031D02*
X2658515Y-12307508D01*
X2658515Y-12307508D02*
X2677563Y-12297984D01*
X2868039Y-12297984D02*
X2887086Y-12297984D01*
X2887086Y-12297984D02*
X2906134Y-12307508D01*
X2906134Y-12307508D02*
X2915658Y-12317031D01*
X2915658Y-12317031D02*
X2925182Y-12336079D01*
X2925182Y-12336079D02*
X2934705Y-12374174D01*
X2934705Y-12374174D02*
X2934705Y-12421793D01*
X2934705Y-12421793D02*
X2925182Y-12459888D01*
X2925182Y-12459888D02*
X2915658Y-12478936D01*
X2915658Y-12478936D02*
X2906134Y-12488460D01*
X2906134Y-12488460D02*
X2887086Y-12497984D01*
X2887086Y-12497984D02*
X2868039Y-12497984D01*
X2868039Y-12497984D02*
X2848991Y-12488460D01*
X2848991Y-12488460D02*
X2839467Y-12478936D01*
X2839467Y-12478936D02*
X2829943Y-12459888D01*
X2829943Y-12459888D02*
X2820420Y-12421793D01*
X2820420Y-12421793D02*
X2820420Y-12374174D01*
X2820420Y-12374174D02*
X2829943Y-12336079D01*
X2829943Y-12336079D02*
X2839467Y-12317031D01*
X2839467Y-12317031D02*
X2848991Y-12307508D01*
X2848991Y-12307508D02*
X2868039Y-12297984D01*
X3020420Y-12497984D02*
X3020420Y-12364650D01*
X3020420Y-12383698D02*
X3029943Y-12374174D01*
X3029943Y-12374174D02*
X3048991Y-12364650D01*
X3048991Y-12364650D02*
X3077563Y-12364650D01*
X3077563Y-12364650D02*
X3096610Y-12374174D01*
X3096610Y-12374174D02*
X3106134Y-12393222D01*
X3106134Y-12393222D02*
X3106134Y-12497984D01*
X3106134Y-12393222D02*
X3115658Y-12374174D01*
X3115658Y-12374174D02*
X3134705Y-12364650D01*
X3134705Y-12364650D02*
X3163277Y-12364650D01*
X3163277Y-12364650D02*
X3182324Y-12374174D01*
X3182324Y-12374174D02*
X3191848Y-12393222D01*
X3191848Y-12393222D02*
X3191848Y-12497984D01*
X3287086Y-12497984D02*
X3287086Y-12364650D01*
X3287086Y-12383698D02*
X3296610Y-12374174D01*
X3296610Y-12374174D02*
X3315658Y-12364650D01*
X3315658Y-12364650D02*
X3344229Y-12364650D01*
X3344229Y-12364650D02*
X3363277Y-12374174D01*
X3363277Y-12374174D02*
X3372801Y-12393222D01*
X3372801Y-12393222D02*
X3372801Y-12497984D01*
X3372801Y-12393222D02*
X3382324Y-12374174D01*
X3382324Y-12374174D02*
X3401372Y-12364650D01*
X3401372Y-12364650D02*
X3429943Y-12364650D01*
X3429943Y-12364650D02*
X3448991Y-12374174D01*
X3448991Y-12374174D02*
X3458515Y-12393222D01*
X3458515Y-12393222D02*
X3458515Y-12497984D01*
X3848991Y-12288460D02*
X3677563Y-12545603D01*
X4106134Y-12297984D02*
X4125182Y-12297984D01*
X4125182Y-12297984D02*
X4144229Y-12307508D01*
X4144229Y-12307508D02*
X4153753Y-12317031D01*
X4153753Y-12317031D02*
X4163277Y-12336079D01*
X4163277Y-12336079D02*
X4172801Y-12374174D01*
X4172801Y-12374174D02*
X4172801Y-12421793D01*
X4172801Y-12421793D02*
X4163277Y-12459888D01*
X4163277Y-12459888D02*
X4153753Y-12478936D01*
X4153753Y-12478936D02*
X4144229Y-12488460D01*
X4144229Y-12488460D02*
X4125182Y-12497984D01*
X4125182Y-12497984D02*
X4106134Y-12497984D01*
X4106134Y-12497984D02*
X4087086Y-12488460D01*
X4087086Y-12488460D02*
X4077563Y-12478936D01*
X4077563Y-12478936D02*
X4068039Y-12459888D01*
X4068039Y-12459888D02*
X4058515Y-12421793D01*
X4058515Y-12421793D02*
X4058515Y-12374174D01*
X4058515Y-12374174D02*
X4068039Y-12336079D01*
X4068039Y-12336079D02*
X4077563Y-12317031D01*
X4077563Y-12317031D02*
X4087086Y-12307508D01*
X4087086Y-12307508D02*
X4106134Y-12297984D01*
X4258515Y-12478936D02*
X4268039Y-12488460D01*
X4268039Y-12488460D02*
X4258515Y-12497984D01*
X4258515Y-12497984D02*
X4248991Y-12488460D01*
X4248991Y-12488460D02*
X4258515Y-12478936D01*
X4258515Y-12478936D02*
X4258515Y-12497984D01*
X4391848Y-12297984D02*
X4410896Y-12297984D01*
X4410896Y-12297984D02*
X4429944Y-12307508D01*
X4429944Y-12307508D02*
X4439468Y-12317031D01*
X4439468Y-12317031D02*
X4448991Y-12336079D01*
X4448991Y-12336079D02*
X4458515Y-12374174D01*
X4458515Y-12374174D02*
X4458515Y-12421793D01*
X4458515Y-12421793D02*
X4448991Y-12459888D01*
X4448991Y-12459888D02*
X4439468Y-12478936D01*
X4439468Y-12478936D02*
X4429944Y-12488460D01*
X4429944Y-12488460D02*
X4410896Y-12497984D01*
X4410896Y-12497984D02*
X4391848Y-12497984D01*
X4391848Y-12497984D02*
X4372801Y-12488460D01*
X4372801Y-12488460D02*
X4363277Y-12478936D01*
X4363277Y-12478936D02*
X4353753Y-12459888D01*
X4353753Y-12459888D02*
X4344229Y-12421793D01*
X4344229Y-12421793D02*
X4344229Y-12374174D01*
X4344229Y-12374174D02*
X4353753Y-12336079D01*
X4353753Y-12336079D02*
X4363277Y-12317031D01*
X4363277Y-12317031D02*
X4372801Y-12307508D01*
X4372801Y-12307508D02*
X4391848Y-12297984D01*
X4629944Y-12364650D02*
X4629944Y-12497984D01*
X4582325Y-12288460D02*
X4534706Y-12431317D01*
X4534706Y-12431317D02*
X4658515Y-12431317D01*
X4715658Y-12297984D02*
X4839468Y-12297984D01*
X4839468Y-12297984D02*
X4772801Y-12374174D01*
X4772801Y-12374174D02*
X4801372Y-12374174D01*
X4801372Y-12374174D02*
X4820420Y-12383698D01*
X4820420Y-12383698D02*
X4829944Y-12393222D01*
X4829944Y-12393222D02*
X4839468Y-12412269D01*
X4839468Y-12412269D02*
X4839468Y-12459888D01*
X4839468Y-12459888D02*
X4829944Y-12478936D01*
X4829944Y-12478936D02*
X4820420Y-12488460D01*
X4820420Y-12488460D02*
X4801372Y-12497984D01*
X4801372Y-12497984D02*
X4744229Y-12497984D01*
X4744229Y-12497984D02*
X4725182Y-12488460D01*
X4725182Y-12488460D02*
X4715658Y-12478936D01*
X4906134Y-12297984D02*
X5029944Y-12297984D01*
X5029944Y-12297984D02*
X4963277Y-12374174D01*
X4963277Y-12374174D02*
X4991849Y-12374174D01*
X4991849Y-12374174D02*
X5010896Y-12383698D01*
X5010896Y-12383698D02*
X5020420Y-12393222D01*
X5020420Y-12393222D02*
X5029944Y-12412269D01*
X5029944Y-12412269D02*
X5029944Y-12459888D01*
X5029944Y-12459888D02*
X5020420Y-12478936D01*
X5020420Y-12478936D02*
X5010896Y-12488460D01*
X5010896Y-12488460D02*
X4991849Y-12497984D01*
X4991849Y-12497984D02*
X4934706Y-12497984D01*
X4934706Y-12497984D02*
X4915658Y-12488460D01*
X4915658Y-12488460D02*
X4906134Y-12478936D01*
X5106134Y-12297984D02*
X5106134Y-12336079D01*
X5182325Y-12297984D02*
X5182325Y-12336079D01*
X5477563Y-12574174D02*
X5468039Y-12564650D01*
X5468039Y-12564650D02*
X5448991Y-12536079D01*
X5448991Y-12536079D02*
X5439468Y-12517031D01*
X5439468Y-12517031D02*
X5429944Y-12488460D01*
X5429944Y-12488460D02*
X5420420Y-12440841D01*
X5420420Y-12440841D02*
X5420420Y-12402746D01*
X5420420Y-12402746D02*
X5429944Y-12355127D01*
X5429944Y-12355127D02*
X5439468Y-12326555D01*
X5439468Y-12326555D02*
X5448991Y-12307508D01*
X5448991Y-12307508D02*
X5468039Y-12278936D01*
X5468039Y-12278936D02*
X5477563Y-12269412D01*
X5582325Y-12383698D02*
X5563277Y-12374174D01*
X5563277Y-12374174D02*
X5553753Y-12364650D01*
X5553753Y-12364650D02*
X5544230Y-12345603D01*
X5544230Y-12345603D02*
X5544230Y-12336079D01*
X5544230Y-12336079D02*
X5553753Y-12317031D01*
X5553753Y-12317031D02*
X5563277Y-12307508D01*
X5563277Y-12307508D02*
X5582325Y-12297984D01*
X5582325Y-12297984D02*
X5620420Y-12297984D01*
X5620420Y-12297984D02*
X5639468Y-12307508D01*
X5639468Y-12307508D02*
X5648991Y-12317031D01*
X5648991Y-12317031D02*
X5658515Y-12336079D01*
X5658515Y-12336079D02*
X5658515Y-12345603D01*
X5658515Y-12345603D02*
X5648991Y-12364650D01*
X5648991Y-12364650D02*
X5639468Y-12374174D01*
X5639468Y-12374174D02*
X5620420Y-12383698D01*
X5620420Y-12383698D02*
X5582325Y-12383698D01*
X5582325Y-12383698D02*
X5563277Y-12393222D01*
X5563277Y-12393222D02*
X5553753Y-12402746D01*
X5553753Y-12402746D02*
X5544230Y-12421793D01*
X5544230Y-12421793D02*
X5544230Y-12459888D01*
X5544230Y-12459888D02*
X5553753Y-12478936D01*
X5553753Y-12478936D02*
X5563277Y-12488460D01*
X5563277Y-12488460D02*
X5582325Y-12497984D01*
X5582325Y-12497984D02*
X5620420Y-12497984D01*
X5620420Y-12497984D02*
X5639468Y-12488460D01*
X5639468Y-12488460D02*
X5648991Y-12478936D01*
X5648991Y-12478936D02*
X5658515Y-12459888D01*
X5658515Y-12459888D02*
X5658515Y-12421793D01*
X5658515Y-12421793D02*
X5648991Y-12402746D01*
X5648991Y-12402746D02*
X5639468Y-12393222D01*
X5639468Y-12393222D02*
X5620420Y-12383698D01*
X5896610Y-12497984D02*
X5896610Y-12297984D01*
X5982325Y-12497984D02*
X5982325Y-12393222D01*
X5982325Y-12393222D02*
X5972801Y-12374174D01*
X5972801Y-12374174D02*
X5953753Y-12364650D01*
X5953753Y-12364650D02*
X5925182Y-12364650D01*
X5925182Y-12364650D02*
X5906134Y-12374174D01*
X5906134Y-12374174D02*
X5896610Y-12383698D01*
X6106134Y-12497984D02*
X6087087Y-12488460D01*
X6087087Y-12488460D02*
X6077563Y-12478936D01*
X6077563Y-12478936D02*
X6068039Y-12459888D01*
X6068039Y-12459888D02*
X6068039Y-12402746D01*
X6068039Y-12402746D02*
X6077563Y-12383698D01*
X6077563Y-12383698D02*
X6087087Y-12374174D01*
X6087087Y-12374174D02*
X6106134Y-12364650D01*
X6106134Y-12364650D02*
X6134706Y-12364650D01*
X6134706Y-12364650D02*
X6153753Y-12374174D01*
X6153753Y-12374174D02*
X6163277Y-12383698D01*
X6163277Y-12383698D02*
X6172801Y-12402746D01*
X6172801Y-12402746D02*
X6172801Y-12459888D01*
X6172801Y-12459888D02*
X6163277Y-12478936D01*
X6163277Y-12478936D02*
X6153753Y-12488460D01*
X6153753Y-12488460D02*
X6134706Y-12497984D01*
X6134706Y-12497984D02*
X6106134Y-12497984D01*
X6287087Y-12497984D02*
X6268039Y-12488460D01*
X6268039Y-12488460D02*
X6258515Y-12469412D01*
X6258515Y-12469412D02*
X6258515Y-12297984D01*
X6439468Y-12488460D02*
X6420420Y-12497984D01*
X6420420Y-12497984D02*
X6382325Y-12497984D01*
X6382325Y-12497984D02*
X6363277Y-12488460D01*
X6363277Y-12488460D02*
X6353753Y-12469412D01*
X6353753Y-12469412D02*
X6353753Y-12393222D01*
X6353753Y-12393222D02*
X6363277Y-12374174D01*
X6363277Y-12374174D02*
X6382325Y-12364650D01*
X6382325Y-12364650D02*
X6420420Y-12364650D01*
X6420420Y-12364650D02*
X6439468Y-12374174D01*
X6439468Y-12374174D02*
X6448991Y-12393222D01*
X6448991Y-12393222D02*
X6448991Y-12412269D01*
X6448991Y-12412269D02*
X6353753Y-12431317D01*
X6525182Y-12488460D02*
X6544230Y-12497984D01*
X6544230Y-12497984D02*
X6582325Y-12497984D01*
X6582325Y-12497984D02*
X6601372Y-12488460D01*
X6601372Y-12488460D02*
X6610896Y-12469412D01*
X6610896Y-12469412D02*
X6610896Y-12459888D01*
X6610896Y-12459888D02*
X6601372Y-12440841D01*
X6601372Y-12440841D02*
X6582325Y-12431317D01*
X6582325Y-12431317D02*
X6553753Y-12431317D01*
X6553753Y-12431317D02*
X6534706Y-12421793D01*
X6534706Y-12421793D02*
X6525182Y-12402746D01*
X6525182Y-12402746D02*
X6525182Y-12393222D01*
X6525182Y-12393222D02*
X6534706Y-12374174D01*
X6534706Y-12374174D02*
X6553753Y-12364650D01*
X6553753Y-12364650D02*
X6582325Y-12364650D01*
X6582325Y-12364650D02*
X6601372Y-12374174D01*
X6677563Y-12574174D02*
X6687087Y-12564650D01*
X6687087Y-12564650D02*
X6706134Y-12536079D01*
X6706134Y-12536079D02*
X6715658Y-12517031D01*
X6715658Y-12517031D02*
X6725182Y-12488460D01*
X6725182Y-12488460D02*
X6734706Y-12440841D01*
X6734706Y-12440841D02*
X6734706Y-12402746D01*
X6734706Y-12402746D02*
X6725182Y-12355127D01*
X6725182Y-12355127D02*
X6715658Y-12326555D01*
X6715658Y-12326555D02*
X6706134Y-12307508D01*
X6706134Y-12307508D02*
X6687087Y-12278936D01*
X6687087Y-12278936D02*
X6677563Y-12269412D01*
X1802500Y-12570500D02*
X1802500Y-12770500D01*
X1702500Y-12670500D02*
X1902500Y-12670500D01*
X1902500Y-12670500D02*
G75*
G02*
X1702500Y-12670500I-100000J0D01*
G01*
X1702500Y-12670500D02*
G75*
G02*
X1902500Y-12670500I100000J0D01*
G01*
X2144229Y-12561984D02*
X2268039Y-12561984D01*
X2268039Y-12561984D02*
X2201372Y-12638174D01*
X2201372Y-12638174D02*
X2229944Y-12638174D01*
X2229944Y-12638174D02*
X2248991Y-12647698D01*
X2248991Y-12647698D02*
X2258515Y-12657222D01*
X2258515Y-12657222D02*
X2268039Y-12676269D01*
X2268039Y-12676269D02*
X2268039Y-12723888D01*
X2268039Y-12723888D02*
X2258515Y-12742936D01*
X2258515Y-12742936D02*
X2248991Y-12752460D01*
X2248991Y-12752460D02*
X2229944Y-12761984D01*
X2229944Y-12761984D02*
X2172801Y-12761984D01*
X2172801Y-12761984D02*
X2153753Y-12752460D01*
X2153753Y-12752460D02*
X2144229Y-12742936D01*
X2353753Y-12742936D02*
X2363277Y-12752460D01*
X2363277Y-12752460D02*
X2353753Y-12761984D01*
X2353753Y-12761984D02*
X2344229Y-12752460D01*
X2344229Y-12752460D02*
X2353753Y-12742936D01*
X2353753Y-12742936D02*
X2353753Y-12761984D01*
X2439467Y-12581031D02*
X2448991Y-12571508D01*
X2448991Y-12571508D02*
X2468039Y-12561984D01*
X2468039Y-12561984D02*
X2515658Y-12561984D01*
X2515658Y-12561984D02*
X2534705Y-12571508D01*
X2534705Y-12571508D02*
X2544229Y-12581031D01*
X2544229Y-12581031D02*
X2553753Y-12600079D01*
X2553753Y-12600079D02*
X2553753Y-12619127D01*
X2553753Y-12619127D02*
X2544229Y-12647698D01*
X2544229Y-12647698D02*
X2429944Y-12761984D01*
X2429944Y-12761984D02*
X2553753Y-12761984D01*
X2677563Y-12561984D02*
X2696610Y-12561984D01*
X2696610Y-12561984D02*
X2715658Y-12571508D01*
X2715658Y-12571508D02*
X2725182Y-12581031D01*
X2725182Y-12581031D02*
X2734705Y-12600079D01*
X2734705Y-12600079D02*
X2744229Y-12638174D01*
X2744229Y-12638174D02*
X2744229Y-12685793D01*
X2744229Y-12685793D02*
X2734705Y-12723888D01*
X2734705Y-12723888D02*
X2725182Y-12742936D01*
X2725182Y-12742936D02*
X2715658Y-12752460D01*
X2715658Y-12752460D02*
X2696610Y-12761984D01*
X2696610Y-12761984D02*
X2677563Y-12761984D01*
X2677563Y-12761984D02*
X2658515Y-12752460D01*
X2658515Y-12752460D02*
X2648991Y-12742936D01*
X2648991Y-12742936D02*
X2639467Y-12723888D01*
X2639467Y-12723888D02*
X2629944Y-12685793D01*
X2629944Y-12685793D02*
X2629944Y-12638174D01*
X2629944Y-12638174D02*
X2639467Y-12600079D01*
X2639467Y-12600079D02*
X2648991Y-12581031D01*
X2648991Y-12581031D02*
X2658515Y-12571508D01*
X2658515Y-12571508D02*
X2677563Y-12561984D01*
X2868039Y-12561984D02*
X2887086Y-12561984D01*
X2887086Y-12561984D02*
X2906134Y-12571508D01*
X2906134Y-12571508D02*
X2915658Y-12581031D01*
X2915658Y-12581031D02*
X2925182Y-12600079D01*
X2925182Y-12600079D02*
X2934705Y-12638174D01*
X2934705Y-12638174D02*
X2934705Y-12685793D01*
X2934705Y-12685793D02*
X2925182Y-12723888D01*
X2925182Y-12723888D02*
X2915658Y-12742936D01*
X2915658Y-12742936D02*
X2906134Y-12752460D01*
X2906134Y-12752460D02*
X2887086Y-12761984D01*
X2887086Y-12761984D02*
X2868039Y-12761984D01*
X2868039Y-12761984D02*
X2848991Y-12752460D01*
X2848991Y-12752460D02*
X2839467Y-12742936D01*
X2839467Y-12742936D02*
X2829943Y-12723888D01*
X2829943Y-12723888D02*
X2820420Y-12685793D01*
X2820420Y-12685793D02*
X2820420Y-12638174D01*
X2820420Y-12638174D02*
X2829943Y-12600079D01*
X2829943Y-12600079D02*
X2839467Y-12581031D01*
X2839467Y-12581031D02*
X2848991Y-12571508D01*
X2848991Y-12571508D02*
X2868039Y-12561984D01*
X3020420Y-12761984D02*
X3020420Y-12628650D01*
X3020420Y-12647698D02*
X3029943Y-12638174D01*
X3029943Y-12638174D02*
X3048991Y-12628650D01*
X3048991Y-12628650D02*
X3077563Y-12628650D01*
X3077563Y-12628650D02*
X3096610Y-12638174D01*
X3096610Y-12638174D02*
X3106134Y-12657222D01*
X3106134Y-12657222D02*
X3106134Y-12761984D01*
X3106134Y-12657222D02*
X3115658Y-12638174D01*
X3115658Y-12638174D02*
X3134705Y-12628650D01*
X3134705Y-12628650D02*
X3163277Y-12628650D01*
X3163277Y-12628650D02*
X3182324Y-12638174D01*
X3182324Y-12638174D02*
X3191848Y-12657222D01*
X3191848Y-12657222D02*
X3191848Y-12761984D01*
X3287086Y-12761984D02*
X3287086Y-12628650D01*
X3287086Y-12647698D02*
X3296610Y-12638174D01*
X3296610Y-12638174D02*
X3315658Y-12628650D01*
X3315658Y-12628650D02*
X3344229Y-12628650D01*
X3344229Y-12628650D02*
X3363277Y-12638174D01*
X3363277Y-12638174D02*
X3372801Y-12657222D01*
X3372801Y-12657222D02*
X3372801Y-12761984D01*
X3372801Y-12657222D02*
X3382324Y-12638174D01*
X3382324Y-12638174D02*
X3401372Y-12628650D01*
X3401372Y-12628650D02*
X3429943Y-12628650D01*
X3429943Y-12628650D02*
X3448991Y-12638174D01*
X3448991Y-12638174D02*
X3458515Y-12657222D01*
X3458515Y-12657222D02*
X3458515Y-12761984D01*
X3848991Y-12552460D02*
X3677563Y-12809603D01*
X4106134Y-12561984D02*
X4125182Y-12561984D01*
X4125182Y-12561984D02*
X4144229Y-12571508D01*
X4144229Y-12571508D02*
X4153753Y-12581031D01*
X4153753Y-12581031D02*
X4163277Y-12600079D01*
X4163277Y-12600079D02*
X4172801Y-12638174D01*
X4172801Y-12638174D02*
X4172801Y-12685793D01*
X4172801Y-12685793D02*
X4163277Y-12723888D01*
X4163277Y-12723888D02*
X4153753Y-12742936D01*
X4153753Y-12742936D02*
X4144229Y-12752460D01*
X4144229Y-12752460D02*
X4125182Y-12761984D01*
X4125182Y-12761984D02*
X4106134Y-12761984D01*
X4106134Y-12761984D02*
X4087086Y-12752460D01*
X4087086Y-12752460D02*
X4077563Y-12742936D01*
X4077563Y-12742936D02*
X4068039Y-12723888D01*
X4068039Y-12723888D02*
X4058515Y-12685793D01*
X4058515Y-12685793D02*
X4058515Y-12638174D01*
X4058515Y-12638174D02*
X4068039Y-12600079D01*
X4068039Y-12600079D02*
X4077563Y-12581031D01*
X4077563Y-12581031D02*
X4087086Y-12571508D01*
X4087086Y-12571508D02*
X4106134Y-12561984D01*
X4258515Y-12742936D02*
X4268039Y-12752460D01*
X4268039Y-12752460D02*
X4258515Y-12761984D01*
X4258515Y-12761984D02*
X4248991Y-12752460D01*
X4248991Y-12752460D02*
X4258515Y-12742936D01*
X4258515Y-12742936D02*
X4258515Y-12761984D01*
X4458515Y-12761984D02*
X4344229Y-12761984D01*
X4401372Y-12761984D02*
X4401372Y-12561984D01*
X4401372Y-12561984D02*
X4382325Y-12590555D01*
X4382325Y-12590555D02*
X4363277Y-12609603D01*
X4363277Y-12609603D02*
X4344229Y-12619127D01*
X4534706Y-12581031D02*
X4544229Y-12571508D01*
X4544229Y-12571508D02*
X4563277Y-12561984D01*
X4563277Y-12561984D02*
X4610896Y-12561984D01*
X4610896Y-12561984D02*
X4629944Y-12571508D01*
X4629944Y-12571508D02*
X4639468Y-12581031D01*
X4639468Y-12581031D02*
X4648991Y-12600079D01*
X4648991Y-12600079D02*
X4648991Y-12619127D01*
X4648991Y-12619127D02*
X4639468Y-12647698D01*
X4639468Y-12647698D02*
X4525182Y-12761984D01*
X4525182Y-12761984D02*
X4648991Y-12761984D01*
X4820420Y-12561984D02*
X4782325Y-12561984D01*
X4782325Y-12561984D02*
X4763277Y-12571508D01*
X4763277Y-12571508D02*
X4753753Y-12581031D01*
X4753753Y-12581031D02*
X4734706Y-12609603D01*
X4734706Y-12609603D02*
X4725182Y-12647698D01*
X4725182Y-12647698D02*
X4725182Y-12723888D01*
X4725182Y-12723888D02*
X4734706Y-12742936D01*
X4734706Y-12742936D02*
X4744229Y-12752460D01*
X4744229Y-12752460D02*
X4763277Y-12761984D01*
X4763277Y-12761984D02*
X4801372Y-12761984D01*
X4801372Y-12761984D02*
X4820420Y-12752460D01*
X4820420Y-12752460D02*
X4829944Y-12742936D01*
X4829944Y-12742936D02*
X4839468Y-12723888D01*
X4839468Y-12723888D02*
X4839468Y-12676269D01*
X4839468Y-12676269D02*
X4829944Y-12657222D01*
X4829944Y-12657222D02*
X4820420Y-12647698D01*
X4820420Y-12647698D02*
X4801372Y-12638174D01*
X4801372Y-12638174D02*
X4763277Y-12638174D01*
X4763277Y-12638174D02*
X4744229Y-12647698D01*
X4744229Y-12647698D02*
X4734706Y-12657222D01*
X4734706Y-12657222D02*
X4725182Y-12676269D01*
X4963277Y-12561984D02*
X4982325Y-12561984D01*
X4982325Y-12561984D02*
X5001372Y-12571508D01*
X5001372Y-12571508D02*
X5010896Y-12581031D01*
X5010896Y-12581031D02*
X5020420Y-12600079D01*
X5020420Y-12600079D02*
X5029944Y-12638174D01*
X5029944Y-12638174D02*
X5029944Y-12685793D01*
X5029944Y-12685793D02*
X5020420Y-12723888D01*
X5020420Y-12723888D02*
X5010896Y-12742936D01*
X5010896Y-12742936D02*
X5001372Y-12752460D01*
X5001372Y-12752460D02*
X4982325Y-12761984D01*
X4982325Y-12761984D02*
X4963277Y-12761984D01*
X4963277Y-12761984D02*
X4944229Y-12752460D01*
X4944229Y-12752460D02*
X4934706Y-12742936D01*
X4934706Y-12742936D02*
X4925182Y-12723888D01*
X4925182Y-12723888D02*
X4915658Y-12685793D01*
X4915658Y-12685793D02*
X4915658Y-12638174D01*
X4915658Y-12638174D02*
X4925182Y-12600079D01*
X4925182Y-12600079D02*
X4934706Y-12581031D01*
X4934706Y-12581031D02*
X4944229Y-12571508D01*
X4944229Y-12571508D02*
X4963277Y-12561984D01*
X5106134Y-12561984D02*
X5106134Y-12600079D01*
X5182325Y-12561984D02*
X5182325Y-12600079D01*
X5477563Y-12838174D02*
X5468039Y-12828650D01*
X5468039Y-12828650D02*
X5448991Y-12800079D01*
X5448991Y-12800079D02*
X5439468Y-12781031D01*
X5439468Y-12781031D02*
X5429944Y-12752460D01*
X5429944Y-12752460D02*
X5420420Y-12704841D01*
X5420420Y-12704841D02*
X5420420Y-12666746D01*
X5420420Y-12666746D02*
X5429944Y-12619127D01*
X5429944Y-12619127D02*
X5439468Y-12590555D01*
X5439468Y-12590555D02*
X5448991Y-12571508D01*
X5448991Y-12571508D02*
X5468039Y-12542936D01*
X5468039Y-12542936D02*
X5477563Y-12533412D01*
X5534706Y-12561984D02*
X5658515Y-12561984D01*
X5658515Y-12561984D02*
X5591849Y-12638174D01*
X5591849Y-12638174D02*
X5620420Y-12638174D01*
X5620420Y-12638174D02*
X5639468Y-12647698D01*
X5639468Y-12647698D02*
X5648991Y-12657222D01*
X5648991Y-12657222D02*
X5658515Y-12676269D01*
X5658515Y-12676269D02*
X5658515Y-12723888D01*
X5658515Y-12723888D02*
X5648991Y-12742936D01*
X5648991Y-12742936D02*
X5639468Y-12752460D01*
X5639468Y-12752460D02*
X5620420Y-12761984D01*
X5620420Y-12761984D02*
X5563277Y-12761984D01*
X5563277Y-12761984D02*
X5544230Y-12752460D01*
X5544230Y-12752460D02*
X5534706Y-12742936D01*
X5896610Y-12761984D02*
X5896610Y-12561984D01*
X5982325Y-12761984D02*
X5982325Y-12657222D01*
X5982325Y-12657222D02*
X5972801Y-12638174D01*
X5972801Y-12638174D02*
X5953753Y-12628650D01*
X5953753Y-12628650D02*
X5925182Y-12628650D01*
X5925182Y-12628650D02*
X5906134Y-12638174D01*
X5906134Y-12638174D02*
X5896610Y-12647698D01*
X6106134Y-12761984D02*
X6087087Y-12752460D01*
X6087087Y-12752460D02*
X6077563Y-12742936D01*
X6077563Y-12742936D02*
X6068039Y-12723888D01*
X6068039Y-12723888D02*
X6068039Y-12666746D01*
X6068039Y-12666746D02*
X6077563Y-12647698D01*
X6077563Y-12647698D02*
X6087087Y-12638174D01*
X6087087Y-12638174D02*
X6106134Y-12628650D01*
X6106134Y-12628650D02*
X6134706Y-12628650D01*
X6134706Y-12628650D02*
X6153753Y-12638174D01*
X6153753Y-12638174D02*
X6163277Y-12647698D01*
X6163277Y-12647698D02*
X6172801Y-12666746D01*
X6172801Y-12666746D02*
X6172801Y-12723888D01*
X6172801Y-12723888D02*
X6163277Y-12742936D01*
X6163277Y-12742936D02*
X6153753Y-12752460D01*
X6153753Y-12752460D02*
X6134706Y-12761984D01*
X6134706Y-12761984D02*
X6106134Y-12761984D01*
X6287087Y-12761984D02*
X6268039Y-12752460D01*
X6268039Y-12752460D02*
X6258515Y-12733412D01*
X6258515Y-12733412D02*
X6258515Y-12561984D01*
X6439468Y-12752460D02*
X6420420Y-12761984D01*
X6420420Y-12761984D02*
X6382325Y-12761984D01*
X6382325Y-12761984D02*
X6363277Y-12752460D01*
X6363277Y-12752460D02*
X6353753Y-12733412D01*
X6353753Y-12733412D02*
X6353753Y-12657222D01*
X6353753Y-12657222D02*
X6363277Y-12638174D01*
X6363277Y-12638174D02*
X6382325Y-12628650D01*
X6382325Y-12628650D02*
X6420420Y-12628650D01*
X6420420Y-12628650D02*
X6439468Y-12638174D01*
X6439468Y-12638174D02*
X6448991Y-12657222D01*
X6448991Y-12657222D02*
X6448991Y-12676269D01*
X6448991Y-12676269D02*
X6353753Y-12695317D01*
X6525182Y-12752460D02*
X6544230Y-12761984D01*
X6544230Y-12761984D02*
X6582325Y-12761984D01*
X6582325Y-12761984D02*
X6601372Y-12752460D01*
X6601372Y-12752460D02*
X6610896Y-12733412D01*
X6610896Y-12733412D02*
X6610896Y-12723888D01*
X6610896Y-12723888D02*
X6601372Y-12704841D01*
X6601372Y-12704841D02*
X6582325Y-12695317D01*
X6582325Y-12695317D02*
X6553753Y-12695317D01*
X6553753Y-12695317D02*
X6534706Y-12685793D01*
X6534706Y-12685793D02*
X6525182Y-12666746D01*
X6525182Y-12666746D02*
X6525182Y-12657222D01*
X6525182Y-12657222D02*
X6534706Y-12638174D01*
X6534706Y-12638174D02*
X6553753Y-12628650D01*
X6553753Y-12628650D02*
X6582325Y-12628650D01*
X6582325Y-12628650D02*
X6601372Y-12638174D01*
X6677563Y-12838174D02*
X6687087Y-12828650D01*
X6687087Y-12828650D02*
X6706134Y-12800079D01*
X6706134Y-12800079D02*
X6715658Y-12781031D01*
X6715658Y-12781031D02*
X6725182Y-12752460D01*
X6725182Y-12752460D02*
X6734706Y-12704841D01*
X6734706Y-12704841D02*
X6734706Y-12666746D01*
X6734706Y-12666746D02*
X6725182Y-12619127D01*
X6725182Y-12619127D02*
X6715658Y-12590555D01*
X6715658Y-12590555D02*
X6706134Y-12571508D01*
X6706134Y-12571508D02*
X6687087Y-12542936D01*
X6687087Y-12542936D02*
X6677563Y-12533412D01*
M02*
